<svg id="_Layer_" data-name="&lt;Layer&gt;" xmlns="http://www.w3.org/2000/svg" xmlns:xlink="http://www.w3.org/1999/xlink" viewBox="0 0 558.04 668.75"><defs><style>.cls-1{fill:#767288;}.cls-2{fill:#521e08;}.cls-3{fill:#8bc246;}.cls-4{isolation:isolate;}.cls-5{fill:#9a96ab;}.cls-6{clip-path:url(#clip-path);}.cls-7{fill:#464257;}.cls-8{fill:#f3a984;}.cls-9{fill:#ffbfa2;}.cls-10{fill:#dc373f;}.cls-11{fill:#2a2a34;}.cls-12{fill:#101021;}.cls-13{fill:#e7dacc;}.cls-14{fill:#a82128;}.cls-15{clip-path:url(#clip-path-2);}.cls-16{fill:#652f0b;}.cls-17{fill:#4e2409;}.cls-18{fill:#ffc7ad;}.cls-19{fill:#1f1f29;}</style><clipPath id="clip-path"><path class="cls-1" d="M419,122.44l57.48-33.95a2.64,2.64,0,0,0,1.08-2.41,8.29,8.29,0,0,0-3.79-6.46,2.66,2.66,0,0,0-2.67-.24l-57.48,34a2.63,2.63,0,0,1,2.67.24,8.24,8.24,0,0,1,3.78,6.45A2.63,2.63,0,0,1,419,122.44Z"/></clipPath><clipPath id="clip-path-2"><path class="cls-2" d="M200.89,247,418.33,122.32a2.32,2.32,0,0,0,1-2.12,7.29,7.29,0,0,0-3.27-5.74,2.33,2.33,0,0,0-2.36-.24L196.24,238.88a2.36,2.36,0,0,1,2.36.25,7.26,7.26,0,0,1,3.27,5.74A2.33,2.33,0,0,1,200.89,247Z"/></clipPath></defs><path class="cls-3" d="M457.25,554.92c-3.75-7.37-11.13-12.19-18.66-15.6-17.63-8-37.29-9.92-56.1-14.47C334.07,513.13,290.83,484,241.76,475.4a204.53,204.53,0,0,0-20.49-2.47c-13.67,1.23-27.26,2.74-40.91,2.49A116.12,116.12,0,0,1,163,476.77a47.51,47.51,0,0,0-15.55,5.32c-4.5,2.56-8.76,5.87-13.45,8.2-5.39,6.51-12.94,11.7-14.87,20.32-.16.72-.29,1.47-.42,2.25a23.81,23.81,0,0,0,1.26,6.83c4.29,12.47,17.1,19.58,28.87,25.54l57,28.84c31.1,15.75,62.27,31.52,94.76,44.16,26,10.1,54.38,18.24,81.43,11.56,15.78-3.89,29.89-12.56,43.71-21.11,9.76-6,19.76-12.28,26.67-21.46S462.46,565.15,457.25,554.92Z"/><g class="cls-4"><g class="cls-4"><path class="cls-1" d="M421,143.32l6.39,3.71c-5.06,26.67-15.52,41.81-23.29,58.28l-1.52-.88C410.37,188,422.71,153,421,143.32Z"/></g><polygon class="cls-1" points="427.3 114.32 420.91 110.61 421.02 143.32 427.41 147.03 427.3 114.32"/><polygon class="cls-1" points="474.99 86.77 468.6 83.06 420.91 110.61 427.3 114.32 474.99 86.77"/><path class="cls-5" d="M427.3,114.32l.11,32.71c-5.06,26.67-15.52,41.81-23.29,58.28,14.36,3.58,30.85,0,47.33-9.54s32.94-25,47.22-45.1c-7.85-7.45-20.41-12.47-23.57-31.2L475,86.76Z"/></g><g class="cls-4"><g class="cls-4"><path class="cls-1" d="M419,122.44l57.48-33.95a2.64,2.64,0,0,0,1.08-2.41,8.29,8.29,0,0,0-3.79-6.46,2.66,2.66,0,0,0-2.67-.24l-57.48,34a2.63,2.63,0,0,1,2.67.24,8.24,8.24,0,0,1,3.78,6.45A2.63,2.63,0,0,1,419,122.44Z"/><g class="cls-6"><g class="cls-4"><path class="cls-1" d="M419,122.44l57.48-33.95a2.64,2.64,0,0,0,1.08-2.41,7.44,7.44,0,0,0-.83-3.15l-57.48,33.95a7.24,7.24,0,0,1,.82,3.14,2.63,2.63,0,0,1-1.07,2.42Z"/><path class="cls-5" d="M419.29,116.88l57.48-33.95a8,8,0,0,0-3-3.31,3.74,3.74,0,0,0-1.47-.49l-57.48,33.94a3.67,3.67,0,0,1,1.47.5,8,8,0,0,1,3,3.31Z"/><path class="cls-1" d="M414.86,113.07l57.48-33.94a2,2,0,0,0-1.2.25l-57.48,34a2.07,2.07,0,0,1,1.2-.26Z"/></g></g></g><path class="cls-7" d="M416.36,122.19c2.09,1.19,3.76.21,3.75-2.17a8.24,8.24,0,0,0-3.78-6.45c-2.08-1.18-3.76-.21-3.75,2.17A8.24,8.24,0,0,0,416.36,122.19Z"/></g><path class="cls-8" d="M197.85,303.21c1.41,6.46,6.45,12.58,11.17,16.58a7.53,7.53,0,0,0,3.4,1.72,2.79,2.79,0,0,0,2.32-.22,2.21,2.21,0,0,0,.63-2.39,6.69,6.69,0,0,0-1.37-2.23,14.76,14.76,0,0,1-1.5-2.87s4.54,3.87,5.91,1.69c1.3-2.75-.85-5.52-1.66-8.13a1.39,1.39,0,0,1,1.38-.3,3.92,3.92,0,0,0,1.47.19,1.71,1.71,0,0,0,1.21-1.1c.7-1.83-.87-3.46-1.85-4.82a4.33,4.33,0,0,1-.84-1.82c-.23-1.43.67-2.76,1.5-3.95,1.33-1.88,2.39-2.87,3.18-5.05a28.14,28.14,0,0,0,1.56-7.81c.09-2.48,1.15-8.29-.45-10-1.81-1.92-6.46-1.84-8.81-2.26s-5-.39-6.74,1.18a9.6,9.6,0,0,0-2.12,3.46l-5.17,12.06c-1.53,3.56-3.07,7.19-3.51,11.05A15.38,15.38,0,0,0,197.85,303.21Z"/><path class="cls-9" d="M206.66,307.15c-.49,3.71-1.61,7.32-1.85,11.06a6.55,6.55,0,0,0,.29,2.82,2.74,2.74,0,0,0,2.05,1.81,2.92,2.92,0,0,0,2.77-1.68,10.69,10.69,0,0,0,.9-3.31c1.49-8.1,6.68-15.24,7.66-23.41.21-1.71.18-3.64-.95-5a6.15,6.15,0,0,0-4.07-2.68,7,7,0,0,0-5,1.39,9.71,9.71,0,0,0-3.11,4.25,7.44,7.44,0,0,0-.37,4.35c.29,1.47,1.33,2.68,1.61,4.17A19.72,19.72,0,0,1,206.66,307.15Z"/><path class="cls-10" d="M256.31,510.5c1.89.63,7.38,1.9,9.62,1.33,5.65-1.43,5.15-15.22,7.2-32.14,1.86-15.41,6.39-30.68,5.52-46.33-.81-14.56-8.33-41.62-17.14-53.1-2.47-3.21-4.3,7.78-7.86,5.83-11.26-6.18-21.17-13.81-22.45-6.66-4.83,27,7.88,53.46,9.71,66.76,2.22,16.19,5.46,46.88,5.44,50.49,0,1.84-.57,3.56,0,5.35C247.67,506,252.32,509.15,256.31,510.5Z"/><path class="cls-10" d="M303.2,413.91c-3.07,1-5,2.15-3.62,6.35s3.87,7.77,5.7,11.69A249,249,0,0,1,318,465.25c1.74,5.79,3.28,11.66,4.58,17.57,1.17,5.34.77,10.22,5.38,13.74s9.52,7.14,15.27,7.54c3.67.25,10-.62,13.2-2.49,2.83-1.65,1.75-6.18,1.85-9.22.2-6-1.22-12.33-2.27-18.31a188.91,188.91,0,0,0-4.31-18.92c-3.57-12.69-7-25.53-12.14-37.68-1.07-2.52-2.18-6.48-4.06-8.49-2.19-2.32-5.41-1.26-8.63-.87a97.06,97.06,0,0,0-20.45,4.76C305.27,413.28,304.18,413.59,303.2,413.91Z"/><path class="cls-10" d="M231.09,323.66c-6.1,37.28-.23,49.68-2.28,59.33-3.26,15.29,3,25.89,12,33.05,5.73,4.54,7.79,2,10.31,1.09,2-.71,4.18-.7,6.19-1.53,10.07-4.19,10.54-13.87,13.4-26,4.86-20.48,9.47-41.08,14.61-61.47a80.19,80.19,0,0,0,2.22-12.29,65.45,65.45,0,0,0-.84-20.43c-1.15-5.08-2.15-11.8-7.17-14.66-2.41-1.37-5.32-1.43-8.1-1.45-7.71-.07-27.28-8.89-27.53-8C240.12,285.45,233.47,309.11,231.09,323.66Z"/><path class="cls-10" d="M323.84,269.43c-15.29,4.05-33.72,5.49-49.54,5-2.51-.08-5.37-.08-7.07,1.77-1.4,1.52-1.52,3.79-1.56,5.85-.19,10-.32,20.27,3.4,29.53,2.94,7.3,8.11,13.48,11.68,20.5,5.79,11.38,9.74,49.82,11.16,56.2,1.07,4.78,4.75,25.57,7.87,32.53,2.72,6.06,9.39,15,15.28,18s13.94,2.59,18.3-2.42c5.53-6.35,7.07-81.08,6.62-92.32-.49-12.16-1-23.26-6.22-37.92C330,295.6,324.12,272,323.84,269.43Z"/><path class="cls-11" d="M328.9,522.65c.21,1.92.35,3.86.4,5.81.32,12.5-3,24.89-7.87,36.4-2.31,5.43-7.92,15-3.44,20.67,2.31,2.9,6.51,3.28,10.21,3.28,12,0,24.41-4.35,28.6-16.68,1.67-4.9,1.1-9.71,2.32-14.63,1.51-6.11,2.69-12.4,2.19-18.71-.43-5.4-2.09-10.64-2.4-16a134.11,134.11,0,0,1,.3-15c.88-16.15,4.29-32.52.82-48.32-.45-2-1.18-4.26-3-5.23a7.4,7.4,0,0,0-4-.51c-12.17.86-23.87,4.79-35.42,8.68-1.85.63-3.83,1.35-4.92,3-1.59,2.35-.65,5.53.37,8.18C319.3,489.6,327,505.63,328.9,522.65Z"/><path class="cls-11" d="M281.88,497.37c4.8,8.88,4.28,25.34-5,30.57-3.64,2-9.8,3.25-14,3.26-12.69,0-21.55,9.27-32.72,14.16-6.12,2.68-15.17,4.11-24.1-2.13-4.64-3.23-9.63-9.72-5.65-15.24a13.41,13.41,0,0,1,4.58-3.61c10.72-5.89,23.74-8.67,31.61-18,14.89-17.74,1.67-59.1,3.11-64.26,1.24-4.43,20.94-8.54,32.55-4.87,10.11,3.19,8.18,5.71,7,12.13C276.54,463.47,276.16,486.78,281.88,497.37Z"/><path class="cls-12" d="M349.26,381.45c.17,1.81.3,3.76-.64,5.32a8.47,8.47,0,0,1-3.79,2.91c-35.88,17.61-79.92,17.58-115.78-.09a9.94,9.94,0,0,1-4.13-3.07c-1.24-1.85-1.16-4.26-1-6.48,1.84-32.18.93-70,17.7-97.52.83-1.35,4.95,1.42,6.34.66,1.75-.93,3.86-.69,5.82-.42l51.86,7.11c16.12,2.21,29.25,7.44,33.2,24C344.1,336,347.17,358.84,349.26,381.45Z"/><path class="cls-13" d="M239.26,292.49c1.38,1.46,2,5.68,16.75,13.55,9.53,5.07,14.76,7.91,26.78,8.55,4.86.25,23,.31,30.09-1a41.25,41.25,0,0,0,13.24-4.53c3.81-2.21,4.53-3.43,7.53-6.6.59-.62,2.36,2.09,1.93,2.83-12.4,21.11-51.48,18.28-59.92,16.07-9.9-2.59-34.61-13.82-37.65-16.59-2.87-2.61-3.12-5.73-4.23-6.18C233.62,297.21,237,290.11,239.26,292.49Z"/><path class="cls-12" d="M245.41,135.89c-6.06,9-9.45,19.7-12,30.41s-9.17,31.84-12.34,42.35c-1.56,5.17.65,16.58,3.73,20.84,2.61,3.62,6.8,4.32,10.82,3.28,4.92-1.27,7.43-4.4,10.26-8.7,5.81-8.88,9.27-19.16,12.65-29.25q6.1-18.28,12.23-36.57c3.93-11.77,8.81-26.07-3-34.32C259.09,117.84,250.2,128.78,245.41,135.89Z"/><path class="cls-12" d="M235.75,252.39c-7.61,20.1-4.87,23.17-9.42,26.05-1.8,1.14-14.29-.35-17.64-2.51-5.91-3.8-1-15.56.15-20,15-56.58,14.16-54.82,16.11-56.46,2.61-2.21,7-1.42,10.19,0,7.74,3.35,13.76,7.29,11.74,15.14C243.77,226.59,240.22,240.58,235.75,252.39Z"/><path class="cls-11" d="M289.32,123.3a58,58,0,0,0-10.83-1.73c-7.31-.43-15.12,1.57-20.12,6.93a27.25,27.25,0,0,0-4.83,7.77c-3.88,8.83-5.1,18.52-5.94,28-.86,9.82-2.5,19.71-3.57,29.57-10.64,98.51-10.47,99.58-2.58,106,12.89,10.5,34.06,16.59,39.55,17.58,21.64,3.9,43.43-7.32,47.06-9.47,5-2.93,8.2-8,7.71-13.74-.35-4.12-2.53-10.35-3.28-14.41-5.14-27.67,30.36-84,17.12-114.61-6-13.89-17.3-19.87-26.29-25.87C313.52,132.84,301.44,126.35,289.32,123.3Z"/><path class="cls-12" d="M352.89,159.86c6.81,12.21,8.87,24,21,73.32,2.09,8.5,4.53,19,1.28,27.15-1.5,3.76-12.41,7.87-16.19,6.05-10.25-4.94-14.8-41.72-34.55-74.38-5.72-9.45-5-13.61-6.19-19.19-1.62-7.9-1.86-23.75,4.66-28.11C325.81,142.74,342.18,140.63,352.89,159.86Z"/><path class="cls-14" d="M264.43,84.8c.49-2.62,1.06-5.21,1.77-7.72A64.91,64.91,0,0,1,292,41.46C316.21,25,342.66,45.33,351.91,68c5.68,14,5.15,28.31,4,43.22-3.06-7.16-9.14-13.08-14.53-18.62a1.91,1.91,0,0,0-1-.69,1.93,1.93,0,0,0-1,.21L333,94.63c-.83.33-3.22,11.1-3.72,12.57-1.3,3.84-3.78,9.06-3.26,13.21.76,6.24,6.88,9.29,11.24,13a84.34,84.34,0,0,1,14.46,15.09C355,153.1,356.6,156.84,359,162c5.82,12.38,7.19,21.17,8.93,40.15-3.8-2.6-16.2-9.92-16.29-6.08-.12,5,3.22,6.08-.93,8.58-5.4,3.24-6.49,1.54-8.45-.19-4.91-4.32-1.43,8.86-5.68,11.91-2.63,1.89-6.61.09-8.08-2.8-.77-1.49-1.38-3.48-3-3.74s-3,1.7-3.2,3.44.06,3.63-.82,5.14a4.29,4.29,0,0,1-5,1.7c-4-1.36-3.47-6-3.76-7.19-.81-3.44-4.75-5-8.15-5.94,0,5-7.08,6.13-8.64,1.4-.67-2,0-8.25-4.79-11-2.2-1.28-4.25-.59-4.83,3.28-.39,2.61-1,4.63-3.81,4.42-5.65-.4-5.5-6.45-5.59-7-.64-3.82-4.8-4.53-6.06-2.14-.71,1.36-.06,3.14-.8,4.48-1.56,2.87-8.14,1.75-8.58-2.26-.07-.6,0-1.2,0-1.81-.09-2.49-4.27-3.72-5.37-1.66a30.26,30.26,0,0,0-2.42,6c-2.9.83-6.53-.1-7.84-2.82s.08-8.79-7.22-7.69c-1.77.26-3.55.8-5.31.48s-3.48-1.93-3.1-3.68a10.84,10.84,0,0,1,.67-1.62,4.61,4.61,0,0,0-3.5-6c-4.8-.64-1.71-3.15-.84-10.35a45.69,45.69,0,0,1,.9-6.63,113.25,113.25,0,0,1,8.34-22.76,94,94,0,0,1,14.14-20.24c4.09-4.53,8.83-9,11-14.81C263.34,98.27,263.21,91.29,264.43,84.8Z"/><path class="cls-10" d="M264.43,84.8c.49-2.62,1.06-5.21,1.77-7.72A64.91,64.91,0,0,1,292,41.46C316.21,25,342.66,45.33,351.91,68c5.68,14,5.15,28.31,4,43.22-3.06-7.16-9.14-13.08-14.53-18.62a1.91,1.91,0,0,0-1-.69,1.93,1.93,0,0,0-1,.21L333,94.63c-.83.33-3.22,11.1-3.72,12.57-1.75,5.18-5.69,9.53-2.19,15,2,3.1,5.73,5.11,6.62,8.68,1,4.2-2.35,8.08-5.48,11.08l-4.34,4.17c-4.59,4.4-10.09,9.12-16.41,8.36-4.09-.49-7.52-3.25-11.36-4.75a19.22,19.22,0,0,0-9.28-1.18c-4.95.59-9.49,3.07-14.4,3.9-10.26,1.73-21.29-4.93-24.53-14.82-3.32-10.13,1.73-17.74,8.17-24.83C263.11,105.09,262.62,94.42,264.43,84.8Z"/><g class="cls-4"><g class="cls-4"><path class="cls-2" d="M200.89,247,418.33,122.32a2.32,2.32,0,0,0,1-2.12,7.29,7.29,0,0,0-3.27-5.74,2.33,2.33,0,0,0-2.36-.24L196.24,238.88a2.36,2.36,0,0,1,2.36.25,7.26,7.26,0,0,1,3.27,5.74A2.33,2.33,0,0,1,200.89,247Z"/><g class="cls-15"><g class="cls-4"><path class="cls-2" d="M200.89,247,418.33,122.32a2.32,2.32,0,0,0,1-2.12,5.9,5.9,0,0,0-.35-1.94L201.52,242.93a5.61,5.61,0,0,1,.35,1.94,2.33,2.33,0,0,1-1,2.12Z"/><path class="cls-16" d="M201.52,242.93,419,118.26a7.52,7.52,0,0,0-2.5-3.52L199,239.41a7.57,7.57,0,0,1,2.49,3.52Z"/><path class="cls-2" d="M199,239.41,416.46,114.74l-.42-.28a2.33,2.33,0,0,0-2.36-.24L196.24,238.88a2.36,2.36,0,0,1,2.36.25c.14.08.29.18.43.28Z"/></g></g></g><path class="cls-17" d="M198.54,246.74c1.82,1.07,3.31.23,3.33-1.87a7.26,7.26,0,0,0-3.27-5.74c-1.83-1.07-3.32-.23-3.34,1.87A7.27,7.27,0,0,0,198.54,246.74Z"/></g><path class="cls-18" d="M315.53,194.5c-4.41-8.1-9.08-16.49-16.67-21.73-2.6-1.79-5.72-3.2-8.84-2.72a10.26,10.26,0,0,0-7.19,5.68,22.2,22.2,0,0,0-2.05,9.22,3.5,3.5,0,0,0,.11,1.29,3,3,0,0,0,2.66,1.68,17.24,17.24,0,0,1,3.3.29c2.39.73,3.44,3.43,4.48,5.7,2.09,4.58,5.76,8.86,10.7,9.81,1.73.34,3.6.27,5.12,1.16s2.46,2.74,3.13,4.46,1.29,3.57,2.63,4.85,3.69,1.72,5,.41a4.66,4.66,0,0,0,1-2,20.61,20.61,0,0,0,.79-9.45C319.15,200.1,317,197.23,315.53,194.5Z"/><path class="cls-12" d="M302.83,209.12c-.06-.09-.11-.18-.16-.27a14.44,14.44,0,0,1-2-4.32c-1.57-7.21,7.46-14.61,13.48-16.26a3.87,3.87,0,0,1,2.18-.12,4.15,4.15,0,0,1,1.49,1c13.91,13,27.84,26.07,41.38,39.42,9.84,9.69,19,17,16.46,30.29-1.5,7.78-8.15,11-15,9.56-7.59-1.6-14.6-5.35-20.81-10-7.91-5.95-14-14.35-19.72-22.39C313.93,227.36,308.37,218.23,302.83,209.12Z"/><path class="cls-12" d="M289.26,91.92c0,2.57,4.65,4.64,10.39,4.64s5.73-9.29,0-9.28S289.26,89.36,289.26,91.92Z"/><path class="cls-12" d="M279.62,88.14c-1.63,1.68-5.89.17-9.5-3.36s2.31-9.6,5.93-6.06S281.26,86.47,279.62,88.14Z"/><path class="cls-13" d="M311.59,316.43a9.56,9.56,0,0,1,5.05,4.9c4.45,3.61,8.72,7.7,10,13.48.77,3.35.06,6.31-.82,9.54a10.63,10.63,0,0,0-.23,6.36c.39,1.2,1.91,4.84,3.19,5.37a1.87,1.87,0,0,1-.5,3.65c-3.12.25-5.12-4.21-6.16-6.55-1.75-3.93-1-7.36.16-11.33,1.41-4.93.08-9-3.07-12.91-.28-.35-.59-.7-.92-1,.35,5.47-1.66,10.68-2.88,16-.73,3.18-1.23,6.32.47,9.28,1.4,2.42,3.58,4.31,5.25,6.53,2.45,3.26,5.09,9.7,1,12.8a2,2,0,0,1-2,0l-.26-.14a1.76,1.76,0,0,1-.81-2l.05-.17a1.75,1.75,0,0,1,.41-.68c2.54-4.08-3-8.89-5.29-11.81a14,14,0,0,1-3.24-11.4c.74-5.28,3.08-10.27,3.5-15.59.37-4.8-1.15-8.27-4.42-11.62C309,318,310.06,315.85,311.59,316.43Z"/><path class="cls-19" d="M362.4,488.77c-2.56,5.51-18.12,13.46-38.79,14a3,3,0,0,1-3.24-1.64c-9.27-13.24-13.06-32.1-10.11-35.78s34-10.25,40.12-11.3c10.21-1.77,9.81,2.94,11.13,8.86C363.64,472.4,364,485.25,362.4,488.77Z"/><path class="cls-19" d="M284,462.63a10.34,10.34,0,0,1-1.58,3.8,11.79,11.79,0,0,1-5.28,3.36c-10.8,4.14-23.36,4.21-35.27,2.23a4.29,4.29,0,0,1-1.67-.51,3.74,3.74,0,0,1-1.22-1.6,55.37,55.37,0,0,1-5.5-30.49c.18-1.56.5-3.23,1.79-4.27a8.46,8.46,0,0,1,4.28-1.3,262,262,0,0,1,37.11-1.61c2.53.07,6.22.42,8,2.4s1.29,5.58,1.39,7.82A68,68,0,0,1,284,462.63Z"/></svg>