<svg id="_Layer_" data-name="&lt;Layer&gt;" xmlns="http://www.w3.org/2000/svg" viewBox="0 0 920.94 1075.41"><defs><style>.cls-1{fill:#8bc246;}.cls-2{fill:#ffffe2;}.cls-3{fill:#ecead3;}.cls-4{fill:#133b56;}.cls-5{fill:#ffd975;}.cls-6{fill:#dc373f;}.cls-7{fill:#a82128;}.cls-8{fill:#1d3f7a;}.cls-9{fill:#fcb645;}.cls-10{fill:#f3a984;}.cls-11{fill:#ffc7ad;}.cls-12{fill:#2f2f3a;}.cls-13{fill:#6b6d84;}.cls-14{fill:#384350;}.cls-15{fill:#ffbfa2;}.cls-16{fill:#7e595e;}.cls-17{fill:#57932a;}.cls-18{fill:#423945;}.cls-19{fill:#ff3645;}</style></defs><path class="cls-1" d="M393.23,927.07c21.19,26.32,10,87.31-168.4,143.41-107.52,33.81-204,24.64-220.34-19.08C-22.76,978.69,78.56,973.31,185.91,939S337.93,858.42,393.23,927.07Z" transform="translate(0 -15.56)"/><ellipse class="cls-1" cx="430.3" cy="1026.61" rx="130.99" ry="40.83"/><path class="cls-2" d="M531,1028.42a24.25,24.25,0,1,1-24.25-24.25A24.26,24.26,0,0,1,531,1028.42Z" transform="translate(0 -15.56)"/><path class="cls-3" d="M494.79,1039.86a24.22,24.22,0,0,0,22.5-33.26,24.24,24.24,0,1,1-33,30.84A24.05,24.05,0,0,0,494.79,1039.86Z" transform="translate(0 -15.56)"/><path class="cls-4" d="M521.34,1055.14c0,1.91-1.09,3.46-2.41,3.46H494.7c-1.34,0-2.41-1.55-2.41-3.46s1.07-3.46,2.41-3.46h24.23C520.25,1051.68,521.34,1053.23,521.34,1055.14Z" transform="translate(0 -15.56)"/><rect class="cls-4" x="502.72" y="1040.87" width="8.17" height="9.42"/><path class="cls-5" d="M108.36,65.68C99.57,69,92.46,74.12,84.49,80.5a128.73,128.73,0,0,1-63.8,27.06A25.35,25.35,0,0,0,33.52,122c11.6,5.59,25.54,1.53,36.92-4.46s22.09-13.94,34.7-16.48c4.92-1,10-1.11,14.94-1.69A82.88,82.88,0,0,0,155.76,86.5c2.92-1.92,5.79-4.08,7.66-7C176.53,59,126.68,61.19,117.63,63A61,61,0,0,0,108.36,65.68Z" transform="translate(0 -15.56)"/><path class="cls-6" d="M168.05,56.45A73.08,73.08,0,0,0,81.37,33.31c-15.73,6.67-28.89,18-43.31,27-5.66,3.51-12.1,6-17.18,10.15C20,71.15,8.32,80.55,8.26,80.48c7.86,5.71,18.43,6.58,27.93,4.56S54.42,78.44,63,74,80.45,65,90,63.26c15-2.75,29.25,1.56,40.68,11.14,9.87,8.26,25.76,10,38,7.31C181.67,78.89,173.07,63.08,168.05,56.45Z" transform="translate(0 -15.56)"/><path class="cls-7" d="M295.91,251.1c17.77,23.11,28.24,91.06,30.37,99.27,2.37,9.1,4.79,18.19,7.14,27.29s-3.2,28.29-9.5,35.3c-5.35,5.94-13.33,6.73-20.78,4.57-9.13-2.65-13.48-8.25-18.29-15.89C275,385.89,269.66,368,264.51,350.38l-18.69-63.75c-3.07-10.47-6.17-21.14-5.87-32,.08-3,.1-6.89,1.32-9.69,1-2.31,3.18-3.75,5.31-5.24A37.44,37.44,0,0,1,262,233.24C277.25,230.83,287.56,240.23,295.91,251.1Z" transform="translate(0 -15.56)"/><path class="cls-8" d="M257.24,901.71c-3.27-5.5-2.84-12.18-2.86-18.48-.08-19.27-5.08-38.07-6.8-57.15-1.92-21.22-5.36-36.5-5.27-55.09.11-20.8,14.84-58.91,14.84-58.91s68.81-13.64,70.4-5.15c5.18,27.79-8.46,60.64-12.05,77.22-20,92.47-16.89,112.07-23.79,119.81C284.44,912.12,262.75,911,257.24,901.71Z" transform="translate(0 -15.56)"/><path class="cls-9" d="M177.11,737.42c2.84.67,6.1,1.72,7.44,4.54,3.68,7.69-5.8,23-8.41,29.84a429.7,429.7,0,0,0-21.52,78c-18.92,105.1-.23,134.73-19.29,140.54-7.8,2.38-22.87,2.25-27.47-8.82-5.38-12.94.44-24.52-9.7-70.57C91.56,881,77.42,846,93,794.19c8.1-26.86,16.71-33.82,19.3-46,1-4.75,2.46-10.6,5.52-14.48C124.24,725.57,167,735,177.11,737.42Z" transform="translate(0 -15.56)"/><path class="cls-8" d="M294.62,560.11C305.53,587.65,314,616,318.09,645c.88,6.29,12.69,62.34,10.38,78.45,0,0-19,12.72-29.15,14.13-13.7,1.89-27.36-1.91-35.12-12.78C256.92,714.56,224.6,643,195,583.87c-12-23.93-16.06-45.67-15.73-60.75.22-9.92-.51-22.88,8.15-30.06,4.15-3.43,9.82-4.61,15.22-5.67,15-2.94,49.7-26.61,50.55-25C266.28,487.37,284.19,533.75,294.62,560.11Z" transform="translate(0 -15.56)"/><path class="cls-9" d="M178.86,478.11c10.07.48,20.72,3.63,30.67,3.33,9.2-.28,13.34,1.42,14.46,11.81,6.47,60-6.24,60.4-19.3,92.77C196,607.51,195,677.58,193.46,689.33c-1.16,8.81-4.51,47-9.05,60-3.95,11.36-14.61,28.54-24.79,35s-24.83,6.89-33.52-1.45c-12.5-12-31.42-187.61-29.44-220.23,2.72-44.7,18.79-64.08,19.48-78.53C116.23,482.24,150.86,476.8,178.86,478.11Z" transform="translate(0 -15.56)"/><path class="cls-6" d="M185.51,223.94q6.35-1.63,12.76-2.95c6.83-1.41,13.79-2.57,20.73-2.07,19.41,1.39,36,15.82,45.06,33S276,288.76,278.2,308c3.26,28.2,1,54.66-3.16,82.6-4.62,30.66-1.52,61.31,5.53,91.34,6.1,26,11.31,53.06,23,77.32,3.16,6.54,6.46,12.92,9.4,19.53,2.57,5.79,7.11,10.19,10.41,15.6a71.41,71.41,0,0,1,10.49,39.5c-.09,2.67-.53,5.69-2.72,7.23-3.27,2.33-7.72-.26-10.73-2.92a112.38,112.38,0,0,1-12-12.45c-2.12-2.57-4.5-5.45-7.82-5.82-3.79-.41-7.16,2.84-8.38,6.44s-.86,7.52-.81,11.32A65.7,65.7,0,0,1,286.63,663a9,9,0,0,1-3,4.38c-2.34,1.51-5.45.7-8-.46a34.33,34.33,0,0,1-18-20.14c-2.38-7.2-2.38-15.27-6.39-21.7a4.52,4.52,0,0,0-2.08-2c-1.56-.56-3.2.51-4.51,1.54a31.29,31.29,0,0,0-6.1,5.84c-9,12.28,1.58,30.68-4.9,44.42a7.51,7.51,0,0,1-3.29,3.79,9.23,9.23,0,0,1-4.35.52c-5.48-.22-11.45-.63-15.49-4.33s-4.94-9.37-5.86-14.65a248.34,248.34,0,0,0-7.54-31.12c-.45-1.44-1-3-2.24-3.84s-3.24-.76-4.89-.45a47.42,47.42,0,0,0-21,9.73c-1.88,1.52-3.7,3.29-4.46,5.57-1.46,4.41,1.39,8.91,3.09,13.23,4.3,11,1.15,23.33-2.76,34.44a8,8,0,0,1-1.8,3.31,6.23,6.23,0,0,1-4.11,1.46c-5.82.21-11.12-3.84-14.07-8.85s-4-10.87-5-16.59l-5-29.15c-7.9,2-16.24,5.24-20.41,12.23C108,660.92,114.21,675,110.8,687a10.83,10.83,0,0,1-1.86,3.92c-2.42,2.94-6.94,3.39-10.52,2.08-9.27-3.4-12.1-14.86-13.59-24.6s-3.92-19.69-4.52-29.47c-.41-6.67,2.37-13.46,3.71-20,4-19.66,6.08-39.63,7.62-59.61,1.46-19,4.58-35,8.85-53.61,7.05-30.57,15.88-64.17,7.47-95-6.91-25.36-18-49.73-27.74-74.33-3.16-8-11.07-19.91-10.8-28.61C69.63,300.83,163.89,229.51,185.51,223.94Z" transform="translate(0 -15.56)"/><path class="cls-8" d="M195.09,444.81c29.93-2.59,59.68-15.42,78.81-38.52l6.78,51.13c-32.82,18.45-71.17,25.1-108.83,25.63-3.68.06-7.35,0-11-.11a131,131,0,0,1-30.39-4.28,80,80,0,0,1-14-5.26,63.4,63.4,0,0,1-6.43-3.62c-1.66-1.07-4-2-4.56-4a10.24,10.24,0,0,1-.18-3.54q.22-3.26.44-6.51c.52-7.59.87-15.87,3.93-22.95.8-1.86,1.35-1.66,3.26-1.23a45.73,45.73,0,0,1,5.2,1.58c3.06,1.11,6,2.5,9.16,3.45C149.16,443.19,172.2,446.79,195.09,444.81Z" transform="translate(0 -15.56)"/><path class="cls-9" d="M63.16,357.43c10.13,18.95,30.36,38.08,43.16,51.36l35,36.24c9.25,9.58,21,21.47,34.45,23.65,6.2,1,20.83-10.49,21.65-17.07,2.27-18.22-41.77-53.18-68-106.87-10.83-22.18-45.75-47.28-60.59-40.25C64.41,306.58,46.75,326.75,63.16,357.43Z" transform="translate(0 -15.56)"/><path class="cls-9" d="M215.92,520c26.13,18.94,38.7,29.43,46.57,27.33a23.09,23.09,0,0,0,12.32-8.93c2.93-4,6.75-21.11,5.61-24.17-1.62-4.31-118.57-114-133.84-115.9-3-.39,4.39,22.26,2.73,25.34-2.42,4.51-7.71,6.66-11.86,9.18-1.89,1.15-12,1.88-12,1.88S164,482.42,215.92,520Z" transform="translate(0 -15.56)"/><path class="cls-10" d="M155.18,241.81c2.14,21.51,29.73,41.42,48.67,35.65a17.31,17.31,0,0,0,11.76-12c1.53-5.93,2.11-18.39,3.3-44.86.34-7.69-2.5-12.14-3.73-19.87-2-12.63-8.66-22-17.57-30.94a29.56,29.56,0,0,0-10-6.73,50.83,50.83,0,0,0-16.39-3.9c-3.87-.14-9.33-.26-12.07,3.36-1.56,2.08-1.39,4.05-.92,6.53C166.27,211.82,153.7,227,155.18,241.81Z" transform="translate(0 -15.56)"/><path class="cls-8" d="M235.61,213.64c-1.81-.92-25.23,14.46-34.63,14a117.61,117.61,0,0,0-32.48,3.22c-2,.4-10-9.91-11.14-11.4-6.32,6.11-13.84,10.83-21.13,15.74a391.48,391.48,0,0,0-50.6,40.61c-8.2,7.78-39,32.44-25.84,46.06,6.44,6.69,17.44.1,24.09-6.38-.21,6.12-.38,12.45,1.92,18.13s7.76,10.56,13.89,10.18c6.93-.44,11.68-6.94,15.39-12.8,3.14,6.47,6.45,13.17,12.09,17.65s14.34,6,20,1.48c6.09-4.88,8.52-15.93,16.31-15.37,8.9.64,10.92,16.74,19.82,16.06,8.54-.66,7.49-14.8,14.45-19.76,8.61-6.14,14.48,8.21,26,8.42a10.6,10.6,0,0,0,7.29-2.85,21.58,21.58,0,0,0,4.05-5.68c.8-1.88,0-5.48,2.3-6.41a3.86,3.86,0,0,1,2-.11c4.25.55,8.32,2.16,12.59,2.57a10.18,10.18,0,0,0,4.49-.38,9.94,9.94,0,0,0,4.56-4,19.91,19.91,0,0,0,3.36-12.44c-.13-1.88-.37-4.16,1.17-5.25,5.8-4.12,10.29,4.09,14.48,5.66,6,2.24,11.94-2.24,15.11-7.36,3.51-5.67,4.29-12.6,4.21-19.27-.11-8.5,0-17.19-3.8-24.86a134.78,134.78,0,0,0-15.89-24.35,30.58,30.58,0,0,0-6.9-6.82c-2.83-1.84-6.14-2.78-9.37-3.77C254,221.37,244.34,218.09,235.61,213.64Z" transform="translate(0 -15.56)"/><path class="cls-10" d="M221.54,207c1.94-12.64-1.53-23.63-7.3-34.82a29.5,29.5,0,0,0-7.48-9.46,50.78,50.78,0,0,0-14.42-8.71c-3.64-1.32-8.81-3.1-12.52-.48-2.12,1.5-2.56,3.43-2.87,5.94-3,24.11-9.5,38.07-15.2,48.23,6.32,21.15,25.66,39.39,46.93,46.88,2.6-6.61,5.91-15.53,10.35-27.51C221.71,219.88,220.36,214.78,221.54,207Z" transform="translate(0 -15.56)"/><path class="cls-11" d="M258.79,122.19a68.13,68.13,0,0,1,3.7,20.23A65.66,65.66,0,0,1,260.92,159c-1.31,5.78-5.63,9.73-7.51,15.27-1.21,3.58.05,7.74.07,11.5,0,9.24-2.35,17.62-5.22,26.28-2.4,7.22-4.95,14.65-9,21.19-2.06,3.32-4.67,7.6-8,9.79-3.61,2.38-9.82,1.17-13.54-.2a85,85,0,0,1-22.06-12.59c-3.16-2.43-6.25-5-9.33-7.51a75.24,75.24,0,0,1-8.91-8.3,45.81,45.81,0,0,1-4.18-5.35,32.24,32.24,0,0,1-5.63-16c-.09-2,.66-4.52-.74-6.16-1.7-2-4.85-1.16-6.55-3-.73-.77-1.17-3.08-1.54-4.17-.47-1.4-.38-7.59-2-8.07s-3.44-2.59-4.64-3.74c-2.31-2.19-4.65,3.91-5,.75-1.45-13.41-3.83-27.28-1-40.67,2.64-12.27,4.2-22.92,14-32,7.35-6.86,16.9-11.11,26.78-13a67.58,67.58,0,0,1,44.7,6.95,55.29,55.29,0,0,1,21.92,20.78A66.51,66.51,0,0,1,258.79,122.19Z" transform="translate(0 -15.56)"/><path class="cls-12" d="M272.58,136.59c-1.74-27.71-31.25-53.53-57.9-59.48-28-6.25-41.88,10-41.9,10-1.06,1.25-7.42,2.11-9.14,3a45.32,45.32,0,0,0-16.15,14.54,69.74,69.74,0,0,0-11.76,46.55c2.07,18.84,13.63,39.86,28.89,51.15,1.06-2.54,2.44-5.32,3.43-8,1.24-3.28.39-6.4,4.33-7.86,1.67-.62,3.47-.78,5.17-1.3a13,13,0,0,0,6.9-5c2-2.83,2.94-6.59,5.94-8.29,2.1-1.19,4.64-1.19,6.84-2.22a28.6,28.6,0,0,0,7.11-4.7c5-4.55,7-10.48,11-15.64A48.75,48.75,0,0,0,223.78,134c.6-1.86,1.51-6,3.28-8.48a3.92,3.92,0,0,1,3.17-1.94c8.48.15,14.67,1.07,20.27,8.23,3.79,4.84,7.06,9.75,9,15.69a22.16,22.16,0,0,1,.63,12.76c-.82,2.86-2.41,5.46-3.15,8.35,2.9.24,5.32-2.12,7.06-4.46C270.68,155.2,273.16,145.79,272.58,136.59Z" transform="translate(0 -15.56)"/><path class="cls-11" d="M160,163.24c-9.86-1.25-13.09,10.86-6.84,20.73,1.82,2.88,5.18,5.54,7.65,7.9,16.86,16.13,22.26.09,16.93-5.38C165.35,173.79,172.42,164.82,160,163.24Z" transform="translate(0 -15.56)"/><path class="cls-10" d="M164.42,187.77c-1.08-1.12-12-8.46-4-12.55,2.22-1.13,4.48.88,4.68,3.16.1,1.18-.33,2.36-.22,3.54a5.23,5.23,0,0,0,.64,2c.92,1.69,4.26,3.47,3.45,5.82C168.2,191.81,165,188.4,164.42,187.77Z" transform="translate(0 -15.56)"/><path class="cls-6" d="M150,973.6a46.31,46.31,0,0,0,7,13c7.59,10,16.1,19.27,23.54,29.4,5.66,7.71,13.46,17.8,13.52,27.88.07,11.27-11.23,14.82-20.7,16-46.92,5.88-45.9-18.13-59.35-34.74-5.72-7.06-14-12.63-16.43-21.4-1.87-6.91.82-12.63,3.15-19,3.68-10,4.43-36.94-5.39-60.42C91,914,88.69,903.62,85.82,892.76a2.15,2.15,0,0,1,2.05-3.31c9.87-1.36,19.81-2.73,29.78-2.38,13.75.49,27.51,4.23,41.1,2.11a107.65,107.65,0,0,0-7.93,30.14C147.63,946.1,144.94,958.92,150,973.6Z" transform="translate(0 -15.56)"/><path class="cls-6" d="M368.82,962.6c.91,9-3.2,17.09-12.09,21.1-13.57,6.11-40.8-6.14-53.75-15.73-18.57-13.75-10.07-15.23-27.52-18.07-26.06-4.22-34-25.75-22.9-51,2.25-5.12.86-10.49-.15-15.78-3.16-16.37-8.69-31.9-11.43-48.37,22.12,3.82,45.09-2.53,67.19,1.44-.39,10.68-4.85,19.64-6.85,29.83q-2.85,14.65-5,29.42c-2.79,18.81,27.31,31.23,41.19,37C352.19,938.54,367,944.82,368.82,962.6Z" transform="translate(0 -15.56)"/><path class="cls-6" d="M133.2,96.12c-9.46,10.11-13.81,22.09-17,35.26-1.44,5.88-1.34,11.94-2.49,18-1.36,7.16-3.55,14.13-5.44,21.16-3.29,12.23-5.68,25.45-1.4,37.38,2,5.7,6.16,11.26,12.1,12.47a23.59,23.59,0,0,0,7.31,0c6.22-.69,12.73-1.48,17.87-5,3-2.11,8.33-4.3,7.68-7.93-4.93-27.46,31.28-48.49,38.84-48.21,13.14-7.5,31-12.76,46.69-14.37,7-.71,14,.38,20.92-.63s14.15-4.93,15.93-11.67c1.28-4.82-.52-9.91-2.71-14.41C257.77,89.83,224.72,71.4,193.81,71c-11.73-.16-22.87.78-33.39,6.2-7.08,3.65-14.08,7.54-20.28,12.53A67.88,67.88,0,0,0,133.2,96.12Z" transform="translate(0 -15.56)"/><path class="cls-8" d="M232.12,145.12c10.54-1.14,30,1.56,35.32,13.15,5.19-2.26,6.94-10.24,8-15.13C278.39,130,264.21,123,251.1,119.82c-33.19-8-109.57,31.59-97.95,72.8.46,1.64,11.46,9.73,11.47,9.74-.61-.45,1.3-6,1.47-6.59a53.83,53.83,0,0,1,7.6-15.4C188.42,159.57,219.38,146.49,232.12,145.12Z" transform="translate(0 -15.56)"/><path class="cls-5" d="M163.56,36.27C153.22,24.38,137,19.1,121.2,18.17s-31.42,1.92-47.1,3.58c-10.81,1.14-23,1.26-30.95-6.19,4.39,2.67,6.93,7.47,10.31,11.33C63,37.8,78.64,40.64,93,42.78s30,4.87,39.66,15.66c3.62,4,6.13,8.89,9.12,13.4s6.69,8.85,11.7,10.91c12.13,5,16.83-6.69,18.62-16.37C174,55.84,170.57,44.32,163.56,36.27Z" transform="translate(0 -15.56)"/><path class="cls-7" d="M280,447.62c.4,13.57-2.29,68.19,1.37,77.29,2,5,23.12,4.75,28.42,2.12,15.36-7.61,10.54-28.83,13.11-46.94.57-4,10-44.77,10.51-61.11.37-12.28-25.37-39.46-31.5-40.72C277.57,373.26,279.2,420.92,280,447.62Z" transform="translate(0 -15.56)"/><path class="cls-10" d="M309.16,510c3.88,1.8,8.28,5.25,9.56,9.21,1.51,4.66.89,12.22.7,17.18-.21,5.49-1.53,11.16-5.11,15.31s-9.55,5.39-14.8,5.91A40.41,40.41,0,0,1,283.27,556a23.84,23.84,0,0,1-8.48-4.47,13.11,13.11,0,0,1-4.62-8.22c-.4-3.59,1.06-7,2.84-10a17.56,17.56,0,0,1,2.92-4.1c1.4-1.27,3.12-2.15,4.44-3.53,4.71-4.91,4.83-12,11.14-15.24a20.43,20.43,0,0,1,16.16-.94C308.15,509.59,308.65,509.8,309.16,510Z" transform="translate(0 -15.56)"/><path class="cls-10" d="M302.72,551.67a3,3,0,0,1-.94.41c-1.81.46-3.61-.72-5-2a9.49,9.49,0,0,0-2.22-1.79,2.72,2.72,0,0,0-3.81,2.34,7,7,0,0,0,.88,3.61l.05.1a32,32,0,0,0,6.44,9.15,26.54,26.54,0,0,0,2.09,1.87,4.56,4.56,0,0,0,1.92,1.19,7.54,7.54,0,0,0,5.05-1.27,15.84,15.84,0,0,0,2.52-2.32c1.29-1.34,2.52-2.72,3.71-4.14a62.55,62.55,0,0,0,5.29-7.07,22.61,22.61,0,0,0,3.1-6.66,13.63,13.63,0,0,0,.22-3.72,11.18,11.18,0,0,0-.88-4c-1.88-4.27-7.34-6.23-11.16-3.13a12.78,12.78,0,0,0-3.92,7.06C305.35,544.38,305.75,549.77,302.72,551.67Z" transform="translate(0 -15.56)"/><polygon class="cls-13" points="448.22 1003.93 455.07 1001.72 299.35 517.75 292.51 519.94 448.22 1003.93"/><path class="cls-13" d="M499.76,1050.08c13-5.46,7-26.53-10.06-27.56s-31.65.9-32.9-2.51-5.88-18.67-5.88-18.67l-7,3.32s-4.24,30.24,4.17,38.56S484.75,1056.39,499.76,1050.08Z" transform="translate(0 -15.56)"/><path class="cls-14" d="M341.91,694.24a9.1,9.1,0,0,0,5.44,0,9,9,0,0,0,5.8-11.31L304.48,531.66a9,9,0,0,0-17.11,5.5L336,688.41A9,9,0,0,0,341.91,694.24Z" transform="translate(0 -15.56)"/><path class="cls-10" d="M263.36,528.61c-1,4.18-.94,9.76,1.39,13.2,2.75,4.06,9.1,8.22,13.13,11.12,4.46,3.2,9.74,5.64,15.22,5.37s10.11-4.22,13.75-8a40.39,40.39,0,0,0,8.66-13.85,23.71,23.71,0,0,0,1.68-9.43,13.11,13.11,0,0,0-3.64-8.69c-2.59-2.53-6.19-3.49-9.67-3.94a17.38,17.38,0,0,0-5-.22c-1.87.32-3.62,1.14-5.52,1.33-6.77.7-12.45-3.58-18.86-.58a20.46,20.46,0,0,0-10.68,12.18C263.63,527.54,263.49,528.07,263.36,528.61Z" transform="translate(0 -15.56)"/><path class="cls-10" d="M305.34,548.36a3.24,3.24,0,0,0,.91-.5c1.47-1.14,1.65-3.29,1.47-5.14a9.1,9.1,0,0,1-.05-2.85,2.72,2.72,0,0,1,4.18-1.58,7,7,0,0,1,2.31,2.92l0,.1A32.22,32.22,0,0,1,317.47,552c.11.93.17,1.86.19,2.8a4.45,4.45,0,0,1-.24,2.24,7.57,7.57,0,0,1-4.1,3.21,16.11,16.11,0,0,1-3.39.56c-1.84.19-3.69.31-5.54.39a65.06,65.06,0,0,1-8.83-.18,22.89,22.89,0,0,1-7.16-1.64,14,14,0,0,1-3.07-2.13,10.9,10.9,0,0,1-2.6-3.13c-2.22-4.11-.41-9.62,4.39-10.73a12.81,12.81,0,0,1,8,1.24C298,546,302,549.57,305.34,548.36Z" transform="translate(0 -15.56)"/><path class="cls-15" d="M279.19,528.33c1.55,1.22,1.9,3.57,3.61,4.59,1.87,1.12,4.48.29,6.38-.38a16.52,16.52,0,0,1,5.47-1.39,5.71,5.71,0,0,1,4,1.75c1.27,1.14,2.21,1.93,2.66,3.74.37,1.47.53,3.07,1.44,4.29a12.63,12.63,0,0,0,3.45,2.52,5.35,5.35,0,0,1,2.51,4.25c.08,1.54.71,3,.85,4.53a13.79,13.79,0,0,1-5.09,12l-.35.27a15.78,15.78,0,0,1-12.55,2.78c-1.92-.41-3.92-1.32-4.76-3.09-.38-.82-.49-1.76-.91-2.56-1.06-2-3.67-2.53-5.93-2.67s-4.81-.26-6.35-1.93c-2.25-2.44-1.51-6.68-3-9.6-1.67-3.32-3.44-5.86-2.19-9.76,1-3.13,3.28-5.66,5.48-8.09,1.31-1.45,2.8-2.75,4.84-1.54A2.65,2.65,0,0,1,279.19,528.33Z" transform="translate(0 -15.56)"/><path class="cls-15" d="M301.39,515.45c0,2,1.65,3.69,1.4,5.66-.27,2.17-2.52,3.72-4.22,4.8a16.88,16.88,0,0,0-4.46,3.47,5.7,5.7,0,0,0-1.09,4.25c.12,1.7.17,2.93,1.31,4.4.94,1.19,2.11,2.3,2.5,3.77a12.54,12.54,0,0,1-.12,4.27,5.28,5.28,0,0,0,1.8,4.59c1.17,1,1.9,2.38,3.06,3.46a13.79,13.79,0,0,0,12.61,3.37l.44-.11a15.79,15.79,0,0,0,9.89-8.19c.86-1.76,1.37-3.9.49-5.65-.41-.81-1.09-1.47-1.46-2.3-.93-2.06.26-4.44,1.54-6.32s2.75-3.95,2.38-6.19c-.54-3.27-4.35-5.29-5.74-8.25-1.59-3.35-2.51-6.32-6.36-7.72-3.09-1.13-6.48-.9-9.75-.65-1.95.14-3.89.52-4.19,2.87A3.71,3.71,0,0,0,301.39,515.45Z" transform="translate(0 -15.56)"/><path class="cls-16" d="M757.2,974a5.39,5.39,0,0,1-5.3-5.67c.22-3.13,21.16-314-8.27-477.34a5.3,5.3,0,1,1,10.44-1.89c29.68,164.6,8.65,476.82,8.43,480A5.33,5.33,0,0,1,757.2,974Z" transform="translate(0 -15.56)"/><path class="cls-17" d="M767.65,973.73c0,9.69-24.73,17.54-55.22,17.54s-55.17-7.85-55.17-17.54,24.73-17.5,55.17-17.5S767.65,964.09,767.65,973.73Z" transform="translate(0 -15.56)"/><path class="cls-18" d="M757.2,979.58c0,6-20.05,10.92-44.77,10.92s-44.73-4.91-44.73-10.92,20-10.87,44.73-10.87S757.2,973.63,757.2,979.58Z" transform="translate(0 -15.56)"/><path class="cls-19" d="M757.06,560.42l-7.28-59.35s34.05-9,68.1,5.34c29.4,12.26,61.83,21.93,103.06,17.16C907.48,537.45,861.15,573,815.76,557.7,781,546,757.06,560.42,757.06,560.42Z" transform="translate(0 -15.56)"/></svg>