<svg width="921" height="1076" viewBox="0 0 921 1076" fill="none" xmlns="http://www.w3.org/2000/svg">
<g id="golfer" clip-path="url(#clip0_2_2)">
<g id="shadow">
<path id="Vector" d="M393.23 911.51C414.42 937.83 403.23 998.82 224.83 1054.92C117.31 1088.73 20.83 1079.56 4.49 1035.84C-22.76 963.13 78.56 957.75 185.91 923.44C293.26 889.13 337.93 842.86 393.23 911.51Z" fill="#8BC246"/>
<path id="Vector_2" d="M430.3 1067.44C502.644 1067.44 561.29 1049.16 561.29 1026.61C561.29 1004.06 502.644 985.78 430.3 985.78C357.956 985.78 299.31 1004.06 299.31 1026.61C299.31 1049.16 357.956 1067.44 430.3 1067.44Z" fill="#8BC246"/>
</g>
<g id="ball">
<path id="Vector_3" d="M531 1012.86C531 1017.66 529.578 1022.34 526.913 1026.33C524.249 1030.32 520.461 1033.43 516.03 1035.26C511.599 1037.1 506.723 1037.58 502.019 1036.64C497.315 1035.71 492.994 1033.4 489.603 1030.01C486.211 1026.62 483.902 1022.3 482.966 1017.59C482.03 1012.89 482.51 1008.01 484.346 1003.58C486.181 999.149 489.29 995.361 493.277 992.697C497.265 990.032 501.954 988.61 506.75 988.61C513.181 988.613 519.347 991.168 523.894 995.716C528.442 1000.26 530.997 1006.43 531 1012.86Z" fill="#FFFFE2"/>
<path id="Vector_4" d="M494.79 1024.3C498.755 1024.3 502.66 1023.34 506.163 1021.48C509.666 1019.62 512.66 1016.93 514.881 1013.65C517.103 1010.37 518.484 1006.59 518.904 1002.65C519.324 998.703 518.77 994.718 517.29 991.04C520.845 992.746 523.931 995.294 526.279 998.462C528.626 1001.63 530.166 1005.32 530.763 1009.22C531.361 1013.12 530.998 1017.1 529.707 1020.83C528.416 1024.56 526.235 1027.91 523.354 1030.6C520.473 1033.3 516.978 1035.25 513.173 1036.28C509.368 1037.32 505.368 1037.41 501.52 1036.55C497.671 1035.69 494.09 1033.91 491.088 1031.35C488.085 1028.79 485.752 1025.54 484.29 1021.88C487.562 1023.47 491.152 1024.3 494.79 1024.3Z" fill="#ECEAD3"/>
</g>
<g id="tee">
<path id="Vector_5" d="M521.34 1039.58C521.34 1041.49 520.25 1043.04 518.93 1043.04H494.7C493.36 1043.04 492.29 1041.49 492.29 1039.58C492.29 1037.67 493.36 1036.12 494.7 1036.12H518.93C520.25 1036.12 521.34 1037.67 521.34 1039.58Z" fill="#133B56"/>
<path id="Vector_6" d="M510.89 1040.87H502.72V1050.29H510.89V1040.87Z" fill="#133B56"/>
</g>
<path id="left-bicept" d="M295.91 235.54C313.68 258.65 324.15 326.6 326.28 334.81C328.65 343.91 331.07 353 333.42 362.1C335.77 371.2 330.22 390.39 323.92 397.4C318.57 403.34 310.59 404.13 303.14 401.97C294.01 399.32 289.66 393.72 284.85 386.08C275 370.33 269.66 352.44 264.51 334.82L245.82 271.07C242.75 260.6 239.65 249.93 239.95 239.07C240.03 236.07 240.05 232.18 241.27 229.38C242.27 227.07 244.45 225.63 246.58 224.14C251.167 220.852 256.439 218.644 262 217.68C277.25 215.27 287.56 224.67 295.91 235.54Z" fill="#A82128"/>
<g id="torso-and-legs">
<path id="Vector_7" d="M257.24 886.15C253.97 880.65 254.4 873.97 254.38 867.67C254.3 848.4 249.3 829.6 247.58 810.52C245.66 789.3 242.22 774.02 242.31 755.43C242.42 734.63 257.15 696.52 257.15 696.52C257.15 696.52 325.96 682.88 327.55 691.37C332.73 719.16 319.09 752.01 315.5 768.59C295.5 861.06 298.61 880.66 291.71 888.4C284.44 896.56 262.75 895.44 257.24 886.15Z" fill="#1D3F7A"/>
<path id="Vector_8" d="M177.11 721.86C179.95 722.53 183.21 723.58 184.55 726.4C188.23 734.09 178.75 749.4 176.14 756.24C166.529 781.505 159.324 807.621 154.62 834.24C135.7 939.34 154.39 968.97 135.33 974.78C127.53 977.16 112.46 977.03 107.86 965.96C102.48 953.02 108.3 941.44 98.16 895.39C91.56 865.44 77.42 830.44 93 778.63C101.1 751.77 109.71 744.81 112.3 732.63C113.3 727.88 114.76 722.03 117.82 718.15C124.24 710.01 167 719.44 177.11 721.86Z" fill="#FCB645"/>
<path id="Vector_9" d="M294.62 544.55C305.53 572.09 314 600.44 318.09 629.44C318.97 635.73 330.78 691.78 328.47 707.89C328.47 707.89 309.47 720.61 299.32 722.02C285.62 723.91 271.96 720.11 264.2 709.24C256.92 699 224.6 627.44 195 568.31C183 544.38 178.94 522.64 179.27 507.56C179.49 497.64 178.76 484.68 187.42 477.5C191.57 474.07 197.24 472.89 202.64 471.83C217.64 468.89 252.34 445.22 253.19 446.83C266.28 471.81 284.19 518.19 294.62 544.55Z" fill="#1D3F7A"/>
<path id="Vector_10" d="M178.86 462.55C188.93 463.03 199.58 466.18 209.53 465.88C218.73 465.6 222.87 467.3 223.99 477.69C230.46 537.69 217.75 538.09 204.69 570.46C196 591.95 195 662.02 193.46 673.77C192.3 682.58 188.95 720.77 184.41 733.77C180.46 745.13 169.8 762.31 159.62 768.77C149.44 775.23 134.79 775.66 126.1 767.32C113.6 755.32 94.68 579.71 96.66 547.09C99.38 502.39 115.45 483.01 116.14 468.56C116.23 466.68 150.86 461.24 178.86 462.55Z" fill="#FCB645"/>
<path id="Vector_11" d="M185.51 208.38C189.743 207.293 193.997 206.31 198.27 205.43C205.1 204.02 212.06 202.86 219 203.36C238.41 204.75 255 219.18 264.06 236.36C273.12 253.54 276 273.2 278.2 292.44C281.46 320.64 279.2 347.1 275.04 375.04C270.42 405.7 273.52 436.35 280.57 466.38C286.67 492.38 291.88 519.44 303.57 543.7C306.73 550.24 310.03 556.62 312.97 563.23C315.54 569.02 320.08 573.42 323.38 578.83C330.65 590.694 334.296 604.423 333.87 618.33C333.78 621 333.34 624.02 331.15 625.56C327.88 627.89 323.43 625.3 320.42 622.64C316.106 618.804 312.094 614.642 308.42 610.19C306.3 607.62 303.92 604.74 300.6 604.37C296.81 603.96 293.44 607.21 292.22 610.81C291 614.41 291.36 618.33 291.41 622.13C291.502 630.799 289.878 639.401 286.63 647.44C286.093 649.168 285.048 650.695 283.63 651.82C281.29 653.33 278.18 652.52 275.63 651.36C271.424 649.395 267.66 646.596 264.566 643.135C261.472 639.673 259.113 635.62 257.63 631.22C255.25 624.02 255.25 615.95 251.24 609.52C250.784 608.644 250.053 607.942 249.16 607.52C247.6 606.96 245.96 608.03 244.65 609.06C242.362 610.722 240.31 612.687 238.55 614.9C229.55 627.18 240.13 645.58 233.65 659.32C233.02 660.923 231.859 662.261 230.36 663.11C228.973 663.63 227.481 663.808 226.01 663.63C220.53 663.41 214.56 663 210.52 659.3C206.48 655.6 205.58 649.93 204.66 644.65C202.819 634.125 200.3 623.73 197.12 613.53C196.67 612.09 196.12 610.53 194.88 609.69C193.64 608.85 191.64 608.93 189.99 609.24C182.294 610.699 175.079 614.042 168.99 618.97C167.11 620.49 165.29 622.26 164.53 624.54C163.07 628.95 165.92 633.45 167.62 637.77C171.92 648.77 168.77 661.1 164.86 672.21C164.532 673.441 163.915 674.576 163.06 675.52C161.911 676.486 160.451 677.004 158.95 676.98C153.13 677.19 147.83 673.14 144.88 668.13C141.93 663.12 140.88 657.26 139.88 651.54L134.88 622.39C126.98 624.39 118.64 627.63 114.47 634.62C108 645.36 114.21 659.44 110.8 671.44C110.451 672.859 109.818 674.192 108.94 675.36C106.52 678.3 102 678.75 98.42 677.44C89.15 674.04 86.32 662.58 84.83 652.84C83.34 643.1 80.91 633.15 80.31 623.37C79.9 616.7 82.68 609.91 84.02 603.37C88.02 583.71 90.1 563.74 91.64 543.76C93.1 524.76 96.22 508.76 100.49 490.15C107.54 459.58 116.37 425.98 107.96 395.15C101.05 369.79 89.96 345.42 80.22 320.82C77.06 312.82 69.15 300.91 69.42 292.21C69.63 285.27 163.89 213.95 185.51 208.38Z" fill="#DC373F"/>
<path id="Vector_12" d="M195.09 429.25C225.02 426.66 254.77 413.83 273.9 390.73L280.68 441.86C247.86 460.31 209.51 466.96 171.85 467.49C168.17 467.55 164.5 467.49 160.85 467.38C150.587 467.149 140.387 465.712 130.46 463.1C125.639 461.788 120.952 460.027 116.46 457.84C114.248 456.759 112.101 455.55 110.03 454.22C108.37 453.15 106.03 452.22 105.47 450.22C105.205 449.059 105.144 447.861 105.29 446.68C105.437 444.507 105.583 442.337 105.73 440.17C106.25 432.58 106.6 424.3 109.66 417.22C110.46 415.36 111.01 415.56 112.92 415.99C114.683 416.413 116.42 416.941 118.12 417.57C121.18 418.68 124.12 420.07 127.28 421.02C149.16 427.63 172.2 431.23 195.09 429.25Z" fill="#1D3F7A"/>
<path id="Vector_13" d="M150 958.04C151.623 962.72 153.986 967.109 157 971.04C164.59 981.04 173.1 990.31 180.54 1000.44C186.2 1008.15 194 1018.24 194.06 1028.32C194.13 1039.59 182.83 1043.14 173.36 1044.32C126.44 1050.2 127.46 1026.19 114.01 1009.58C108.29 1002.52 100.01 996.95 97.58 988.18C95.71 981.27 98.4 975.55 100.73 969.18C104.41 959.18 105.16 932.24 95.34 908.76C91 898.44 88.69 888.06 85.82 877.2C85.5968 876.858 85.4758 876.459 85.471 876.051C85.4662 875.642 85.5779 875.241 85.793 874.893C86.0081 874.546 86.3177 874.267 86.6855 874.09C87.0534 873.912 87.4642 873.843 87.87 873.89C97.74 872.53 107.68 871.16 117.65 871.51C131.4 872 145.16 875.74 158.75 873.62C154.659 883.229 151.987 893.382 150.82 903.76C147.63 930.54 144.94 943.36 150 958.04Z" fill="#DC373F"/>
<path id="Vector_14" d="M368.82 947.04C369.73 956.04 365.62 964.13 356.73 968.14C343.16 974.25 315.93 962 302.98 952.41C284.41 938.66 292.91 937.18 275.46 934.34C249.4 930.12 241.46 908.59 252.56 883.34C254.81 878.22 253.42 872.85 252.41 867.56C249.25 851.19 243.72 835.66 240.98 819.19C263.1 823.01 286.07 816.66 308.17 820.63C307.78 831.31 303.32 840.27 301.32 850.46C299.42 860.227 297.753 870.033 296.32 879.88C293.53 898.69 323.63 911.11 337.51 916.88C352.19 922.98 367 929.26 368.82 947.04Z" fill="#DC373F"/>
</g>
<g id="arms-and-club">
<g id="club">
<path id="Vector_15" d="M448.22 1003.93L455.07 1001.72L299.35 517.75L292.51 519.94L448.22 1003.93Z" fill="#6B6D84"/>
<path id="Vector_16" d="M499.76 1034.52C512.76 1029.06 506.76 1007.99 489.7 1006.96C472.64 1005.93 458.05 1007.86 456.8 1004.45C455.55 1001.04 450.92 985.78 450.92 985.78L443.92 989.1C443.92 989.1 439.68 1019.34 448.09 1027.66C456.5 1035.98 484.75 1040.83 499.76 1034.52Z" fill="#6B6D84"/>
<path id="Vector_17" d="M341.91 678.68C343.681 679.235 345.579 679.235 347.35 678.68C349.617 677.946 351.501 676.344 352.588 674.224C353.675 672.104 353.877 669.639 353.15 667.37L304.48 516.1C303.656 513.952 302.04 512.202 299.965 511.208C297.89 510.215 295.514 510.053 293.324 510.757C291.133 511.461 289.296 512.977 288.189 514.994C287.082 517.01 286.789 519.374 287.37 521.6L336 672.85C336.445 674.225 337.214 675.472 338.243 676.487C339.271 677.502 340.529 678.254 341.91 678.68V678.68Z" fill="#384350"/>
</g>
<g id="right-arm">
<path id="Vector_18" d="M63.16 341.87C73.29 360.82 93.52 379.95 106.32 393.23L141.32 429.47C150.57 439.05 162.32 450.94 175.77 453.12C181.97 454.12 196.6 442.63 197.42 436.05C199.69 417.83 155.65 382.87 129.42 329.18C118.59 307 83.67 281.9 68.83 288.93C64.41 291.02 46.75 311.19 63.16 341.87Z" fill="#FCB645"/>
<path id="Vector_19" d="M227.889 506.464C254.547 524.654 267.41 534.783 275.217 532.46C280.17 530.819 284.421 527.55 287.278 523.184C290.093 519.102 293.426 501.89 292.199 498.864C290.458 494.602 170.439 388.278 155.122 386.812C152.112 386.508 160.142 408.939 158.57 412.064C156.279 416.641 151.052 418.941 146.976 421.578C145.119 422.781 135.034 423.798 135.034 423.798C135.034 423.798 174.923 470.373 227.889 506.464Z" fill="#FCB645"/>
<path id="Vector_20" d="M263.36 513.05C262.36 517.23 262.42 522.81 264.75 526.25C267.5 530.31 273.85 534.47 277.88 537.37C282.34 540.57 287.62 543.01 293.1 542.74C298.58 542.47 303.21 538.52 306.85 534.74C310.65 530.761 313.597 526.048 315.51 520.89C316.706 517.894 317.277 514.685 317.19 511.46C317.095 508.212 315.798 505.116 313.55 502.77C310.96 500.24 307.36 499.28 303.88 498.83C302.233 498.516 300.549 498.442 298.88 498.61C297.01 498.93 295.26 499.75 293.36 499.94C286.59 500.64 280.91 496.36 274.5 499.36C271.984 500.556 269.74 502.254 267.903 504.348C266.067 506.442 264.677 508.89 263.82 511.54C263.63 511.98 263.49 512.51 263.36 513.05Z" fill="#F3A984"/>
<path id="Vector_21" d="M305.34 532.8C305.668 532.683 305.976 532.514 306.25 532.3C307.72 531.16 307.9 529.01 307.72 527.16C307.554 526.218 307.537 525.257 307.67 524.31C307.777 523.884 307.985 523.49 308.277 523.162C308.569 522.834 308.936 522.582 309.347 522.427C309.757 522.271 310.2 522.218 310.636 522.271C311.072 522.324 311.488 522.481 311.85 522.73C312.869 523.477 313.668 524.486 314.16 525.65V525.75C315.878 529.093 316.999 532.711 317.47 536.44C317.58 537.37 317.64 538.3 317.66 539.24C317.773 539.995 317.691 540.766 317.42 541.48C316.476 543.001 315.023 544.138 313.32 544.69C312.213 544.997 311.077 545.185 309.93 545.25C308.09 545.44 306.24 545.56 304.39 545.64C301.446 545.78 298.496 545.72 295.56 545.46C293.101 545.302 290.683 544.749 288.4 543.82C287.286 543.25 286.254 542.534 285.33 541.69C284.275 540.819 283.393 539.757 282.73 538.56C280.51 534.45 282.32 528.94 287.12 527.83C289.851 527.368 292.657 527.803 295.12 529.07C298 530.44 302 534.01 305.34 532.8Z" fill="#F3A984"/>
<path id="Vector_22" d="M279.19 512.77C280.74 513.99 281.09 516.34 282.8 517.36C284.67 518.48 287.28 517.65 289.18 516.98C290.91 516.206 292.76 515.736 294.65 515.59C296.162 515.62 297.601 516.25 298.65 517.34C299.92 518.48 300.86 519.27 301.31 521.08C301.68 522.55 301.84 524.15 302.75 525.37C303.749 526.4 304.915 527.252 306.2 527.89C306.929 528.345 307.537 528.968 307.974 529.708C308.411 530.448 308.664 531.282 308.71 532.14C308.79 533.68 309.42 535.14 309.56 536.67C309.767 538.935 309.41 541.216 308.522 543.309C307.634 545.403 306.242 547.245 304.47 548.67L304.12 548.94C302.34 550.258 300.303 551.187 298.141 551.666C295.979 552.145 293.74 552.163 291.57 551.72C289.65 551.31 287.65 550.4 286.81 548.63C286.43 547.81 286.32 546.87 285.9 546.07C284.84 544.07 282.23 543.54 279.97 543.4C277.71 543.26 275.16 543.14 273.62 541.47C271.37 539.03 272.11 534.79 270.62 531.87C268.95 528.55 267.18 526.01 268.43 522.11C269.43 518.98 271.71 516.45 273.91 514.02C275.22 512.57 276.71 511.27 278.75 512.48C278.906 512.562 279.053 512.659 279.19 512.77V512.77Z" fill="#FFBFA2"/>
</g>
<g id="left-arm">
<path id="Vector_23" d="M280 432.06C280.4 445.63 277.71 500.25 281.37 509.35C283.37 514.35 304.49 514.1 309.79 511.47C325.15 503.86 320.33 482.64 322.9 464.53C323.47 460.53 332.9 419.76 333.41 403.42C333.78 391.14 308.04 363.96 301.91 362.7C277.57 357.7 279.2 405.36 280 432.06Z" fill="#A82128"/>
<path id="Vector_24" d="M309.16 494.44C313.04 496.24 317.44 499.69 318.72 503.65C320.23 508.31 319.61 515.87 319.42 520.83C319.21 526.32 317.89 531.99 314.31 536.14C310.73 540.29 304.76 541.53 299.51 542.05C294.044 542.623 288.518 542.076 283.27 540.44C280.17 539.54 277.285 538.019 274.79 535.97C272.284 533.898 270.637 530.968 270.17 527.75C269.77 524.16 271.23 520.75 273.01 517.75C273.781 516.25 274.765 514.869 275.93 513.65C277.33 512.38 279.05 511.5 280.37 510.12C285.08 505.21 285.2 498.12 291.51 494.88C293.998 493.631 296.714 492.903 299.493 492.741C302.272 492.58 305.054 492.987 307.67 493.94C308.15 494.03 308.65 494.24 309.16 494.44Z" fill="#F3A984"/>
<path id="Vector_25" d="M302.72 536.11C302.433 536.3 302.115 536.438 301.78 536.52C299.97 536.98 298.17 535.8 296.78 534.52C296.134 533.815 295.386 533.211 294.56 532.73C294.158 532.553 293.718 532.477 293.28 532.507C292.842 532.537 292.417 532.672 292.042 532.902C291.668 533.132 291.355 533.45 291.13 533.827C290.905 534.205 290.774 534.631 290.75 535.07C290.713 536.331 291.017 537.578 291.63 538.68L291.68 538.78C293.273 542.185 295.453 545.282 298.12 547.93C298.783 548.59 299.481 549.214 300.21 549.8C300.74 550.351 301.4 550.761 302.13 550.99C303.911 551.18 305.701 550.73 307.18 549.72C308.101 549.04 308.946 548.262 309.7 547.4C310.99 546.06 312.22 544.68 313.41 543.26C315.338 541.031 317.105 538.668 318.7 536.19C320.089 534.154 321.137 531.904 321.8 529.53C322.043 528.306 322.117 527.054 322.02 525.81C321.975 524.434 321.677 523.078 321.14 521.81C319.26 517.54 313.8 515.58 309.98 518.68C307.945 520.548 306.569 523.025 306.06 525.74C305.35 528.82 305.75 534.21 302.72 536.11Z" fill="#F3A984"/>
<path id="Vector_26" d="M301.39 499.89C301.39 501.89 303.04 503.58 302.79 505.55C302.52 507.72 300.27 509.27 298.57 510.35C296.899 511.248 295.391 512.421 294.11 513.82C293.657 514.421 293.327 515.106 293.14 515.836C292.953 516.565 292.912 517.325 293.02 518.07C293.14 519.77 293.19 521 294.33 522.47C295.27 523.66 296.44 524.77 296.83 526.24C297.035 527.66 296.994 529.104 296.71 530.51C296.614 531.364 296.728 532.228 297.041 533.028C297.355 533.828 297.859 534.539 298.51 535.1C299.68 536.1 300.41 537.48 301.57 538.56C303.23 540.119 305.251 541.243 307.451 541.831C309.651 542.419 311.963 542.453 314.18 541.93L314.62 541.82C316.75 541.224 318.731 540.187 320.435 538.776C322.139 537.365 323.527 535.612 324.51 533.63C325.37 531.87 325.88 529.73 325 527.98C324.59 527.17 323.91 526.51 323.54 525.68C322.61 523.62 323.8 521.24 325.08 519.36C326.36 517.48 327.83 515.41 327.46 513.17C326.92 509.9 323.11 507.88 321.72 504.92C320.13 501.57 319.21 498.6 315.36 497.2C312.27 496.07 308.88 496.3 305.61 496.55C303.66 496.69 301.72 497.07 301.42 499.42C301.4 499.576 301.39 499.733 301.39 499.89V499.89Z" fill="#FFBFA2"/>
</g>
</g>
<path id="neck-base" d="M155.18 226.25C157.32 247.76 184.91 267.67 203.85 261.9C206.668 261.063 209.226 259.522 211.284 257.422C213.341 255.323 214.83 252.734 215.61 249.9C217.14 243.97 217.72 231.51 218.91 205.04C219.25 197.35 216.41 192.9 215.18 185.17C213.18 172.54 206.52 163.17 197.61 154.23C194.774 151.324 191.37 149.033 187.61 147.5C182.402 145.297 176.862 143.979 171.22 143.6C167.35 143.46 161.89 143.34 159.15 146.96C157.59 149.04 157.76 151.01 158.23 153.49C166.27 196.26 153.7 211.44 155.18 226.25Z" fill="#F3A984"/>
<path id="shawl" d="M235.61 198.08C233.8 197.16 210.38 212.54 200.98 212.08C190.056 211.638 179.124 212.722 168.5 215.3C166.5 215.7 158.5 205.39 157.36 203.9C151.04 210.01 143.52 214.73 136.23 219.64C118.269 231.753 101.344 245.337 85.63 260.25C77.43 268.03 46.63 292.69 59.79 306.31C66.23 313 77.23 306.41 83.88 299.93C83.67 306.05 83.5 312.38 85.8 318.06C88.1 323.74 93.56 328.62 99.69 328.24C106.62 327.8 111.37 321.3 115.08 315.44C118.22 321.91 121.53 328.61 127.17 333.09C132.81 337.57 141.51 339.09 147.17 334.57C153.26 329.69 155.69 318.64 163.48 319.2C172.38 319.84 174.4 335.94 183.3 335.26C191.84 334.6 190.79 320.46 197.75 315.5C206.36 309.36 212.23 323.71 223.75 323.92C226.455 323.935 229.063 322.915 231.04 321.07C232.689 319.409 234.057 317.49 235.09 315.39C235.89 313.51 235.09 309.91 237.39 308.98C238.035 308.768 238.725 308.73 239.39 308.87C243.64 309.42 247.71 311.03 251.98 311.44C253.486 311.65 255.021 311.52 256.47 311.06C258.37 310.234 259.964 308.836 261.03 307.06C263.498 303.4 264.68 299.024 264.39 294.62C264.26 292.74 264.02 290.46 265.56 289.37C271.36 285.25 275.85 293.46 280.04 295.03C286.04 297.27 291.98 292.79 295.15 287.67C298.66 282 299.44 275.07 299.36 268.4C299.25 259.9 299.36 251.21 295.56 243.54C291.157 234.874 285.829 226.71 279.67 219.19C277.748 216.564 275.418 214.262 272.77 212.37C269.94 210.53 266.63 209.59 263.4 208.6C254 205.81 244.34 202.53 235.61 198.08Z" fill="#1D3F7A"/>
<g id="head">
<path id="neck" d="M216.79 202.818C218.73 190.178 215.26 179.188 209.49 167.998C207.675 164.363 205.128 161.142 202.01 158.538C197.722 154.852 192.848 151.908 187.59 149.828C183.95 148.508 178.78 146.728 175.07 149.348C172.95 150.848 172.51 152.778 172.2 155.288C169.2 179.398 162.7 193.358 157 203.518C163.32 224.668 182.66 242.908 203.93 250.398C206.53 243.788 209.84 234.868 214.28 222.888C216.96 215.698 215.61 210.598 216.79 202.818Z" fill="#F3A984"/>
<g id="face">
<path id="Vector_27" d="M258.79 106.63C261.04 113.147 262.287 119.968 262.49 126.86C262.673 132.431 262.145 138.002 260.92 143.44C259.61 149.22 255.29 153.17 253.41 158.71C252.2 162.29 253.46 166.45 253.48 170.21C253.48 179.45 251.13 187.83 248.26 196.49C245.86 203.71 243.31 211.14 239.26 217.68C237.2 221 234.59 225.28 231.26 227.47C227.65 229.85 221.44 228.64 217.72 227.27C209.778 224.202 202.341 219.958 195.66 214.68C192.5 212.25 189.41 209.68 186.33 207.17C183.141 204.649 180.161 201.873 177.42 198.87C175.896 197.193 174.499 195.404 173.24 193.52C169.969 188.785 168.025 183.26 167.61 177.52C167.52 175.52 168.27 173 166.87 171.36C165.17 169.36 162.02 170.2 160.32 168.36C159.59 167.59 159.15 165.28 158.78 164.19C158.31 162.79 158.4 156.6 156.78 156.12C155.16 155.64 153.34 153.53 152.14 152.38C149.83 150.19 147.49 156.29 147.14 153.13C145.69 139.72 143.31 125.85 146.14 112.46C148.78 100.19 150.34 89.54 160.14 80.46C167.49 73.6 177.04 69.35 186.92 67.46C202.176 64.5729 217.961 67.0271 231.62 74.41C240.714 79.168 248.304 86.3631 253.54 95.19C255.648 98.8288 257.406 102.659 258.79 106.63V106.63Z" fill="#FFC7AD"/>
<path id="Vector_28" d="M272.58 121.03C270.84 93.32 241.33 67.5 214.68 61.55C186.68 55.3 172.8 71.55 172.78 71.55C171.72 72.8 165.36 73.66 163.64 74.55C157.157 78.0152 151.614 83.0053 147.49 89.09C138.184 102.726 134.017 119.221 135.73 135.64C137.8 154.48 149.36 175.5 164.62 186.79C165.68 184.25 167.06 181.47 168.05 178.79C169.29 175.51 168.44 172.39 172.38 170.93C174.05 170.31 175.85 170.15 177.55 169.63C180.346 168.786 182.777 167.025 184.45 164.63C186.45 161.8 187.39 158.04 190.39 156.34C192.49 155.15 195.03 155.15 197.23 154.12C199.821 152.917 202.218 151.333 204.34 149.42C209.34 144.87 211.34 138.94 215.34 133.78C219.056 129.218 221.915 124.021 223.78 118.44C224.38 116.58 225.29 112.44 227.06 109.96C227.387 109.4 227.847 108.929 228.4 108.59C228.954 108.252 229.582 108.056 230.23 108.02C238.71 108.17 244.9 109.09 250.5 116.25C254.29 121.09 257.56 126 259.5 131.94C260.958 136.039 261.177 140.477 260.13 144.7C259.31 147.56 257.72 150.16 256.98 153.05C259.88 153.29 262.3 150.93 264.04 148.59C270.68 139.64 273.16 130.23 272.58 121.03Z" fill="#2F2F3A"/>
<path id="Vector_29" d="M160 147.68C150.14 146.43 146.91 158.54 153.16 168.41C154.98 171.29 158.34 173.95 160.81 176.31C177.67 192.44 183.07 176.4 177.74 170.93C165.35 158.23 172.42 149.26 160 147.68Z" fill="#FFC7AD"/>
<path id="Vector_30" d="M164.42 172.21C163.34 171.09 152.42 163.75 160.42 159.66C162.64 158.53 164.9 160.54 165.1 162.82C165.2 164 164.77 165.18 164.88 166.36C164.956 167.063 165.174 167.743 165.52 168.36C166.44 170.05 169.78 171.83 168.97 174.18C168.2 176.25 165 172.84 164.42 172.21Z" fill="#F3A984"/>
</g>
<g id="hat">
<path id="Vector_31" d="M133.2 80.56C123.74 90.67 119.39 102.65 116.2 115.82C114.76 121.7 114.86 127.76 113.71 133.82C112.35 140.98 110.16 147.95 108.27 154.98C104.98 167.21 102.59 180.43 106.87 192.36C108.87 198.06 113.03 203.62 118.97 204.83C121.392 205.21 123.858 205.21 126.28 204.83C132.5 204.14 139.01 203.35 144.15 199.83C147.15 197.72 152.48 195.53 151.83 191.9C146.9 164.44 183.11 143.41 190.67 143.69C203.81 136.19 221.67 130.93 237.36 129.32C244.36 128.61 251.36 129.7 258.28 128.69C265.2 127.68 272.43 123.76 274.21 117.02C275.49 112.2 273.69 107.11 271.5 102.61C257.77 74.27 224.72 55.84 193.81 55.44C182.08 55.28 170.94 56.22 160.42 61.64C153.34 65.29 146.34 69.18 140.14 74.17C137.681 76.1365 135.362 78.2716 133.2 80.56V80.56Z" fill="#DC373F"/>
<path id="Vector_32" d="M232.12 129.56C242.66 128.42 262.12 131.12 267.44 142.71C272.63 140.45 274.38 132.47 275.44 127.58C278.39 114.44 264.21 107.44 251.1 104.26C217.91 96.26 141.53 135.85 153.15 177.06C153.61 178.7 164.61 186.79 164.62 186.8C164.01 186.35 165.92 180.8 166.09 180.21C167.783 174.703 170.349 169.504 173.69 164.81C188.42 144.01 219.38 130.93 232.12 129.56Z" fill="#1D3F7A"/>
<g id="feathers">
<path id="Vector_33" d="M108.36 50.12C99.57 53.44 92.46 58.56 84.49 64.94C66.0968 79.6225 44.0304 88.9816 20.69 92C22.8934 98.3179 27.5052 103.509 33.52 106.44C45.12 112.03 59.06 107.97 70.44 101.98C81.82 95.99 92.53 88.04 105.14 85.5C110.06 84.5 115.14 84.39 120.08 83.81C132.808 82.3358 145.021 77.9304 155.76 70.94C158.68 69.02 161.55 66.86 163.42 63.94C176.53 43.44 126.68 45.63 117.63 47.44C114.474 48.0871 111.374 48.9833 108.36 50.12V50.12Z" fill="#FFD975"/>
<path id="Vector_34" d="M168.05 40.89C158.23 27.9463 144.376 18.6441 128.679 14.4535C112.981 10.2629 96.3347 11.4228 81.37 17.75C65.64 24.42 52.48 35.75 38.06 44.75C32.4 48.26 25.96 50.75 20.88 54.9C20 55.59 8.32001 64.99 8.26001 64.92C16.12 70.63 26.69 71.5 36.19 69.48C45.69 67.46 54.42 62.88 63 58.44C71.58 54 80.45 49.44 90 47.7C105 44.95 119.25 49.26 130.68 58.84C140.55 67.1 156.44 68.84 168.68 66.15C181.67 63.33 173.07 47.52 168.05 40.89Z" fill="#DC373F"/>
<path id="Vector_35" d="M163.56 20.71C153.22 8.82 137 3.54 121.2 2.61C105.4 1.68 89.78 4.53 74.1 6.19C63.29 7.33 51.1 7.45 43.15 0C47.54 2.67 50.08 7.47 53.46 11.33C63 22.24 78.64 25.08 93 27.22C107.36 29.36 123 32.09 132.66 42.88C136.28 46.88 138.79 51.77 141.78 56.28C144.77 60.79 148.47 65.13 153.48 67.19C165.61 72.19 170.31 60.5 172.1 50.82C174 40.28 170.57 28.76 163.56 20.71Z" fill="#FFD975"/>
</g>
</g>
</g>
<g id="flag">
<path id="Vector_36" d="M757.2 958.44C756.476 958.429 755.761 958.272 755.098 957.978C754.436 957.685 753.84 957.261 753.345 956.731C752.85 956.202 752.467 955.578 752.219 954.898C751.971 954.217 751.862 953.494 751.9 952.77C752.12 949.64 773.06 638.77 743.63 475.43C743.379 474.046 743.689 472.618 744.491 471.462C745.292 470.306 746.521 469.516 747.905 469.265C749.289 469.014 750.717 469.324 751.873 470.126C753.029 470.927 753.819 472.156 754.07 473.54C783.75 638.14 762.72 950.36 762.5 953.54C762.392 954.873 761.787 956.116 760.806 957.024C759.824 957.931 758.537 958.437 757.2 958.44Z" fill="#7E595E"/>
<path id="Vector_37" d="M767.65 958.17C767.65 967.86 742.92 975.71 712.43 975.71C681.94 975.71 657.26 967.86 657.26 958.17C657.26 948.48 681.99 940.67 712.43 940.67C742.87 940.67 767.65 948.53 767.65 958.17Z" fill="#57932A"/>
<path id="Vector_38" d="M757.2 964.02C757.2 970.02 737.15 974.94 712.43 974.94C687.71 974.94 667.7 970.03 667.7 964.02C667.7 958.01 687.7 953.15 712.43 953.15C737.16 953.15 757.2 958.07 757.2 964.02Z" fill="#423945"/>
<path id="Vector_39" d="M757.06 544.86L749.78 485.51C749.78 485.51 783.83 476.51 817.88 490.85C847.28 503.11 879.71 512.78 920.94 508.01C907.48 521.89 861.15 557.44 815.76 542.14C781 530.44 757.06 544.86 757.06 544.86Z" fill="#FF3645"/>
</g>
</g>
<defs>
<clipPath id="clip0_2_2">
<rect width="920.94" height="1075.41" fill="white"/>
</clipPath>
</defs>
</svg>
