<svg id="_Layer_" data-name="&lt;Layer&gt;" xmlns="http://www.w3.org/2000/svg" xmlns:xlink="http://www.w3.org/1999/xlink" viewBox="0 0 999.44 888.51"><defs><style>.cls-1{fill:#8b411d;}.cls-2{fill:#646077;}.cls-3{fill:#8bc246;}.cls-4{fill:#241d19;}.cls-5{fill:#fcb645;}.cls-6{fill:#2a2a34;}.cls-7{fill:#cdc7e5;}.cls-8{fill:#652f0b;}.cls-9{fill:#521e08;}.cls-10{fill:#e7dacc;}.cls-11{fill:#f7f4f2;}.cls-12{fill:#1d3f7a;}.cls-13{fill:#dc373f;}.cls-14{fill:#767288;}.cls-15{fill:#8c879f;}.cls-16{fill:#a29db7;}.cls-17{fill:#9a96ab;}.cls-18{fill:#1f1f29;}.cls-19{isolation:isolate;}.cls-20{clip-path:url(#clip-path);}.cls-21{fill:#ffd975;}.cls-22{fill:#464257;}.cls-23{clip-path:url(#clip-path-2);}.cls-24{clip-path:url(#clip-path-3);}.cls-25{clip-path:url(#clip-path-4);}.cls-26{fill:#a82128;}.cls-27{fill:#e8eef3;}.cls-28{fill:#f3a984;}.cls-29{fill:#ffbfa2;}.cls-30{fill:#5b6026;}.cls-31{fill:#f5ce93;}.cls-32{fill:#ffceb8;}.cls-33{fill:#d6af75;}.cls-34{fill:#e74a51;}</style><clipPath id="clip-path"><path class="cls-1" d="M639.09,402.28,853.2,278.94c1.14-.65,1.86-2.05,1.87-4.05a13.9,13.9,0,0,0-6.24-11c-1.76-1-3.35-1.13-4.5-.47L630.21,386.8c1.15-.66,2.75-.56,4.5.47a13.91,13.91,0,0,1,6.25,11C640.94,400.23,640.23,401.63,639.09,402.28Z"/></clipPath><clipPath id="clip-path-2"><path class="cls-2" d="M614.66,197.53l3.25-1.89C606.25,186.33,594,180,581.8,177.05l-3.26,1.89C590.77,181.87,603,188.22,614.66,197.53Z"/></clipPath><clipPath id="clip-path-3"><path class="cls-2" d="M621.69,318.57l3.25-1.89c6.83-4,11.61-11.32,13.5-21.23,4.06-21.18,8.11-42.25,12.18-63.43l-3.26,1.89c-4.06,21.18-8.11,42.25-12.17,63.43C633.29,307.25,628.52,314.61,621.69,318.57Z"/></clipPath><clipPath id="clip-path-4"><path class="cls-2" d="M647.36,233.91l3.26-1.89c-10-14.79-21-27.07-32.71-36.38l-3.25,1.89C626.32,206.84,637.41,219.12,647.36,233.91Z"/></clipPath></defs><path class="cls-3" d="M389.22,733.27c6.74-13.25,20-21.92,33.56-28,31.71-14.33,67.05-17.84,100.86-26,87.06-21.07,164.82-73.42,253-88.92a368.44,368.44,0,0,1,36.86-4.44c24.56,2.22,49,4.93,73.55,4.48a209.25,209.25,0,0,0,31.24,2.42,85.88,85.88,0,0,1,28,9.57c8.09,4.6,15.75,10.56,24.17,14.75,9.69,11.7,23.26,21,26.73,36.53.29,1.3.54,2.65.76,4a42.61,42.61,0,0,1-2.26,12.28C988,692.36,965,705.14,943.8,715.85L841.38,767.71c-55.92,28.32-112,56.68-170.37,79.4-46.7,18.16-97.79,32.8-146.43,20.79-28.37-7-53.74-22.59-78.58-37.95-17.56-10.86-35.54-22.1-48-38.6S379.87,751.67,389.22,733.27Z"/><path class="cls-3" d="M335,491.76c-5.87-5.82-14.39-8.08-22.62-8.94-19.24-2-38.51,2.3-57.8,3.9-49.64,4.1-99.85-10-149.14-2.7a201.85,201.85,0,0,0-20.23,4.1c-12.58,5.47-25,11.17-38,15.23a116.56,116.56,0,0,1-16.07,6.73A47.88,47.88,0,0,0,18,520c-3.47,3.84-6.47,8.33-10.18,12C4.75,539.91-.79,547.21.09,556c.08.73.18,1.48.31,2.26a23.64,23.64,0,0,0,3.34,6.09c8,10.49,22.39,13.21,35.44,15.17L102.32,589c34.47,5.17,69,10.35,103.83,12.13,27.83,1.42,57.36.22,80.94-14.63,13.75-8.65,24.42-21.32,34.85-33.78,7.38-8.8,14.9-17.88,18.57-28.76S343.17,499.84,335,491.76Z"/><path class="cls-4" d="M683,578.74c4,5.42,9.22,11.4,16.11,12.7,2.86.54,6.31.17,8.68-1.68,1.78-1.39,1.65-2.94,1.3-5-.21-1.24-.53-2.45-.68-3.71a.64.64,0,0,1,.64-.64c3.76.36,5.4,6.5,5,9.61-.63,4.51-6.92,6.42-10.88,7a19.27,19.27,0,0,1-13.63-3.54c-4.77-3.28-7.6-7.51-10.43-12.43C677.62,578.44,681.35,576.43,683,578.74Z"/><path class="cls-5" d="M627.25,250.91c-11.94,27.57-29.32,53-49,75.64A284.37,284.37,0,0,1,546,358.37c-12,10-25.21,17.39-40.47,21.08a116.61,116.61,0,0,1-54.5-.12c-2.61-.62-1.5-4.63,1.11-4a112.16,112.16,0,0,0,48.65.89,95,95,0,0,0,41.5-20.09c22.29-18.26,42-40.44,58.67-63.88a453.13,453.13,0,0,0,25.76-41.64c.19-.35.67,0,.52.31Z"/><path class="cls-6" d="M548.26,469.24a36.28,36.28,0,0,0,4.61.85c6.24.73,7.81-11.41,9.3-16,2.75-8.58,5.52-17.21,6.76-26.15,1.32-6.95,1.2-14.62,1.32-21.67a92.76,92.76,0,0,0-.6-15.37c-1.2-7.91-4.84-14.54-7.49-21.93-1.15-3.19.56-5.06-3.5-6.18-3.39-.94-6.73-.44-10,.51a57.33,57.33,0,0,0-11.26,4.58c-3,1.52-7.71,3.69-9.78,6.49-1.65,2.24-.51,4.36.09,7.08,5.88,26.61,10.61,54.07,10.16,81.51a3.53,3.53,0,0,0,.19,1.52,3.19,3.19,0,0,0,1.46,1.3A36,36,0,0,0,548.26,469.24Z"/><path class="cls-7" d="M563.75,398.2c5.51,10.47,19.84,8.14,28.34,2.52C599.4,395.88,609,388,616.24,383c15-10.26,71.49-32.06,58.85-67.51-1.89-5.33,1.82-18.64-4-19.93-12.58-2.81-45.36,22.51-50.64,25.85C585.91,343.28,554.53,380.71,563.75,398.2Z"/><path class="cls-4" d="M521.08,780.31a26.24,26.24,0,0,0,6.22,1A23,23,0,0,0,543.88,775a30.37,30.37,0,0,0,7-11.64c1.22-3.44,3.28-8.59,1.5-12.2-1.43-2.91-4.9-4-7.58-5a66,66,0,0,0-14.72-3.69c-2.23-.28-5,0-7.13-.86-.72-.29-.9-1.12-1.78-1.26-1.36-.21-2.3,1-3.06,2-5.55,7.36-11.36,15.46-11.66,24.94a8,8,0,0,0,4,7.8A31.5,31.5,0,0,0,521.08,780.31Z"/><path class="cls-8" d="M545.83,483.3c-13.18-4.29-29.24-3.8-40.63,5.12-4.68,3.67-7.82,9.92-9.89,15.42-3.65,9.69-.08,17.2,1.22,26.54,1.64,11.71,1,23.15,4,34.81,3.55,14,9.63,27.17,14.55,40.72,2.23,6.15,5.45,13.35,5.35,19.89-.12,7.4-1.68,14.44-.15,21.88,1.69,8.24,5,15.46,6.2,24,.5,3.54,1.34,38.94-2,53-1.31,5.49-6.25,12.08-4.69,18,1.27,4.86,11,9.55,15.44,10.65,4.61,1.15,9.21.29,13.55-1.43,3.89-1.54,4.26-4.6,4.18-8.77-.17-9.15-5-20,2.16-27.47,1.66-1.75,3.78-3.09,5-5.16,2.61-4.32.82-8.91-.61-13.21-3-9-6.18-17-6.35-26.74-.07-4.16.27-8.31.61-12.46.65-7.83,1.31-15.25.65-23-.6-7-2.85-14.58-2-21.65,1.06-8.9,8.09-32.94,9.4-40.24a367.27,367.27,0,0,0,5.43-42.3c.64-10.49.4-19.86-2.71-30C561.11,490.05,556.37,486.73,545.83,483.3Z"/><path class="cls-8" d="M793.43,353.48A226.54,226.54,0,0,1,789.24,385c-1,5-2.25,10-3.46,15-.92,3.82-.27,7.17-.41,11-.33,9.64.34,19.42,4.51,28.29,2.77,5.88,7.9,9,11.22,14.2,1.58,2.48,1.45,4.54.82,7.23a99.12,99.12,0,0,0-2.76,15.22c-.49,6.26-.39,12.54-.41,18.82-.08,19.46-1.35,38.89-2.61,58.31a31.88,31.88,0,0,1-1.55,9.28,49,49,0,0,1-3.81,6.95,60.33,60.33,0,0,0-4.9,11.6c-1.4,4.12-.21,8.2.21,12.45.37,3.82-.12,8.15-3,10.66-1.86,1.6-4.4,2.16-6.84,2.42a34.23,34.23,0,0,1-13.54-1.26c-2.8-.86-5.58-2.17-7.39-4.46-2.79-3.52-1.12-6.48-.28-10.22q1.08-4.77,2.09-9.56a309,309,0,0,0,6-38.61c.84-10.35,1.25-20.73,1.06-31.1-.05-2.67-1.07-30.93-2.49-30.95,1.15,0-3.14-6.22-3.79-6.64-2.91-1.89-5.4-2.88-8.09-5.36q-9.09-8.4-17.54-17.47A330.8,330.8,0,0,1,701,411.56c-10.62-15.63-20.35-33.14-21.82-52.35a40.57,40.57,0,0,1,0-5.73Z"/><path class="cls-4" d="M754.82,628a24.36,24.36,0,0,0,5.44.77,21,21,0,0,0,14.5-5.13,24.41,24.41,0,0,0,6.16-9.47c1.08-2.79,2.87-7,1.32-9.91-1.25-2.36-4.29-3.26-6.63-4.07a61.72,61.72,0,0,0-12.87-3c-2-.23-4.41,0-6.24-.69-.62-.25-.78-.92-1.56-1-1.18-.17-2,.78-2.67,1.61-4.85,6-9.93,12.57-10.19,20.27a7.36,7.36,0,0,0,.37,2.88,8,8,0,0,0,3.14,3.46A28.14,28.14,0,0,0,754.82,628Z"/><path class="cls-1" d="M409.3,292.06c1.72,13.6,3.42,19.59,11.44,30.5,3.54,4.8,12,18.14,18.82,17.71,8.51-.55,9.52-9.36,8.94-16.32C446.66,301.83,427.45,294.77,409.3,292.06Z"/><path class="cls-9" d="M809.2,283.81a18.07,18.07,0,0,1,1.87-3.66c3.66-5.47,9.79-8.84,16.08-10.8,20.4-6.33,43.47.93,59.36,15.22,22,19.76,28.23,53.26,31.29,81.08,3.15,28.54,6.33,57.25,14.31,84.83a250.43,250.43,0,0,0,28.75,64c-18.63,2.12-29.71,28.74-48.21,25.67-3.21-.53-6.42-2-9.59-1.26s-5.63,3.69-8.82,4.69c-7.87,2.46-13.73-7.19-16.32-15-16.68-50.32-24.68-103.38-30.47-156.34-5.72-52.53,6.11-13.08,5.12-58.52-.14-6.24-.67-12.92-4.57-17.8-2-2.47-5-4.36-8.13-4.15-4.89.33-8,5.14-11,9C816.2,316.56,804.18,297.18,809.2,283.81Z"/><path class="cls-1" d="M441.72,335.81c3.49-11.27,9.91-20.49,23.39-22.9,21.18-3.78,39.13,8.65,55.49,20.16,50.63,35.63,50.36,51.65,69,44.39,9.73-3.8,61.82-25.8,93.91-64.36,26-31.23,72.65-56,130.72-35.21,17.36,6.22,28.25,20.82,37.45,36.77,10.62,18.43,12.23,46.85,7.18,67.25-4.39,17.73-18.27,26.71-35.38,33.1-7.37,2.74-15.52,2.74-23,5.31-20.31,7-36.27,47.52-36.27,47.52-16,36.67-113.46,100.07-171.24,116.37-33.08,9.33-64.24,6.25-84.14-11.78-14.69-13.32-21.25-47.37-24.35-66-4.15-25-5.15-49.63-7.75-74.93-.88-8.52-17.55-39.42-23.41-46.82C443.4,372.13,436.81,351.65,441.72,335.81Z"/><path class="cls-8" d="M441.72,335.81C445.21,324.54,454.8,351,468.36,353c61.25,8.73,45.41,57.42,40.77,88.76-4.9,33-1.68,55.09,11.44,86,8,18.74,20.62,33.74,31.87,51.55,2.9,4.55,7.27,8.38,12.46,9.85-22.14,1.35-41.94-3.91-56.06-16.7-14.69-13.31-21.25-47.37-24.35-66-4.15-25-5.15-49.63-7.75-74.93-.88-8.52-17.55-39.42-23.41-46.82C443.4,372.13,436.81,351.65,441.72,335.81Z"/><path class="cls-1" d="M859.74,433.06c-1,5-2.25,10-3.46,15-.92,3.82-.27,7.17-.41,11-1.08,31.44,10.27,33.95,15.73,42.5,3.3,5.18-.83,8.36-1.94,22.44s.94,16.4-3,77.13c-1,14.86-3.94,9.13-10.26,27.83-1.4,4.13-.21,8.2.21,12.45.37,3.82-.12,8.15-3,10.66-5.1,4.38-22.56,3.27-27.77-3.3-2.85-3.58-1.44-4.38,1.81-19.77a309.43,309.43,0,0,0,6-38.62c2.45-29.92-.2-62-1.43-62,1.15,0-3.14-6.21-3.79-6.64-24-15.63-75.73-75-78.74-114.39-1.44-18.89,11.44-40,20.77-55.74,3.89-6.55,4.87-9.93,12-13.45,19.33-9.55,48-8.21,66.27,1.77,3.72,2,8.35.51,8.35.51C864.6,355.41,868,392,859.74,433.06Z"/><path class="cls-4" d="M825.32,676.06a23.8,23.8,0,0,0,5.44.77,21,21,0,0,0,14.5-5.13,24.38,24.38,0,0,0,6.16-9.46c1.08-2.8,2.87-7,1.32-9.92-1.25-2.36-4.29-3.26-6.63-4.06a61.11,61.11,0,0,0-12.87-3c-2-.23-4.41,0-6.24-.69-.62-.24-.78-.92-1.56-1-1.18-.17-2,.78-2.67,1.61-4.85,6-9.93,12.57-10.19,20.28a7.33,7.33,0,0,0,.37,2.87,8,8,0,0,0,3.14,3.47A28.32,28.32,0,0,0,825.32,676.06Z"/><path class="cls-1" d="M405.73,383.27c.38,9.41-3.85,18.34-8,26.52-10.4,20.67-38.95,46.1-12.65,67.61,4.15,3.39,9.18,5.54,14.27,7.21a18.81,18.81,0,0,0,5.42,1.15c3.91.06,7.5-2.08,10.61-4.44a61.31,61.31,0,0,0,12.75-13.13c3.39-4.72,4.82-10.7,8-15.29,5.84-8.39,19.26-11,28.49-13.69,12.71-3.65,29.65-9.09,36.25-21.32a108.12,108.12,0,0,0,12.57-44.47c1-15.92.48-38.23-12.5-49.07-6.87-5.74-23.87-17.83-47-12.79-20.38,4.45-25.08,7.41-33.35,21.37C410.76,349.65,404.52,353.37,405.73,383.27Z"/><path class="cls-5" d="M408.7,351.54c6.83-7.22,18-8.05,27.16-6.12a91.57,91.57,0,0,1,16.63,5.73c4.71,2,9.4,4,13.9,6.44,8.77,4.7,16.7,11,21.76,19.67a54.48,54.48,0,0,1,6.93,26.06,63.4,63.4,0,0,1-2.84,20.75c-.4,1.23-.84,2.46-1.32,3.66a6.93,6.93,0,0,1-.66,1.58,8.36,8.36,0,0,1-1.73,1.24,1.41,1.41,0,0,1-1.14.38,106.84,106.84,0,0,0,4.06-21.88,62.93,62.93,0,0,0-.27-12.35c-1.38,4.83-4.22,9.52-7,13.53a68.24,68.24,0,0,1-12.52,13.28A142.19,142.19,0,0,1,457,434.72a57.34,57.34,0,0,1-7.84,4.2c-2.61,1.12-5.46,2.49-8.3,2.78-1.75.19-2-2.48-.4-3,2.9-.9,5.76-1.23,8.6-2.48a58.4,58.4,0,0,0,7.46-4.05,169.76,169.76,0,0,0,14.56-10.62,63.16,63.16,0,0,0,12.14-12.41c3.23-4.46,5.26-9.32,7.74-14.15a47.59,47.59,0,0,0-3.65-12.23c-3.82-8.37-10.16-14.87-17.89-19.73a131.91,131.91,0,0,0-27.25-12.55c-10.55-3.61-22.34-4.59-31.28,3.19A1.54,1.54,0,0,1,408.7,351.54Z"/><path class="cls-10" d="M434.34,394.48c-9,12.87-14.4,31.74-27.86,38-2.61,1.22-5.89,1.79-8.11-.09-7.33-6.18,3.68-18.69,7.45-35.46,2.16-9.62-.39-36.12,12.69-59.43A27,27,0,0,1,434,324.88c21.37-6.59,22.29,27,18,40.74C447.43,380.14,440.15,386.19,434.34,394.48Z"/><path class="cls-9" d="M564.21,447.07c-12.25-3.3-16.12-18.62-20.29-27.42-6.08-12.79-12.31-16.8-14.55-19.78-1.63-2.16-2.69-5.19-3.69-7.7-3.94-9.87-9.21-6.65-27.47-40.53-2.67-5-5.36-10-9.43-13.93s-9.88-6.44-15.37-5.19c-9.14,2.1-11.69,19.28-12.16,20a1.61,1.61,0,0,1-1.77.78c-.92-.32-1-1.54-1.18-2.51-.2-1.35-1.41-2.71-2.52-1.06-3.49,5.19-5.15,11.36-7.51,17.16-.89,2.16-2,4.46-4.15,5.46.27-6.87.5-14-2.11-20.33-.85-2.06-2.12-2-3.57-.32-9,10.69-9.2,15.4-12.77,15.77,1.36-10.29,1.63-10.7.78-11.15-.6-.32-1.27.22-1.76.69-4.73,4.5-11.44,4.68-12,4.06-1.46-1.56,5.43-31,24.1-42.39,13.1-8,29.49-11.28,44.53-7.9a85.66,85.66,0,0,1,22.38,8.45A142,142,0,0,1,518.59,329c24.5,17.75,35.3,29.05,41.74,34.49,7.51,6.34,12.76,5.29,13.1,22.06.27,13.05-.84,16.06-4.4,23.4-7.45,15.35-12.19,11.29-11.24,23.5C558.27,438.63,560.64,442.26,564.21,447.07Z"/><path class="cls-4" d="M455.34,383.26a16.17,16.17,0,0,1,12-4.07c.46,0,1,3.57,1,4.11a14.92,14.92,0,0,1-.9,3.94,12.36,12.36,0,0,1-5.14,7c-3,1.77-6.72,1.65-10.21,1.48C451.88,391.19,451.86,386.58,455.34,383.26Z"/><path class="cls-11" d="M463.29,384.39a1.82,1.82,0,1,1-2.15-1.41A1.81,1.81,0,0,1,463.29,384.39Z"/><path class="cls-4" d="M583.56,818.73a26.24,26.24,0,0,0,6.22.95,23,23,0,0,0,16.58-6.31,30.41,30.41,0,0,0,7-11.65c1.23-3.43,3.28-8.58,1.5-12.19-1.43-2.91-4.9-4-7.58-5a66.65,66.65,0,0,0-14.71-3.7c-2.23-.28-5.06,0-7.14-.85-.72-.3-.9-1.12-1.78-1.26-1.36-.21-2.3,1-3.06,2-5.55,7.37-11.35,15.47-11.65,24.94a7.93,7.93,0,0,0,4,7.8A31.53,31.53,0,0,0,583.56,818.73Z"/><path class="cls-1" d="M608.31,521.71c-13.18-4.28-29.24-3.79-40.62,5.13-4.68,3.67-7.83,9.92-9.9,15.42-2.34,6.22-2,11.79-1.23,18.29,2.58,21.53,10.26,42,17.33,62.35,3.29,9.47,8.13,20,9,30,1,11.07-2.41,22.13-.15,33.17,1.69,8.23,5,15.46,6.2,24,.5,3.55,1.35,38.94-2,53-1.31,5.48-6.25,12.07-4.69,18,1.28,4.87,11,9.55,15.45,10.66,4.6,1.15,9.2.29,13.54-1.43,3.9-1.55,4.26-4.61,4.18-8.78-.17-9.14-5-20,2.16-27.47,1.66-1.74,3.78-3.09,5-5.15,2.61-4.33.82-8.92-.61-13.21-3-9-6.17-17-6.35-26.75-.07-4.15.27-8.31.61-12.45.65-7.84,1.31-15.26.65-23-.59-7-2.84-14.58-2-21.65,1-8.9,8.08-32.95,9.39-40.24a365.08,365.08,0,0,0,5.43-42.3c.64-10.49.4-19.86-2.71-30C623.59,528.46,618.85,525.14,608.31,521.71Z"/><path class="cls-4" d="M427.24,327.53c.93.7,10.7-5.82,10.06-7.25s-15.1-16.33-22-17C414.34,303.13,424.86,325.74,427.24,327.53Z"/><path class="cls-12" d="M527.38,450.56c10.4-5.54,18.91-15,25.44-25a105.67,105.67,0,0,0,12.14-26c.89-2.84,7.62-26.19,4.94-27.59,7.43,3.89,15,5.16,22.61,2.06,31.82-13,69-34.52,91-60.87,25-30.09,69.25-54.19,124.37-37.32a48.51,48.51,0,0,0-2.84,12.6c-.69,7.53.57,17.15,7.71,21.39,3.78,2.25,8.37,2.23,12.54,1.22,6-1.44,15.27-11,16-12.09,16.41,16.41,18.67,34.27,23.41,56.15,5.47,25.27,12.33,50.37,22.89,74,6.3,14.12,13.88,27.68,19.27,42.17,1.07,2.89,2.07,5.92,1.83,9-.52,6.42-6.12,11.06-11.27,14.93-17.37,13.05-34.5,28.82-53.15,39.92-16.64,9.91-36.41,16.38-54.15,24.57-8.12,3.48-16.78,6.93-25.54,5.72-24.93-3.47-10.37-42-27.09-45.88-10.25-2.42-29.27,16-37.1,21.27l-41.81,28c-7.22,4.84-16.36,10.31-16.94,20-.72,12.27,6.8,22.22,1.21,34.93a38.49,38.49,0,0,1-8.29,11.4c-11.61,11.66-37.53,27.59-55.1,24.68-16.62-2.75-23.35-41.2-27-54.66-2.16-8.07-36.91-99.72-47.88-98.84-10.94,4.19,9.16,39.62,19.37,126.89.45,3.85,1.45,8.61.11,12.35-.79,2.21-2.9,4.15-5.25,3.93a21.84,21.84,0,0,1-3.55-1.13c-1.9-.53-3.91-.18-5.88-.23-7.39-.21-13.55-6.29-16.31-13.16S490.3,620.5,490,613.11c-1.53-34.82-9.08-69.18-10.22-104-.39-11.95,0-24-1.59-35.81-.9-6.77-2.42-13.52-2.15-20.35a78.07,78.07,0,0,1,2.59-15.06c3.79,10,14.27,16.58,24.95,17.6A41.33,41.33,0,0,0,527.38,450.56Z"/><path class="cls-5" d="M521.48,613.75q1.35,9.25,2.54,19.44c.45,3.85,1.45,8.61.11,12.35-.79,2.21-2.9,4.15-5.25,3.93a21.84,21.84,0,0,1-3.55-1.13c-1.9-.53-3.91-.18-5.88-.23-7.39-.21-13.55-6.29-16.31-13.16S490.3,620.5,490,613.11q-.14-3.06-.33-6.14A37.62,37.62,0,0,0,507,615,24.42,24.42,0,0,0,521.48,613.75Z"/><path class="cls-5" d="M623.16,608c1.07-11.16-2.65-22.85.54-34,4.78-19.14,19.94-25.38,76.5-61.1,14.88-9.56,33.47-14.35,46.75-3.72,11.16,8.5,11.16,29.22,24.44,32.94,14.88,4.25,30.82-3.72,45.16-10.63,12.75-6.37,25-14.34,38.26-20.19,22.38-9.59,36.12-29.78,48-50.11,4.75,10.77,6.22,15.33,5.93,19-.52,6.42-6.12,11.06-11.27,14.93-17.37,13.05-34.5,28.82-53.15,39.92-16.64,9.91-36.41,16.38-54.15,24.57-57.8,24.76-32.6-35.45-52.63-40.16-10.25-2.42-29.27,16-37.1,21.27-50.54,33.82-58.07,36.58-58.75,48-.72,12.27,6.8,22.22,1.21,34.93-7.39,16.8-43.25,39.42-63.39,36.08-8.17-1.35-14-11.34-18.15-22.75C580.41,639,619.76,635.26,623.16,608Z"/><path class="cls-1" d="M489.15,345.68c4.39-11.69,4.63-34.16.46-43.42-7.05,1.65-15.05,10.33-19.25,18.07-1.27,2.35-5.21,9.23-5.21,9.23a72.75,72.75,0,0,0,4,6.54C474.38,343,489,346.06,489.15,345.68Z"/><path class="cls-4" d="M475.23,338.3c.32,1.15,11.58,5.69,12.32,4.2s1.92-28.41-.77-30.12C485.68,311.69,474.41,335.38,475.23,338.3Z"/><path class="cls-5" d="M784,405.77c4.53,16.38,6.87,35.14-2.27,49.49-9.79,15.36-25.86,20.36-60.19,40.18-12.42,7.17-73.52,29.26-79.7,23.66C596.52,478,579.5,375.32,579.5,375.32s8.66-5.61,15.74-8.09c29.59-10.38,79.93-31.56,101.24-55.32,0,0,21-13.56,32.47-2.29C750.22,330.54,773,365.82,784,405.77Z"/><path class="cls-5" d="M776.26,406.1c4.54,15.61,6.94,33.45-1.93,47-9.49,14.54-25.18,19.21-58.66,37.84-12.11,6.74-65.66,25.36-70.42,18.85-26.7-36.42-48.46-84.51-58-128.28-1.48-6.82-2.93-10.9,4-13.22,28.9-9.68,78-29.52,98.75-52,0,0,20.49-12.77,31.76-2C742.71,334.38,765.2,368.05,776.26,406.1Z"/><path class="cls-4" d="M769.32,358.49c-1.16,6.49-2,13.05-2.55,19.62-.65,7.93-.89,16.06-3.79,23.46a24.56,24.56,0,0,1-6.34,9.55c-4.66,4.14-11,5.74-17.17,6.64-4.29.63-8.86,1.08-12.33,3.68-3.86,2.88-5.51,7.76-7.73,12-7.14,13.81-22.12,22.93-37.64,24s-31.13-5.67-41.88-16.9a36.11,36.11,0,0,1-7-10c-2.72-6.05-3-12.87-4.49-19.34a56.43,56.43,0,0,0-14.06-25.79,29.09,29.09,0,0,0-9.83-7.34A37,37,0,0,0,584,375.91c4.16-8,7.22-15.67,12.67-22.77C603,344.88,612,339,621.24,334.21c19-10,39.68-16.34,59.25-25.15,17.72-8,39.56-7.78,58.39-3.78a48.51,48.51,0,0,1,14.3,5c10.88,6.29,16.86,19.15,17.2,31.71a77.87,77.87,0,0,1-1,16.36Z"/><path class="cls-9" d="M570.66,372.1c6.17,9.15,2.28,31.59,8.62,45,2.07,4.39,4.57,8.83,4.58,13.69,0,5.09-2.74,9.76-5.82,13.8s-6.62,7.85-8.64,12.52c-3,6.88-2.31,14.76-1,22.15s3,14.87,2.07,22.31c-.45,3.42-1.68,7-4.59,8.88l-1.47-10.91c-.9-6.63-1.84-13.43-5-19.34-1.24-2.33-3.66-4.77-6.12-3.82-2,.76-3.73,3.49-5.42,2.26a2.83,2.83,0,0,1-.85-1.26c-3.78-8.94-.13-19.05.83-28.71,1.51-15.13-3.94-30.47-13.1-42.61-1.84-2.44-3.86-4.82-5.06-7.63-2.66-6.2-.95-13.34,1.08-19.78.92-2.95,2-6,4.13-8.19,2.92-3,7.3-3.9,11.4-4.67Z"/><path class="cls-13" d="M808.44,287.14c11.51,14.07,25.56,26,39.17,37.95,8.14,7.15,20.76,15.44,23.79,26,3.43,12,5.55,23,13.05,33.43,7.26,10.15,17.91,18.18,30.11,20.75a115.77,115.77,0,0,1-10.75,20.77c-5,7.6-12.08,15.24-21.16,15.3-7.22.06-13.75-4.8-21-5.05-9.82-.34-17.84,7.78-23,16.16s-9.08,17.93-16.86,23.94c-4.62,3.57-10.22,5.58-15.73,7.53-4.17,1.48-8.45,3-12.87,2.86-6.85-.19-13.11-4.33-17.46-9.63-4.07-5-6.75-11.09-9.94-16.59-3.69-6.37-3-11.59-3.39-19-.82-14-9.69-26.32-19.85-36-14.94-14.29-33.1-24.68-49.72-37-12.32-9.13-24.11-19.66-32.25-32.79-7.28-11.74-17.33-22.07-19.13-36.32-.66-5.23-.94-8.8,1-14s4.6-9.95,5.63-15.37L659.05,213c1.17-6.12-13.11-26.15-11.69-32.35,5.55-24.12,30.29-17,49.68-12.8,20.71,4.46,60.76,30.49,72.75,48,13.27,19.42,18.53,42.78,31.71,62Q804.77,282.67,808.44,287.14Z"/><path class="cls-7" d="M739.2,331.8s-1.16-3.29-1.22-3.29c-9.09.64-18.35-3.77-27.91-6.19-20.64-5.23-23.34-2.68-33.53-15.24-7.14,11.17-14.19,27.74-15.31,30.39-5.78,13.68,8.33,14.29,6.17,21.83-5,17.47-8.92,53.85-12.31,71.75-2.06,10.89-4.23,26.25,10.32,32,11.63,4.58,23.87,1.5,29.56-6.69,1.95-2.8,2-3.41,13.1-30.88C711.64,416.6,740.22,384,739.2,331.8Z"/><path class="cls-7" d="M603.65,239.59c-7.44,13.83,1.59,28,14.46,23.69,7.81-2.58,13.6-9,19.19-15.35,33.07-37.38,15.68-17.89,35.63-41.4,5.62-6.61,10.27-12.91,9.83-23.86a13.77,13.77,0,0,0-1-5.09c-2.42-5.34-13-9.88-17.62-9.74C647.32,168.33,611.91,224.24,603.65,239.59Z"/><path class="cls-14" d="M624.67,209.07c1.12,7,6.34,8.54,11.55,5.55,4.29-2.45,7.91-5.82,12.11-8.53,11.14-7.2,16.79,2.6,21.72,2.72,5.33.12,9.7-2.77,11.15-7.83a41.41,41.41,0,0,0,1.32-16,20.74,20.74,0,0,0-10.31-15.37c-6.33-3.34-13.13-2.11-19.31.93-9.77,4.82-15.72,9.68-21.49,19.29C630.8,190.8,623.14,199.47,624.67,209.07Z"/><path class="cls-2" d="M672.16,368.9a10.15,10.15,0,0,1-2.49,2.57,9.68,9.68,0,0,1-5,1.31,23.93,23.93,0,0,1-23-16.29c-1-3.15-1.23-6.76.45-9.59a14.67,14.67,0,0,1,3.58-3.71c2.2-1.77,4.5-3.43,6.86-5s5.1-3.09,8-3c2.68.07,5.12,1.49,7.42,2.87a28.47,28.47,0,0,1,7,5.25C681,350.27,676.91,362.41,672.16,368.9Z"/><path class="cls-14" d="M736.15,373c0,.19-.06.38-.08.56-2.38,16.54-8.51,32.23-14.57,47.71-1.08,2.76-2.17,5.54-3.49,8.2a11,11,0,0,1-3.59,4.6,10.12,10.12,0,0,1-4.84,1.3c-9.32.63-18.15-3.22-26.08-7.73-7.12-4.05-14.69-6.67-20.61-12.64-6.2-6.25-8-15.28-8.5-23.76-.21-4.09,1.2-7.56.49-11.67a28.17,28.17,0,0,0-5.87-13c-9.75-12-26.06-13.16-38.46-4.74-3.36,2.28-6.54,5.09-10.48,6-12.58,2.93-22.89-18.91-12.14-28,25.25-21.33,43.62-34.55,54.64-36.91a34.32,34.32,0,0,1,10.78-.75c6.88.72,13.18,4.12,19,7.92,10.72,7.05,20.31,15.64,29.48,24.58,4.21,4.1,8,9.15,13.32,11.75,6.58,3.23,13.32,7.26,18.38,12.67C737.31,363.17,736.88,367.79,736.15,373Z"/><path class="cls-15" d="M740.71,362.12c-9.38,15.81-100.77,13.6-121.55-42.23-4.38-11.76,4.86-13.57,21.88-24a3.91,3.91,0,0,1,1.69-.7c1.19-.1,2.17.86,3,1.69,10.82,10.35,53.67,18.72,68.37,21.05,11.72,1.86,16.66-5.33,21.73,7.09C741.65,339.12,743.4,357.58,740.71,362.12Z"/><path class="cls-16" d="M684.55,177.6c-24.79-7.53-28.27,1.25-35.41,20.45-7.46,20.09-7.29,44.74-7.56,66-.27,20.42-1.18,35,1.45,46.27,3,13,68.71,44.65,81.94,8.24,6.39-17.58,18.38-39.31,19.54-58,.57-9,6.56-18.5,9-27.45,1.43-5.26,4.32-14.39.22-19.23-4.84-5.69-15.52-12.69-21.93-16.69C716.94,188,701.39,182.72,684.55,177.6Z"/><path class="cls-14" d="M671.35,247.62c32.28,7.89,64.91-14.55,65.86-42.11.06-1.85,4.5-3.29,4.5-3.29-6.18-6.09-22.66-11.71-39.55-31.06-15.68-18-51.92,1-54.65,19C645.57,202.92,643.31,240.77,671.35,247.62Z"/><path class="cls-15" d="M681.13,186.27s-9.43-.8-19.17,7.9c-2.1,1.87-8.73,14.4-8.73,14.4s-1.35,4.69-4.83,3.18-6.51-4.21-7.27-8.79.26-9.72,2.06-14.32c4.28-10.94,15.23-23.52,24.71-20.63,3.4,1,6.2,3.56,8.75,6.32C682.15,180.26,681.13,186.27,681.13,186.27Z"/><path class="cls-2" d="M712.3,177.15c-.16-2.44.06-12.86,0-14.35,0,0-15.66-18.23-34.63-17.8-2.87.06-5.73.41-8.59.23-2-.12-5.22,5.15-5.22,5.15s-4.29,30.59-4.06,32.29a31.67,31.67,0,0,0,15.49,23.67c21.49,13,51.38-14.13,51.38-14.13S712.76,184,712.3,177.15Z"/><path class="cls-17" d="M665.29,135.93a35.25,35.25,0,0,0-1.09,6,119.45,119.45,0,0,0-.8,14.65c0,3,.11,6,.32,9,.11,1.59.25,3.17.42,4.76.13,1.23,0,3.07.51,4.18,3.49,8,42.89,2.46,45.68-2.17.87-1.45,1.38-3,2.37-4.33,1.42-1.95,3.06-3.72,4.43-5.73,3.83-5.66,7.31-12,7-19-.26-6.41-.62-19-17.28-25.39C689.28,111.33,669.71,121.38,665.29,135.93Z"/><path class="cls-18" d="M667.64,151.69c11.57,7.09,21.14,10.37,31.39,10.74,1.49,0,2-1.46,1-3.26l0-.06a5.11,5.11,0,0,0-3.7-2.81c-9.25-.39-17.74-3.28-28.2-9.64-1.46-.89-2.77-.68-3,.5v0C664.76,148.57,666,150.66,667.64,151.69Z"/><path class="cls-14" d="M706.61,171.81c-.1-3.2.27-14.92-1.65-17.54-6.07-8.28-17.42-9.9-26-12.07-3.76-.94-15-4.07-19,5.51,1.09-10.39,2.22-27.82,15.87-37.76,10.41-7.56,28.63-5.51,37.19-.94,12.62,6.73,18.84,23.11,17,36.36-.12.89-3.55,28.14-5.13,32-7.47,18.27-54.78,16.12-54.78,16.12S706.69,174.5,706.61,171.81Z"/><path class="cls-17" d="M681.47,107.17c-10.26,4.48-11.27,13.5-2.26,20.14s24.63,8.39,34.88,3.91,11.27-13.5,2.26-20.14S691.72,102.69,681.47,107.17Z"/><path class="cls-14" d="M679.37,170.11c-6.44-.64-12.13-3.42-14.68-8.23-1.7-3.2-.44-19.33-.14-21.73a3.54,3.54,0,0,0-3.51,1c-5.49,21.26,9.05,52.32,9.05,52.32s19.67-.86,31.21-9.33c5.81-4.26,17.25-13.53,17.25-13.53l-9.8-11C703.34,169,685.88,170.76,679.37,170.11Z"/><path class="cls-4" d="M650.62,386.38c-1.53-16.25.46-23.17-3.41-33.39s-20.15-19.18-34.72-16.17c-18.91,3.91-25.21,33.78-25.21,33.78s25,2.37,27.81,6.76c6.18,9.63,4.43,17.47,13.47,24.48,7.72,6,21,14,30,7.19C655.71,402.71,651.25,393.12,650.62,386.38Z"/><path class="cls-6" d="M647.23,399.17c-.65-11-.89-22.19-4.16-32.71s-10.14-20.54-20.37-24.65a19.27,19.27,0,0,0-8.6-1.52c-8.6.66-14.73,8.33-19.75,15.35-4.49,6.28-9,12.64-11.81,19.84,8.61-.43,17.78-.73,25.23,3.6,7.13,4.14,11.44,11.88,14,19.71s3.77,16.07,6.52,23.83A62.42,62.42,0,0,0,641.23,444c1.53,1.65,3.29,3.3,5.51,3.64,3.69.58,7-2.85,7.75-6.5,1.22-6.19-2.12-12.71-3.82-18.47C648.42,415.06,647.71,407.07,647.23,399.17Z"/><g class="cls-19"><g class="cls-19"><path class="cls-1" d="M639.09,402.28,853.2,278.94c1.14-.65,1.86-2.05,1.87-4.05a13.9,13.9,0,0,0-6.24-11c-1.76-1-3.35-1.13-4.5-.47L630.21,386.8c1.15-.66,2.75-.56,4.5.47a13.91,13.91,0,0,1,6.25,11C640.94,400.23,640.23,401.63,639.09,402.28Z"/><g class="cls-20"><g class="cls-19"><path class="cls-1" d="M639.09,402.28,853.2,278.94c1.14-.65,1.86-2.05,1.87-4.05a11.27,11.27,0,0,0-.66-3.71L640.3,394.52a11.27,11.27,0,0,1,.66,3.71c0,2-.73,3.4-1.87,4Z"/><path class="cls-1" d="M640.3,394.52,854.41,271.18a14.4,14.4,0,0,0-4.77-6.71L635.53,387.81a14.47,14.47,0,0,1,4.77,6.71Z"/><path class="cls-1" d="M635.53,387.81,849.64,264.47a8.14,8.14,0,0,0-.81-.54c-1.76-1-3.35-1.13-4.5-.47L630.21,386.8c1.15-.66,2.75-.56,4.5.47a8.27,8.27,0,0,1,.82.54Z"/></g></g></g><path class="cls-1" d="M634.59,401.81c3.48,2,6.33.43,6.37-3.58a13.91,13.91,0,0,0-6.25-11c-3.48-2-6.34-.44-6.37,3.58A13.87,13.87,0,0,0,634.59,401.81Z"/></g><g class="cls-19"><path class="cls-7" d="M652.2,360.84c2.65-1.52,6.29-1.28,10.3,1.07,8,4.66,14.37,15.89,14.3,25.09,0,4.56-1.67,7.76-4.28,9.26l-350,184.91a2.27,2.27,0,0,0,.95-2.06,7,7,0,0,0-3.18-5.58,2.29,2.29,0,0,0-2.29-.24Z"/><path class="cls-5" d="M631.6,373.94l14.29-9.09c4.92,12.1,3.72,26,.17,38-.84,2.68-1.78,5.71-2.85,8.88l-17.63,9.32C631.78,406.3,634.43,390.1,631.6,373.94Z"/><path class="cls-5" d="M589.32,400.82l12.82-8.16c3.72,14.33-.22,29.42-5.57,43.73l-15.21,8C588.88,430.93,592.42,415.53,589.32,400.82Z"/><path class="cls-5" d="M544.3,429.44l15.35-9.76a109,109,0,0,1-8.1,40.49l-15.3,8.09C542.41,456.24,546,443.21,544.3,429.44Z"/><path class="cls-5" d="M510.9,450.68a134.09,134.09,0,0,1-6.09,34.19l-14.45,7.63a107.24,107.24,0,0,0,8.08-33.9Z"/><path class="cls-5" d="M467.38,478.35a113.44,113.44,0,0,1-6.86,29.92l-11.29,6a93.34,93.34,0,0,0,6.67-28.6Z"/><path class="cls-5" d="M377.73,535.35a166.44,166.44,0,0,1-3.47,18.5l-51.7,27.32a2.27,2.27,0,0,0,.95-2.06,7,7,0,0,0-3.18-5.58,2.29,2.29,0,0,0-2.29-.24Z"/><path class="cls-5" d="M419.45,508.82a121.17,121.17,0,0,1-6.65,24.67l-14.39,7.6a126.39,126.39,0,0,0,5.23-22.21Z"/><path class="cls-21" d="M320.27,580.93c1.77,1,3.22.22,3.24-1.82a7,7,0,0,0-3.18-5.58c-1.77-1-3.22-.22-3.24,1.82A7.12,7.12,0,0,0,320.27,580.93Z"/></g><path class="cls-7" d="M752.67,302.84c1.34,2.47,2.76,4.93,4.24,7.41s3.33,5.32,6.35,6.32a11.45,11.45,0,0,0,5.49.15c4-.7,7.9-2.51,9.82-5.67s1.58-6.75,1.22-10.24c-1.48-14.25-7.61-68.46-19.45-80.37-10.77-10.84-15.63-9.24-20.21,1.25-6.66,15.28-7.35,24.74,2.71,58.19A119.3,119.3,0,0,0,752.67,302.84Z"/><path class="cls-7" d="M725.08,335.56c-5.54-13-3.28-12.94,37.55-42.13,7-5,19.07,23.42,11.16,27.76C773.72,321.23,731.43,350.48,725.08,335.56Z"/><path class="cls-14" d="M680.9,349.92q4.15-3.78,8.63-7.17c6.51-4.94,7.81-3,10.49-3.91,0,0,9-6.48,40.5-31.16,6.38-5,28.34,18.31,21,22.75L712,354.7c-.38,2.5-.13,6.89-2.83,14.06-.51,1.34-1.46,2.9-2.89,2.75a8.76,8.76,0,0,0-1.32-.25c-1.19.05-1.61,1.58-2.36,2.51a3.15,3.15,0,0,1-5-.52c-1.18.25-1.8,1.49-2.47,2.49s-1.95,1.95-3,1.32c-1.4-.86-.65-3.69-2.23-4.15-4,3.74-4.31,4.18-5.17,4.39-1.35.34-2.68-.86-3-2.2-.42-1.66.06-2.83,2-9.76a10.83,10.83,0,0,0,.6-4.35,3.74,3.74,0,0,0-2.59-3.25c-.65-.14-1.33-.05-2-.24-1.5-.45-2.12-2.38-1.68-3.88A8.7,8.7,0,0,1,680.9,349.92Z"/><path class="cls-14" d="M778.08,254.63c-2.31,7.64-8.34,8.52-13.68,4.41-4.39-3.38-7.89-7.68-12.14-11.33-11.28-9.69-19,.33-24.54-.29-5.94-.67-10.36-4.55-11.19-10.39a46.42,46.42,0,0,1,1-18,23.27,23.27,0,0,1,13.8-15.51c7.54-2.75,14.9-.34,21.31,4,10.12,6.84,16,13.15,20.93,24.7C774.06,233.4,781.25,244.2,778.08,254.63Z"/><path class="cls-15" d="M761.56,214.52A40,40,0,0,0,739.06,228c-2.08,2.48-6.13,16.93-6.13,16.93s0,5.09-5.21,4.57-10.27-2.35-13-6.71-3.38-9.82-2.74-14.94c1.52-12.19,11.3-27.93,25-27.76,4.93.06,9.61,1.78,14.07,3.81C760.62,208.21,761.56,214.52,761.56,214.52Z"/><path class="cls-15" d="M781.74,293.66c.35,2,.69,4.1,1,6.16a35,35,0,0,1,.54,8.36,37.84,37.84,0,0,1-1.37,6.49,22.83,22.83,0,0,1-2.29,6,7.88,7.88,0,0,1-5,3.81c-3.35.66-6.74-1.69-6.74-1.69s-5.82-8.41-8.59-10.41c-1.84-1.33-4.21-2.22-5.2-4.26a8.52,8.52,0,0,1-.63-3.05l-.69-8.45a23.65,23.65,0,0,1-.08-4.53,13.84,13.84,0,0,1,5.49-9.25,20,20,0,0,1,10.25-3.77c3.7-.35,7.87.49,10.14,3.72C780.59,285.68,781.16,290.31,781.74,293.66Z"/><path class="cls-13" d="M739.42,200.2c-9.83.22-47.79,15.74-66.25,2.05-.15-.11-.39-.07-.53-.21s5.22-4.63,8.26-5.54c11.25-3.37,11-1,40.2-9.67C720.05,187.14,741.06,200.17,739.42,200.2Z"/><path class="cls-13" d="M662.86,183.36c2.45,6.45,13.75,21.89,6.19,17.67q-13.6-7.58-15.77-14.39c-1.22-3.81-3.25-11.73-1.26-15.71s9.5-3.2,9.5-3.2A31.22,31.22,0,0,0,662.86,183.36Z"/><path class="cls-22" d="M665.46,199.77a6.24,6.24,0,1,1,5.5,6.91A6.24,6.24,0,0,1,665.46,199.77Z"/><path class="cls-5" d="M441.25,443.59c18.24,3.82,35.92.64,53.85-4.43,18.89-5.34,35.07-15.85,50.24-28C560,399.35,574,386.79,586,372.23a220.52,220.52,0,0,0,39.14-71.4c3.09-9.43,5.27-19.06,8-28.58.13-.47.92-.41.88.12-.71,8.83-3,17.48-5.54,26A204.34,204.34,0,0,1,619.23,323a223,223,0,0,1-27.37,45.89c-11.85,15.32-25.78,28.58-40.73,40.85s-30.89,23.82-49.53,30.16c-20,6.81-40.36,10.6-61.05,6.28C438.88,445.79,439.59,443.24,441.25,443.59Z"/><path class="cls-5" d="M395.07,412.33a64.27,64.27,0,0,1,14.68,5.6l1,.57a122.34,122.34,0,0,1,13.53,7.93c5.66,3.81,12.29,8.25,16.44,14.07a35.87,35.87,0,0,1,4.44,5.76c1.41,2.28-2.19,4.37-3.59,2.09-4.94-8-13.41-13-21-18.28-4.11-2.85-8.17-5.87-12.52-8.36l-.33-.17A90.67,90.67,0,0,0,394,416.3C391.43,415.57,392.5,411.63,395.07,412.33Z"/><g class="cls-19"><g class="cls-19"><path class="cls-2" d="M614.66,197.53l3.25-1.89C606.25,186.33,594,180,581.8,177.05l-3.26,1.89C590.77,181.87,603,188.22,614.66,197.53Z"/><g class="cls-23"><g class="cls-19"><path class="cls-2" d="M614.66,197.53l3.25-1.89C606.25,186.33,594,180,581.8,177.05l-3.26,1.89c12.23,2.93,24.46,9.28,36.12,18.59Z"/></g></g></g><g class="cls-19"><path class="cls-2" d="M621.69,318.57l3.25-1.89c6.83-4,11.61-11.32,13.5-21.23,4.06-21.18,8.11-42.25,12.18-63.43l-3.26,1.89c-4.06,21.18-8.11,42.25-12.17,63.43C633.29,307.25,628.52,314.61,621.69,318.57Z"/><g class="cls-24"><g class="cls-19"><path class="cls-2" d="M621.69,318.57l3.25-1.89c6.83-4,11.61-11.32,13.5-21.23,4.06-21.18,8.11-42.25,12.18-63.43l-3.26,1.89c-4.06,21.18-8.11,42.25-12.17,63.43-1.9,9.91-6.67,17.27-13.5,21.23Z"/></g></g></g><g class="cls-19"><path class="cls-2" d="M647.36,233.91l3.26-1.89c-10-14.79-21-27.07-32.71-36.38l-3.25,1.89C626.32,206.84,637.41,219.12,647.36,233.91Z"/><g class="cls-25"><g class="cls-19"><path class="cls-2" d="M647.36,233.91l3.26-1.89c-10-14.79-21-27.07-32.71-36.38l-3.25,1.89c11.66,9.31,22.75,21.59,32.7,36.38Z"/></g></g></g><path class="cls-17" d="M614.66,197.53c-11.66-9.31-23.89-15.66-36.12-18.59L566.8,240.09c-2.45,15.21.29,32,7.62,50.63,4.11,10,8.08,20.09,12,30.15a12.23,12.23,0,0,0,3.6,5,4.87,4.87,0,0,0,4.31,1.29c6.82-2.14,13.68-4.19,20.67-6,10.39-2.41,17.73-11,20.19-23.87,4.06-21.18,8.11-42.25,12.17-63.43C637.41,219.12,626.32,206.84,614.66,197.53Z"/><path class="cls-12" d="M593.9,320.07c5.4-1.68,12.24-3.73,19.38-5.57l.16,0c7.71-1.79,13-8.33,14.95-18.43L640,235.43c-9.09-13.09-19.07-24-29.68-32.49a92.12,92.12,0,0,0-26.44-15.2c-3.43,17.87-6.85,35.67-10.28,53.55-2.17,13.61.2,28.94,7.23,46.86,3.58,8.76,7.4,18.36,12,30.21A5.82,5.82,0,0,0,593.9,320.07Z"/><polygon class="cls-21" points="603.08 224.95 598.65 238.23 586.45 222.34 591.87 240.89 577.6 234.93 590.34 250.06 580.67 256.82 594.76 261.46 594.23 277.79 603.08 269.76 611.92 288 611.39 271.07 625.48 282.7 615.82 264.77 628.55 264.35 614.28 253.82 619.71 241.54 607.5 243.34 603.08 224.95"/><polygon class="cls-21" points="595.2 205.33 594.07 208.75 590.93 204.66 592.32 209.43 588.65 207.9 591.93 211.79 589.44 213.53 593.07 214.72 592.93 218.92 595.2 216.85 597.48 221.55 597.34 217.19 600.97 220.18 598.48 215.57 601.76 215.46 598.09 212.76 599.48 209.6 596.34 210.06 595.2 205.33"/><polygon class="cls-21" points="623.01 224.12 621.87 227.54 618.73 223.45 620.13 228.22 616.46 226.69 619.73 230.58 617.25 232.32 620.87 233.51 620.73 237.71 623.01 235.65 625.29 240.34 625.15 235.98 628.77 238.97 626.29 234.36 629.56 234.25 625.89 231.55 627.29 228.39 624.15 228.85 623.01 224.12"/><polygon class="cls-21" points="596.52 286.05 595.39 289.46 592.25 285.38 593.64 290.15 589.97 288.61 593.25 292.51 590.76 294.25 594.38 295.44 594.25 299.64 596.52 297.57 598.8 302.26 598.66 297.91 602.29 300.9 599.8 296.29 603.08 296.18 599.4 293.47 600.8 290.31 597.66 290.78 596.52 286.05"/></g><path class="cls-16" d="M697.75,551.13c-3,2.55-5.19,6.49-6.8,9.73-4.42,8.9-8.36,18-12.3,27.14-1.69,3.91-4.6,7-5.92,11.15a11.41,11.41,0,0,0,.11,8.1,11.28,11.28,0,0,0,6.07,5.47,18.15,18.15,0,0,0,16.37-1.66c7.1-4.49,9.54-13,13.41-20q4.15-7.5,7.87-15.22c3.14-6.51,2.06-10.52-1-16.75-2.15-4.4-2.49-7.29-7.18-9.53C704.12,547.51,700.6,548.67,697.75,551.13Z"/><path class="cls-14" d="M698,589.2a30.36,30.36,0,0,1,7.58,8c-2.55,5.32-5.24,10.63-10.34,13.86a18.15,18.15,0,0,1-16.37,1.66,11.28,11.28,0,0,1-6.07-5.47,11.41,11.41,0,0,1-.11-8.1c1.32-4.12,4.23-7.24,5.92-11.15.39-.89.78-1.79,1.16-2.68C686.13,583.75,693.19,585,698,589.2Z"/><path class="cls-7" d="M700.52,544.39c6.64-.64,5.46-12.83,5.94-17.68,2.6-26.71.79-32.52-2.7-48.43-4.56-20.78-6.9-19.59-17.06-34.64-1.94-2.87-.59-5.06-5.07-5.27-10.46-.5-28,16.64-26.77,19.17,27.92,56.13,27.13,82.39,28.9,84.57C685.08,543.75,694.37,545,700.52,544.39Z"/><path class="cls-16" d="M687.3,518.69a55.14,55.14,0,0,0-4,6.38c-4.52,8.54-1.58,9.88.68,17,.49,1.55,3.79,25.35,6.06,25.13.13,0,17.24,1.24,18.66,1.48,9.32-.89,4.11.91,5.71-27,1.57-27.33-7.3-45.81-7.3-45.81S693.1,510.61,687.3,518.69Z"/><path class="cls-14" d="M655.28,449.91a161.25,161.25,0,0,0,.51,26.73,3.14,3.14,0,0,0,3.38,3.32c6.91,1.24,14,2,20.94,1.17s13.88-3.28,19.19-7.87c4.92-4.25,4.89-8.13,1.94-13.45-2-3.56-3-6-7.43-6.2C680.65,453,668.24,453.08,655.28,449.91Z"/><path class="cls-15" d="M661.68,424.81c-22.4,3.77-15.87,42.33,2.63,44.44,5.83.66,23.89-7.65,18.51-29.4C680.57,430.73,671.69,423.12,661.68,424.81Z"/><path class="cls-15" d="M676.8,447.91a14.49,14.49,0,1,0,14.48-14.48A14.48,14.48,0,0,0,676.8,447.91Z"/><path class="cls-22" d="M683.05,567.85c3.9-3.08,9.73-2.9,14.28-1.63,5.18,1.44,8.93,5.1,11.92,9.42,2.73,3.94,5.81,9.72,4.74,14.68a1.24,1.24,0,0,1-2.24.29c-1.69-3.43-2.4-7.14-4.4-10.49-2.16-3.62-5.12-7.48-9.06-9.24-3.35-1.5-8.43-2.27-11.82-.48-3.54,1.88-5,7.09-5.51,10.76-.1.75-1.31.7-1.46,0C678.48,576.2,678.73,571.26,683.05,567.85Z"/><path class="cls-6" d="M637,427.15c.29-.79,1.56-1,1.77,0,1,4.68,1.08,9.53,1.75,14.28a117.13,117.13,0,0,0,2.93,14.36,182.9,182.9,0,0,0,10.67,28.55c8.64,18.74,19,36.81,29.77,54.38q4.49,7.28,9.16,14.43a54.11,54.11,0,0,1,4,6.67,13.47,13.47,0,0,1,1.2,7.48,2.66,2.66,0,0,1-5.32,0c-.35-4.37-3.94-8.7-6.24-12.22q-4.23-6.51-8.31-13.13-8.28-13.46-15.9-27.3c-9.65-17.54-19.48-35.78-24.2-55.39a100.6,100.6,0,0,1-2.58-15.7C635.27,438.16,635.09,432.29,637,427.15Z"/><path class="cls-21" d="M226.62,284.31c6.1,36,11.5,72.07,16.91,108.16,1.83,12.27,3.68,24.61,3.48,37a113.44,113.44,0,0,1-6.44,35.93c-2.15,6.1-4.86,12.15-5.28,18.62-.92,13.87,9.77,27,23.08,31s28.21-.13,39.19-8.65a55.65,55.65,0,0,0,18.29-25.4c5-14.34,3.93-30,2.78-45.16-2.82-37.22-5.73-74.89-17.66-110.25-8.05-23.86-20.08-46.24-27.92-70.17-4.6-14-6.56-27.12-10.78-41.83-2.72-9.5-3.11-21.92-15.76-24-22.75-3.78-25.47,33.43-25.37,47.1C221.25,252.63,223.94,268.54,226.62,284.31Z"/><path class="cls-26" d="M237.5,292.77c11.85,37.76,25.16,73.52,23.25,114-1.33,29.19-16.65,55.85-11,84.52,1.45,9.24,12.44,15.2,21.13,10.29,17.29-10.41,36.47-27.62,34.45-48-6.43-63.46-16.72-125.13-38.91-187.29-2.24-6.74-2.57-12.6-5.39-19.26-7.47-19.1-11.32-38.23-14.25-57.51l-.31-.06a15.35,15.35,0,0,0-13,3.35C229.42,226,227.21,259.51,237.5,292.77Z"/><path class="cls-27" d="M138.91,90.23c-1,9-11.14,12.86-8.67,43.07,1,12.76,0,11.32-2.28,20-3.8,14.61,3.42,28.49,7.88,30a8.53,8.53,0,0,0,3.56.21c16.32-1.66,35.95-20.32,39.76-31.92,3.11-9.48,24.16-11.16,31.09-12.6,6.13-1.26,11.69-2.64,15.77-25.64,1-5.56.76-11.13,1.41-16.68,2.51-21.57-2.08-40.27-5.21-45.24-6.42-10.21-16.76-12.08-28.68-12.74-11.67-.65-23.93-.45-34.22,5.08-9.3,5-8.16,4.54-16.11,18.25-2.92,5-5.77,10.48-5.57,16.29C137.78,82.36,139.36,86.27,138.91,90.23Z"/><path class="cls-28" d="M254.25,261.68a19.67,19.67,0,0,0-1.51,11.64c.62,3.48,2,6.6,2,10.15a91.82,91.82,0,0,1-1.24,10.83,2.66,2.66,0,0,0,.57,2.55,10.62,10.62,0,0,0,1.27.61c1.13.7,1.08,2.33.95,3.66s0,3,1.29,3.47c.56.2,1.21.09,1.73.37a2.24,2.24,0,0,1,.79,2.26,4.81,4.81,0,0,0,0,2.5c.51,1.17,2.07,1.48,3.31,1.2s2.38-1,3.63-1.2a16.31,16.31,0,0,0,2.11-.36c1.7-.57,2.58-2.4,3.15-4.09a74,74,0,0,0,2.42-10.42A52.43,52.43,0,0,0,275.9,284c-.25-8.35-4.44-16.06-9.23-22.91-1.5-2.15-3.48-4.48-6.11-4.46s-4.93,2.3-6.05,4.52C254.42,261.32,254.33,261.5,254.25,261.68Z"/><path class="cls-29" d="M262.86,270.92a8,8,0,0,0-3.36,6.37c-.05,5.13,4.71,9,6.32,13.83.85,2.57.79,5.36,1.54,8s2.75,5.2,5.46,5.25a1.73,1.73,0,0,0,2-1.69c.32-2.44-.71-4.84-.85-7.3a36.19,36.19,0,0,1,.74-6.53C275.54,282.8,272.44,264.25,262.86,270.92Z"/><path class="cls-26" d="M245.65,184.56c1.62,5.82,2.94,21.38,1.51,26.18-2.11,7.09-9.45,10-17.33.75-13.41-15.81-17.55-37.25-21.22-57.65-2.35-13.05,5.2-52.5,5.2-52.5s12.69,1.57,17.28,10.63C237.7,125,235.64,148.8,245.65,184.56Z"/><path class="cls-5" d="M224.08,208.9c1.11,2.87,2.31,5.88,3.52,8.83,3.32-9.94,12.54-18,23.1-18-.49-1.64-1-3.47-1.59-5.36C238.29,192.73,229.59,200.18,224.08,208.9Z"/><path class="cls-30" d="M251,200.59c-.08-.28-.17-.57-.25-.87-10.56,0-19.78,8.07-23.1,18,3.36,8.21,6.78,16,8.42,19.13,15.37,29.86,16.55,31.75,20.71,31.86s6.36-.12,9.31-3C268.84,262.93,269.24,263,251,200.59Z"/><path class="cls-29" d="M144.9,179.91c9.25,6.14,24.82,7.55,34.38,7.24,13.55-.44,26.83-4.56,38.82-10.88,6.91-3.63,25.6-14.93,21.08-24.34-1.87-3.87-4.74-7.21-6.4-11.21-1.87-4.49-2.06-9.42-2.07-14.23-.06-16.91-3.51-26.19-24.61-26.89-20.62-.69-44,12.79-58.94,26.33a62.92,62.92,0,0,0-10.37,12.51c-7.42,11.15-4.63,27.7,3.89,37.79A19.83,19.83,0,0,0,144.9,179.91Z"/><path class="cls-13" d="M235.32,195.27c3.66-10.65,15.92-20.86,5.59-40.2-7.28-13.63-10.15-13.19-10.2-28.58-.05-14.71-2.68-23.65-17.27-26.19,1,2.85,16.81,33.84-7.85,47.63-21.34,11.94-47.16-7.37-54.89-25.07q-1.84,1.53-3.54,3.07a62.92,62.92,0,0,0-10.37,12.51c-9.86,14.82-1.86,28.49,7.09,43,34,55.15,5.58,57-2.71,88.76-5.85,22.47,16,35.42,39.89,34.85,17.43-.42,58.85-2.62,63.48-19.47C250,265.64,223.93,228.36,235.32,195.27Z"/><path class="cls-30" d="M170,525.49c-37.51-6.42-69.6-24.92-93.1-52.35C61.17,499.86,54.33,522,87,558.56c18.23,20.46,45.9,19.87,75.91,15.2,71.13-11.08,83.78,4.32,112-10.93s16.26-27.35,7-56.82A171.31,171.31,0,0,1,170,525.49Z"/><path class="cls-13" d="M265.64,377.82c-2-11.88-16.88-99.58-24.74-121.29-6.71,5.82-13.1,7.59-22.14,9.79-24.79,5.45-48.32-.88-70.58-10.77-8.49,16.13-14.23,34.29-17.47,52.15-12.86,70.88-13.47,75.08-17.87,86.5C88.29,457.92,37.76,477,92.1,534.37c13.15,13.9,36.76,34.41,66.11,26.58,71.34-19,77.84,7.45,106.11-7.8,36.69-19.79,17.95-39.93,12.94-93.67C274.3,427.81,271,409.15,265.64,377.82Z"/><path class="cls-30" d="M170.27,153.89c14.6,8.76,33,9.09,47.06-1.9,15.81-12.42,5-48.67,3.38-49.46a26.87,26.87,0,0,0-7.27-2.23c1,2.85,16.81,33.84-7.85,47.63-21.34,11.94-47.16-7.37-54.89-25.07q-1.84,1.53-3.54,3.07c-.55.5-1.08,1-1.6,1.51S158.54,147.26,170.27,153.89Z"/><path class="cls-21" d="M213.91,166.74a6,6,0,0,1-2.74,4.74c-1.51.88-2.74.17-2.74-1.58a6,6,0,0,1,2.74-4.74C212.69,164.28,213.91,165,213.91,166.74Z"/><path class="cls-21" d="M216.46,183a6,6,0,0,1-2.74,4.74c-1.51.88-2.74.17-2.74-1.58a6.06,6.06,0,0,1,2.74-4.74C215.24,180.5,216.46,181.21,216.46,183Z"/><path class="cls-21" d="M216.65,201.88a6.08,6.08,0,0,1-2.74,4.75c-1.51.87-2.74.16-2.74-1.58a6.06,6.06,0,0,1,2.74-4.75C215.42,199.43,216.65,200.14,216.65,201.88Z"/><path class="cls-21" d="M216.73,219.81a6,6,0,0,1-2.74,4.74c-1.51.88-2.74.17-2.74-1.58a6.06,6.06,0,0,1,2.74-4.74C215.51,217.35,216.73,218.06,216.73,219.81Z"/><path class="cls-21" d="M215.53,238a6.08,6.08,0,0,1-2.74,4.75c-1.51.87-2.74.16-2.74-1.59a6.06,6.06,0,0,1,2.74-4.74C214.3,235.55,215.53,236.25,215.53,238Z"/><path class="cls-21" d="M213.91,256.8a6,6,0,0,1-2.74,4.74c-1.51.88-2.74.17-2.74-1.58a6.06,6.06,0,0,1,2.74-4.74C212.69,254.34,213.91,255.05,213.91,256.8Z"/><path class="cls-21" d="M205.51,491.35c1.23,3.72,4.19,5,18.51,8.33,4,.94,8-9.72,10-76.66.85-27.51,1.74-53.26-1.44-80.65-1.77-15.21-5.44-42.77-12.46-56.38l-16.65,7c2.74,15.93,9.26,59.2,10.48,75.69C218.33,427.1,203.43,485.11,205.51,491.35Z"/><path class="cls-5" d="M206.55,291.69l-3,1.27c2.74,15.93,9.26,59.2,10.48,75.69,4.34,58.45-10.56,116.46-8.48,122.7a5.89,5.89,0,0,0,2.44,3.27C221.13,439.63,228.16,370.6,206.55,291.69Z"/><path class="cls-5" d="M232.62,342.37c-1.77-15.21-5.44-42.77-12.46-56.38l-4.54,1.9c21.31,68.24,15.16,140.79,3.23,210.56,1.54.38,3.25.79,5.17,1.23,4,.94,8-9.72,10-76.66C234.91,395.51,235.8,369.76,232.62,342.37Z"/><path class="cls-21" d="M208.48,277.48c12.17-2.73,29.18-14.42,31.38-24.57a179,179,0,0,1,6,21.68s-22.61,15-40,19c-18.4,4.21-53.23-1.36-64.54-24.22l4.79-13.09A64,64,0,0,0,208.48,277.48Z"/><path class="cls-5" d="M202.74,283a60.92,60.92,0,0,0,39.66-22.2c-.73-2.47-1.58-5.15-2.54-7.91-2.2,10.15-19.21,21.84-31.38,24.57a64,64,0,0,1-62.38-21.24l-1.72,4.7C157.16,279,181.19,285.72,202.74,283Z"/><path class="cls-5" d="M186.67,290.8c-25-2.17-35-12.93-44.23-24.55l-1.13,3.08c11.31,22.86,46.14,28.43,64.54,24.22,17.43-4,40-19,40-19s-.41-2-1.22-5.37C230.09,282.84,209.22,292.77,186.67,290.8Z"/><path class="cls-31" d="M193,55.81c-.53,8.58,5.92,16.7,13,20.87a18.2,18.2,0,0,0,9,2.86c11.05.16,17.93-12.91,16.09-22.66-1.4-7.41-6.82-13.75-13.59-17.09-9.46-4.67-22.4,4.16-24.26,14.05A16.8,16.8,0,0,0,193,55.81Z"/><path class="cls-21" d="M217.14,50.7c-3.21-6.47-16-11.41-30.52-11.74-13.33-.3-25.4,3.26-30.06,8.89l-2.37-2c5.31-6.42,18.07-10.34,32.5-10,15.8.37,29.45,5.9,33.2,13.45Z"/><path class="cls-28" d="M165.13,116.9a5.43,5.43,0,0,0-.38,2,10.09,10.09,0,0,0,1.41,5,19.37,19.37,0,0,0,5.63,5.74A43.29,43.29,0,0,0,185,136c3.56,1,7.37,2.18,11,1,3.94-1.28,4.55-4.32,4.83-8.23a122.42,122.42,0,0,0,.41-18.06,54.41,54.41,0,0,0-5.35-18.9,15.9,15.9,0,0,0-9.15-8,63.18,63.18,0,0,0-17.22-3.26c-1.64-.12-6.28-.37-6.64,2-.17,1.09,1,2.35,1.52,3.16a18.09,18.09,0,0,1,2.41,4.4,35.54,35.54,0,0,1,1.41,16.31,45.06,45.06,0,0,1-1.91,7.65C166,115.16,165.48,116,165.13,116.9Z"/><path class="cls-32" d="M165.48,93.64c-.57-1.11.43-2.5-.19-3.6-16.42-29.25,8.08-57.5,33.83-49.91,28.82,8.49,17,28.84,17.66,39.06.24,3.48,1.53,6.71,1.52,10.29,0,5-4.45,24.25-10.31,27.47-5.34,2.92-22.94-4.58-27.9-7.68C169.74,102.83,171.31,105.08,165.48,93.64Z"/><path class="cls-33" d="M151.65,64.9C153.25,43.07,166.57,39,166.57,39s3.63-7,21.61-7c18.9,0,35.64,18.55,30.41,36.61-.94-7.47-10.7-12-12.78-9.6-6.38,7.42-9.62,8.45-15.27,13.41C183.33,78.78,182,90,176.32,97.59a11.48,11.48,0,0,1-6.17,4.4C164.76,103.22,150.2,84.7,151.65,64.9Z"/><path class="cls-31" d="M136.71,69.86c-2.8,12.34,2.54,28.52,13.33,30.76s22.39-5.82,22.38-16.72c0-8.29-7.35-15.18-13.13-21C150.92,54.48,139.34,58.26,136.71,69.86Z"/><path class="cls-21" d="M187.62,70.22l-1.73,0c-19.43-.46-34.47-8.35-34.25-18a10.2,10.2,0,0,1,2.55-6.34l2.37,2a7.25,7.25,0,0,0-1.85,4.46c-.18,7.63,14.14,14.42,31.25,14.81s31.73-5.71,31.91-13.35a6.5,6.5,0,0,0-.73-3.07l2.75-1.37a9.66,9.66,0,0,1,1.05,4.52C220.72,63.18,206.23,70.22,187.62,70.22Z"/><path class="cls-21" d="M102.41,316.45c.44,36.49.17,73-.1,109.47-.09,12.41-.18,24.88-2.3,37.11a113.82,113.82,0,0,1-11.94,34.48c-3.08,5.7-6.69,11.26-8.12,17.58-3,13.56,5.47,28.16,18,34.17s27.89,4.25,40.06-2.46a55.64,55.64,0,0,0,22-22.25c7.19-13.39,8.55-29,9.76-44.18,3-37.2,6-74.87-.33-111.65-4.24-24.83-12.65-48.8-16.68-73.66-2.36-14.56-2.26-27.81-4.15-43-1.21-9.8.34-22.14-11.83-26.18-21.89-7.27-30.36,29.07-32.38,42.58C102,284.32,102.21,300.45,102.41,316.45Z"/><path class="cls-26" d="M111.84,326.5c5.84,39.14,13.44,76.53,5.26,116.26-5.84,28.63-25.12,52.59-23.95,81.8,0,9.35,9.93,16.94,19.28,13.44,18.69-7.6,40.31-21.62,41.48-42.07,3.5-63.68,2.92-126.2-9.35-191-1.17-7-.58-12.86-2.34-19.87-4.4-20-5.24-39.52-5.14-59l-.29-.11a15.33,15.33,0,0,0-13.38,1.29C114.23,259.3,106.85,292,111.84,326.5Z"/><path class="cls-34" d="M130.76,141.72c-7.9,11.94-6.85,21.6-8.46,34.7-1.68,13.61-3.73,27.08-5.41,40.69-1.17,9.5-1.32,27.87,5.51,34.57,5.83,5.72,13.63-4.21,16.65-10.6,1.66-3.51,4.23-4.8,4.7-8.66q.66-5.37,1.62-10.67.52-2.94,1.11-5.85c3.72-18.73,8.26-30.73,10.62-41.25s1.57-37.72-12.46-43C140,130,133.55,137.52,130.76,141.72Z"/><path class="cls-34" d="M130.76,141.72c-7.9,11.94-6.85,21.6-8.46,34.7-1.68,13.61-3.73,27.08-5.41,40.69-1.17,9.5-1.32,27.87,5.51,34.57,5.83,5.72,13.63-4.21,16.65-10.6,1.66-3.51,4.23-4.8,4.7-8.66q.66-5.37,1.62-10.67.52-2.94,1.11-5.85c3.72-18.73,8.26-30.73,10.62-41.25s1.57-37.72-12.46-43C140,130,133.55,137.52,130.76,141.72Z"/><path class="cls-5" d="M116.35,224a79.28,79.28,0,0,0,.53,13.42c5.51-7.58,16.68-11.21,25.68-6.71.34.17.82.38,1.33.66.36-2.78.77-5.56,1.25-8.32C137.81,217,123.5,216.79,116.35,224Z"/><path class="cls-29" d="M158.51,306.3c2,2,4.45,3.55,6.08,5.86a27.18,27.18,0,0,1,2.53,5.13,57.11,57.11,0,0,0,5.78,10.4c1.08,1.54,2.3,3.33,1.78,5.14a3.11,3.11,0,0,1-4,2c-1.39-.53-2.16-2-2.89-3.25a42.33,42.33,0,0,0-6.45-8.66c-.33,5.17-.65,10.5,1,15.41,1.17,3.5,3.27,6.6,4.93,9.9a2.36,2.36,0,0,1,.35,1.23c-.19,2.37-3.31.41-4.39,1.48a7.76,7.76,0,0,0-.74,1.25c-1.1,1.57-2.3.2-3.19-.6a8.09,8.09,0,0,0-4.55-2.28,5.49,5.49,0,0,1-1.62-.19,3.45,3.45,0,0,1-1.31-1c-1.24-1.35-1.83-3-2.85-4.43a50.36,50.36,0,0,1-2.66-4.9,47,47,0,0,1-3.34-7.15,65.76,65.76,0,0,1-3.12-11.24c-.62-4-.48-8.11-.83-12.16-.26-3-.8-6.1-.53-9.15s1.47-6.2,4-7.95c3.51-2.44,7.31-1,8.7,2.67C152.93,298.29,155,302.86,158.51,306.3Z"/><path class="cls-30" d="M121.35,229.26c-5.42,3.81-4.92,7.47-3.83,13.2,4.09,21.5,11.64,42.75,20.31,62.75,2.67,6.14,7.1,5.9,9.9,5.12,3.92-1.09,8.53-4.13,6.86-11.32-5-21.6-3.46-45.41-10.56-68.79C142.82,226.22,128.89,224,121.35,229.26Z"/></svg>