<svg id="_Layer_" data-name="&lt;Layer&gt;" xmlns="http://www.w3.org/2000/svg" viewBox="0 0 347.58 648.49"><defs><style>.cls-1{fill:#8bc246;}.cls-2{fill:#0f2d60;}.cls-3{fill:#ccbaa7;}.cls-4{fill:#f3a984;}.cls-5{fill:#ffc7ad;}.cls-6{fill:#fcb645;}.cls-7{fill:#dc373f;}.cls-8{fill:#2a2a34;}.cls-9{fill:#1f1f29;}.cls-10{fill:#ffd975;}.cls-11{fill:#f3e9df;}.cls-12{fill:#1d3f7a;}.cls-13{fill:#e7dacc;}.cls-14{fill:#2f2f3a;}.cls-15{fill:#a82128;}</style></defs><path class="cls-1" d="M342.2,567.2c-3.74-7.36-11.13-12.19-18.66-15.59-17.63-8-37.29-9.92-56.1-14.47C219,525.42,175.78,496.3,126.72,487.69a204.75,204.75,0,0,0-20.5-2.48C92.56,486.45,79,488,65.31,487.71a116.08,116.08,0,0,1-17.37,1.34,48,48,0,0,0-15.56,5.32c-4.5,2.56-8.76,5.88-13.44,8.21C13.54,509.09,6,514.27,4.07,522.9c-.16.72-.3,1.47-.43,2.24A23.81,23.81,0,0,0,4.9,532c4.29,12.48,17.1,19.59,28.87,25.55l57,28.84c31.1,15.75,62.27,31.52,94.76,44.16,26,10.1,54.38,18.24,81.43,11.56,15.78-3.89,29.89-12.56,43.71-21.11,9.76-6,19.76-12.29,26.67-21.46S347.41,577.44,342.2,567.2Z"/><path class="cls-2" d="M123,300.22c-.82,22.88,1.54,45.74-.08,68.6-1.3,18.31-5.14,36.39-7.22,54.65-.8,7-2.06,15.18-8,18.49-6.43,3.61-13.75-1-20.41-3.61-10.8-4.28-22.88-3.24-34.38-4.81-3.24-.45-6.54-1.14-9.26-3-5.12-3.49-7.16-10.3-8.23-16.72C32,393.18,35,371.76,38.69,350.94c4.14-23.18,9.38-46.57,20.31-67.33,5.89-11.19,13.32-21.42,19.52-32.43,7.55-13.41,13.22-27.94,21.29-41,1.45-2.34,3.14-4.78,5.62-5.73a9.93,9.93,0,0,1,5.91,0c7,1.7,12.6-4.19,16.94,1.82,6,8.27,4.88,23.8,2.83,33.64C127,259.8,123.75,279.94,123,300.22Z"/><path class="cls-3" d="M59,283.61c5.89-11.19,13.32-21.42,19.52-32.43,7.55-13.41,13.22-27.94,21.29-41,1.45-2.34,3.14-4.78,5.62-5.73a9.2,9.2,0,0,1,5.2-.15c-4.24,6.33-7.53,12.46-11.42,19-25.33,47-38.55,95.71-48.52,146.47-4.34,20.22,6.1,49.08,28.36,47.67,19.75-1.41,29.11-21.65,28.74-40.52-.67-20.2-1.34-37.89-.68-58.39,1.25-17.85,2.67-33.78,4.51-51.48,2.1-21.92,9-42.16,14.65-62.68a7.05,7.05,0,0,1,2,2c6,8.27,4.88,23.8,2.83,33.64-4.14,19.89-7.36,40-8.09,60.31-.82,22.88,1.54,45.74-.08,68.6-1.3,18.31-5.14,36.39-7.22,54.65-.8,7-2.06,15.18-8,18.49-6.43,3.61-13.75-1-20.41-3.61-10.8-4.28-22.88-3.24-34.38-4.81-3.24-.45-6.54-1.14-9.26-3-5.12-3.49-7.16-10.3-8.23-16.72C32,393.18,35,371.76,38.69,350.94,42.83,327.76,48.07,304.37,59,283.61Z"/><path class="cls-4" d="M82.09,310.4c1.45,6.72,6.7,13.09,11.61,17.25a7.87,7.87,0,0,0,3.53,1.8,3,3,0,0,0,2.42-.23,2.32,2.32,0,0,0,.66-2.49,7.06,7.06,0,0,0-1.43-2.33,15.14,15.14,0,0,1-1.56-3s4.72,4,6.16,1.76c1.35-2.86-.88-5.75-1.73-8.47a1.45,1.45,0,0,1,1.44-.31,4.17,4.17,0,0,0,1.52.2,1.76,1.76,0,0,0,1.26-1.15c.73-1.9-.9-3.6-1.92-5a4.53,4.53,0,0,1-.88-1.9c-.23-1.48.71-2.87,1.57-4.1,1.39-2,2.48-3,3.31-5.26a29.29,29.29,0,0,0,1.63-8.13c.09-2.58,1.2-8.62-.47-10.39-1.88-2-6.72-1.92-9.16-2.36s-5.18-.41-7,1.23a10,10,0,0,0-2.22,3.6q-2.68,6.27-5.38,12.54c-1.59,3.71-3.2,7.49-3.66,11.5A16.11,16.11,0,0,0,82.09,310.4Z"/><path class="cls-5" d="M91.25,314.49c-.51,3.86-1.68,7.63-1.93,11.51a7,7,0,0,0,.3,2.95,2.86,2.86,0,0,0,2.13,1.87,3.05,3.05,0,0,0,2.89-1.74,11.55,11.55,0,0,0,.94-3.44c1.55-8.43,7-15.86,8-24.37.21-1.77.18-3.78-1-5.2s-2.31-2.52-4.24-2.78a7.26,7.26,0,0,0-5.21,1.44,10,10,0,0,0-3.24,4.41,7.73,7.73,0,0,0-.38,4.53c.3,1.53,1.37,2.8,1.67,4.34A20.71,20.71,0,0,1,91.25,314.49Z"/><path class="cls-2" d="M131.64,136.31c-6.31,9.37-9.84,20.49-12.46,31.63s-9.56,33.13-12.86,44.07c-1.62,5.37.67,17.24,3.87,21.69,2.72,3.76,7.08,4.49,11.27,3.41,5.12-1.32,7.73-4.57,10.67-9.05,6.06-9.23,9.66-19.94,13.18-30.43q6.38-19,12.74-38c4.1-12.25,9.18-27.13-3.11-35.72C145.88,117.53,136.63,128.9,131.64,136.31Z"/><path class="cls-6" d="M121.54,257.53c-7.92,20.91-8.4,22.32-11.5,27-1.44,2.19-15,.35-18.79-3.83-1.61-1.76,9.18-53.31,16.79-68a11.66,11.66,0,0,1,3.19-4.28c2.23-1.62,5.29-1.54,8-.82a15.1,15.1,0,0,1,4.66,2.11,15.79,15.79,0,0,1,5.73,8.84c1.9,7,.24,12.55-1.66,19.26S124,251.06,121.54,257.53Z"/><path class="cls-7" d="M224.71,134a68.81,68.81,0,0,1,10.83,13.55A84.84,84.84,0,0,1,243,163.88c4.15,12,6.23,24.66,7.91,37.17,3.76,27.85,5.17,56.09,1.74,84.05-.94,7.71-2.16,15.39-3.83,23-.84,3.81-1.81,7.59-2.88,11.35-1.18,4.18-2.12,8.6-4.83,12.05s-8.7,1.33-9.66-2.55l-.23-.92a5.27,5.27,0,0,1,.38-3.71c.53-2.39,1.54-4.76,2.23-7.06q1.44-4.8,2.64-9.67c1.6-6.49,3-13,4-19.62a266.68,266.68,0,0,0,3.14-39.1A389.27,389.27,0,0,0,242,209c-1.1-12.16-2.29-24.43-4.88-36.37-.79-3.64-1.72-7.22-2.76-10.78-.86-3-.73-6.21-2.51-8.95a15.27,15.27,0,0,0-4.05-3.88c-7.39-5.23-16.25-7.85-24.7-11.1s-17-7.52-22.23-14.89c-.82-1.16-1.58-2.61-1.09-4a3.84,3.84,0,0,1,1.91-1.9c2.92-1.53,6.42-1.31,9.67-.76C203.87,118.61,215.55,125.1,224.71,134Z"/><path class="cls-2" d="M300.53,317.66c4.67,22.43,12.42,44.06,16.3,66.65,3.1,18.09,3.69,36.56,6,54.79.9,7,1.63,15.23-3.32,19.86-5.38,5-13.59,2.33-20.68,1.36-11.51-1.57-23,2.31-34.54,3.53-3.25.34-6.62.46-9.71-.69-5.8-2.17-9.41-8.31-12-14.28-8.28-19.22-10.53-40.72-11.88-61.84-1.5-23.5-2-47.46,3.66-70.23,3-12.27,7.83-24,11.22-36.14,4.13-14.83,6.17-30.29,10.89-44.91.85-2.63,1.91-5.39,4.09-6.91a9.9,9.9,0,0,1,5.74-1.4c7.23,0,11.23-7.07,16.89-2.28,7.79,6.61,10.41,22,10.77,32C294.73,277.47,296.4,297.81,300.53,317.66Z"/><path class="cls-3" d="M234.4,316.81c3-12.27,7.83-24,11.22-36.14,4.13-14.83,6.17-30.29,10.89-44.91.85-2.63,1.91-5.39,4.09-6.91a9.24,9.24,0,0,1,5-1.39c-2.61,7.16-4.34,13.9-6.57,21.15-13.37,51.67-14.59,102.14-12.16,153.81.61,20.67,17.64,46.21,38.91,39.52,18.85-6.08,23.11-28,18.24-46.2-5.47-19.46-10.33-36.48-14.59-56.55-3-17.63-5.47-33.43-7.9-51.07-3.19-21.78-1.27-43.1-.74-64.36a7.26,7.26,0,0,1,2.43,1.41c7.79,6.61,10.41,22,10.77,32,.73,20.3,2.4,40.64,6.53,60.49,4.67,22.43,12.42,44.06,16.3,66.65,3.1,18.09,3.69,36.56,6,54.79.9,7,1.63,15.23-3.32,19.86-5.38,5-13.59,2.33-20.68,1.36-11.51-1.57-23,2.31-34.54,3.53-3.25.34-6.62.46-9.71-.69-5.8-2.17-9.41-8.31-12-14.28-8.28-19.22-10.53-40.72-11.88-61.84C229.24,363.54,228.74,339.58,234.4,316.81Z"/><path class="cls-2" d="M154.63,318.67c23.32,5.16,42.81,21,59.28,38.3,13.08,13.73,25.14,29.14,30.69,47.27,1.37,4.49,2.34,9.21,1.72,13.87-.66,4.91-3,9.42-5.68,13.61-3,4.79-6.83,9.59-12.24,11.25-3.9,1.19-8.09.59-12.11,0q-25.31-4-50.43-9c-13.71-2.75-27.59-5.82-39.83-12.58s-22.88-18.2-24-32.07c-.42-5.18.51-10.36,1.63-15.43,1.74-7.84,4-15.66,7.92-22.66,10.07-17.88,29.82-28.11,49.49-33.94Z"/><path class="cls-7" d="M148,517.26c2,.66,7.67,2,10,1.39,5.88-1.49,5.36-15.84,7.5-33.44,1.95-16,6.66-31.93,5.76-48.21-.84-15.16-8.64-43.31-17.81-55.26-2.56-3.35-4.48,8.09-8.17,6.06-11.73-6.43-22-14.38-23.37-6.94-5,28.09,8.18,55.64,10.08,69.48,2.31,16.84,5.66,48.78,5.64,52.53,0,1.92-.59,3.71,0,5.57C139,512.57,143.85,515.85,148,517.26Z"/><path class="cls-7" d="M191.67,415.89c-3.27.8-5.38,1.81-4.29,6.28s3.38,8.38,5,12.6a260.81,260.81,0,0,1,10.41,35.59q2,9.24,3.29,18.61c.78,5.63,0,10.67,4.45,14.7s9.28,8.2,15.21,9.08c3.79.57,10.4.19,13.9-1.48,3.07-1.48,2.33-6.27,2.69-9.41.7-6.25-.25-12.89-.84-19.18a200.89,200.89,0,0,0-2.9-20c-2.65-13.46-5.1-27.05-9.46-40.09-.91-2.7-1.73-6.9-3.52-9.14-2.07-2.59-5.5-1.75-8.87-1.62a101.23,101.23,0,0,0-21.61,3.24C193.87,415.4,192.71,415.63,191.67,415.89Z"/><path class="cls-7" d="M121.84,322.83c-6.36,38.79-.25,51.69-2.4,61.74-3.39,15.9,3.1,26.93,12.52,34.39,6,4.72,8.11,2.07,10.73,1.14,2.07-.74,4.35-.73,6.44-1.6,10.48-4.35,11-14.42,14-27,5.07-21.31,9.88-42.75,15.23-64a84,84,0,0,0,2.32-12.78c.65-7.06.7-14.31-.87-21.27-1.19-5.28-2.23-12.28-7.45-15.25-2.51-1.43-5.54-1.49-8.43-1.52-8-.07-28.39-9.26-28.65-8.3C131.25,283.07,124.32,307.69,121.84,322.83Z"/><path class="cls-7" d="M225.06,267.73c-16.2,2.93-35.44,2.9-51.8,1.08-2.6-.28-5.57-.52-7.49,1.26-1.58,1.46-1.88,3.8-2.1,5.94-1,10.33-2,21,1.08,30.91,2.45,7.82,7.29,14.65,10.41,22.23,5.07,12.29,6,52.49,6.92,59.22.71,5.05,2.81,26.92,5.47,34.4,2.31,6.51,8.49,16.31,14.35,20s14.24,3.84,19.18-1c6.26-6.13,14.06-83.52,14.52-95.22.51-12.65.91-24.2-3.3-39.85C229.25,295.39,225.14,270.38,225.06,267.73Z"/><path class="cls-8" d="M209.31,530.81c.05,2,0,4-.08,6.06-.7,13-5.15,25.57-11.18,37.1-2.84,5.44-9.46,14.94-5.28,21.16,2.15,3.2,6.48,3.94,10.32,4.25,12.48,1,25.68-2.49,31-14.93,2.13-4.94,1.94-10,3.62-15,2.07-6.21,3.82-12.63,3.82-19.22,0-5.64-1.28-11.21-1.16-16.85A142,142,0,0,1,242,517.86c2.26-16.68,7.15-33.38,4.86-50.06-.29-2.14-.86-4.51-2.68-5.67a7.67,7.67,0,0,0-4.1-.86c-12.69-.12-25.16,3-37.46,6.07-2,.49-4.08,1.07-5.35,2.66-1.85,2.31-1.13,5.68-.29,8.51C202.08,495.73,208.79,513,209.31,530.81Z"/><path class="cls-8" d="M174.59,514.15c.31,4.88-.93,12.39-4.49,16.06-4.1,4.23-10.94,2.14-16.1,3.23-12.91,2.72-30.18,30.6-51,19.55-7.54-4-9.52-10.87-7.14-15.61,1.4-2.79,4.19-4.57,6.84-6.22,11.42-7.07,32.71-19.32,33.93-21.9.77-1.64-1.06-15.34-1.49-17.94-3.7-22.66-6.08-25.87-5.05-30.58.6-2.71,2.13-4.75,2.55-7.61.18-1.24-.17-2.61.24-3.83,1.53-4.54,22.23-7.71,34.1-3.26,10.32,3.87,8.17,6.38,6.55,13C166.4,487.9,174,504.48,174.59,514.15Z"/><path class="cls-9" d="M246.87,498.45c-3.12,5.5-19.92,12.45-41.4,11.26a3.15,3.15,0,0,1-3.22-2c-8.53-14.5-10.89-34.39-7.53-37.95s36.14-7.81,42.56-8.4c10.74-1,9.92,3.86,10.81,10.12C249.51,481.57,248.86,494.93,246.87,498.45Z"/><path class="cls-9" d="M176.81,467.46a10.82,10.82,0,0,1-1.65,4c-1.27,1.67-3.38,2.68-5.49,3.49-11.24,4.31-24.31,4.38-36.7,2.31a4.7,4.7,0,0,1-1.75-.53A3.86,3.86,0,0,1,130,475a57.62,57.62,0,0,1-5.71-31.73c.19-1.62.52-3.37,1.86-4.44a8.64,8.64,0,0,1,4.45-1.35,271.5,271.5,0,0,1,38.62-1.67c2.64.07,6.48.44,8.33,2.5s1.33,5.8,1.44,8.14A70.9,70.9,0,0,1,176.81,467.46Z"/><path class="cls-6" d="M187.78,121.17c-2.38-.61-4.77-1.17-7.18-1.66a42.49,42.49,0,0,0-11.66-1.17c-10.92.79-20.24,8.92-25.34,18.61s-6.71,20.78-8,31.66c-1.83,15.9-.58,30.83,1.78,46.58,2.6,17.3.85,34.59-3.11,51.52-6.54,13.07-9.27,31.05-14.29,45.14-7,19.71-13.61,43.13-1.58,60.26,6.69,9.53,18,14.85,29.28,17.65,1.42.36,2.88.79,4.29,1.1s2.15-.74,2.58-1.92c1.13-3.15.19-6.83,1.61-9.87a2.52,2.52,0,0,1,2.18,1.72,9.73,9.73,0,0,1,.45,2.91,18.09,18.09,0,0,0,2.33,7.46c1,1.68,2.1,1.48,3.81,1.73l5.81.85c3.81.58,7.6,1.22,11.36,2.05,7.84,1.75,15.51,4.38,23.5,5.27a55.6,55.6,0,0,0,41.93-13c2.16-1.85,4.23-4,5.18-6.66a18.93,18.93,0,0,0,.71-6.76c-.54-27.12-3.07-56.29-11.19-82.32-6.81-21.88-17.42-41.72-10.86-65.87,3.89-14.31,10.12-28.06,15.6-41.93,1.78-4.5,6.23-11.23,6.08-16.14a20.58,20.58,0,0,0-4.33-11.3c-6.48-8.12-17.64-15.86-26.42-21.39A122,122,0,0,0,187.78,121.17Z"/><path class="cls-10" d="M155.57,195.76c3.7,1,4.56,2.47,13.56,3.44,6.83.74,10.43.56,12.25,1.06,2,.55,1.4,2.5-.27,2.89-2.93.71-9.26.18-13.73-.26-4.29-.42-9.89-1.74-13.25-4.65C153,197.24,154.21,195.39,155.57,195.76Z"/><path class="cls-10" d="M149.31,256c3.69,1,4.55,2.46,13.56,3.43,6.82.74,10.43.56,12.24,1.07,2,.54,1.41,2.49-.26,2.89-2.94.7-9.26.17-13.73-.27-4.3-.42-9.9-1.74-13.26-4.65C146.71,257.46,147.94,255.61,149.31,256Z"/><path class="cls-10" d="M152.66,226.48c3.7,1,4.56,2.47,13.56,3.44,6.82.73,10.43.56,12.25,1.06,2,.55,1.4,2.49-.27,2.89-2.93.7-9.26.18-13.73-.26-4.3-.42-9.9-1.75-13.25-4.65C150.07,228,151.3,226.11,152.66,226.48Z"/><path class="cls-10" d="M159.44,166.61c3.7,1,4.56,2.47,13.56,3.44,6.82.73,10.43.56,12.24,1.06,2,.55,1.41,2.49-.26,2.89-2.93.7-9.26.18-13.73-.26-4.3-.42-9.9-1.75-13.25-4.65C156.85,168.09,158.08,166.24,159.44,166.61Z"/><path class="cls-4" d="M208.44,137.65c-1.19,12.13-18.87,23.12-31.18,19.69-3.47-1-6.66-3.45-7.73-6.88S168,140.05,167,125.08c-.3-4.35,1.5-6.84,2.23-11.19,1.18-7.12,5.4-12.38,11.09-17.32a18.73,18.73,0,0,1,6.41-3.71,36.48,36.48,0,0,1,10.58-2c2.5,0,6-.06,7.84,2,1,1.19.94,2.3.66,3.7C201,120.6,209.26,129.31,208.44,137.65Z"/><path class="cls-11" d="M194.69,126.42l-15.35,17c-.8-5-1.62-10.13-3.72-14.77-1.26-2.78-5-9.47-8.65-9.68-4.4-.26-2.8,8.32-2.24,10.69,1.61,6.85,3.46,13.72,6.81,19.9a34.78,34.78,0,0,0,9.39,11.24,19.56,19.56,0,0,0,6.63,3.6c2.45.59,3.07-.75,4.7-2.37,7.06-7,12.2-15.53,13.83-25.48.56-3.42,3.35-13.25.34-15.78C202.42,117.39,197,123.84,194.69,126.42Z"/><path class="cls-6" d="M194.66,130.89c-1.17,1.42-2.36,2.83-3.46,4.29a199.27,199.27,0,0,1-14,16.59c.91-1-1.56-8.08-1.93-9.36a47,47,0,0,0-3.36-8.42c-2.91-5.72-5.7-11.11-10-16a219.31,219.31,0,0,0-1.07,22.78c.09,8.76,1.42,18.53,8.24,24s16.57,4.71,24.76,1.93a30.09,30.09,0,0,0,9.74-5.07c5-4.21,7.69-10.72,8.53-17.22,1-7.82-.76-15.62.31-23.4a10.41,10.41,0,0,0,.11-3.77,4.59,4.59,0,0,0-5.62-3.21c-1.65.54-2.8,2-3.79,3.43-2.17,3.14-3.54,7-5.78,10C196.51,128.65,195.59,129.77,194.66,130.89Z"/><path class="cls-12" d="M97.45,394.72c5-38.44,16.52-82.67,27.49-120.74,2.61-9.08,6.38-16.15,7.48-25.81,2.9-25.67-9.7-78.8,5.18-111.22,3.09-6.75,12.14-19.83,21.25-18.41a5.77,5.77,0,0,1,1.69.53,68.71,68.71,0,0,0-6.07,12.81c-10.94,42.55-6.69,85.11-9.73,128.28-3,43.77-6.08,85.72-14,130.1a109.13,109.13,0,0,1-10.34,30.23c-2.72-1.34-5.68-2.93-9.06-4.76C104,411.72,96.26,403.78,97.45,394.72Z"/><path class="cls-13" d="M100.27,376.27c1.13,4.4,2.19,8.85,3.13,13.39,1.22,3.64,2.43,7.9,4.87,9.12,3.64,1.21,8.51-2.44,9.72-5.48,14-45.59,15.2-91.8,19.46-138.61,3-29.19-1.22-57.76,1.21-86.94a231.2,231.2,0,0,1,7.19-42.94c3.81-4,8.39-7,13-6.27a5.77,5.77,0,0,1,1.69.53,68.71,68.71,0,0,0-6.07,12.81c-10.94,42.55-3.91,87.1-6.95,130.26-3,43.78-6.38,86.59-14.29,131-2,10.8-10.34,29-14.16,28.57-11-1.19-24.18-12.21-21.62-27C98.49,388.74,99.19,382.53,100.27,376.27Z"/><path class="cls-7" d="M146.35,135.19c1.82-7.7,4.44-16.52,9.11-23,1.95-2.69,5-5.25,8.48-5.52a6.11,6.11,0,0,1,6.44,4.79,2,2,0,0,1-2.93,2.25l.43-.42-1,.81c-.39.27-.84.48-1.22.78a11.86,11.86,0,0,0-2.26,2.38c-1.86,2.57-2.95,6.07-4,9a98.48,98.48,0,0,0-4.28,19.27c-1.76,13.57-1.17,27.45-.07,41.05a332.75,332.75,0,0,0,17.36,81.79c2.59,7.45,5.39,14.79,8.3,22.11,1.5,3.75,2.63,7.57,4.26,11.28s3.48,6.89,3.66,10.86c.11,2.54-2.87,3.16-4.53,1.87-3.13-2.44-4.68-6.23-6.5-9.69s-4-7-5.73-10.59c-3.35-7-6.26-14.26-8.89-21.53a322.84,322.84,0,0,1-12.71-45,340.42,340.42,0,0,1-6.21-46.63C143.09,165.9,142.82,150.14,146.35,135.19Z"/><path class="cls-5" d="M158.14,62.55a37,37,0,0,0-4.62,10,35.52,35.52,0,0,0-1.4,8.8c-.09,3.18,1.61,5.81,1.85,8.94.15,2-1.06,4-1.57,6-1.26,4.8-1.14,9.47-.81,14.35a52.8,52.8,0,0,0,1.83,12.22c.62,2,1.4,4.57,2.83,6.16s4.94,1.92,7.05,1.71a45.64,45.64,0,0,0,13.11-3.57c2-.84,3.91-1.78,5.84-2.65a40.49,40.49,0,0,0,5.72-3.11,25.87,25.87,0,0,0,2.89-2.23,17.23,17.23,0,0,0,5-7.57c.32-1,.27-2.43,1.21-3.1,1.15-.8,2.67,0,3.79-.66a7.43,7.43,0,0,0,1.36-2c.43-.67,1.21-3.89,2.13-3.92a8.26,8.26,0,0,0,2.91-1.31c1.49-.83,1.89,2.65,2.49,1.06,2.54-6.78,5.63-13.66,5.93-21,.27-6.73.89-12.47-3-18.52A29,29,0,0,0,200.63,51.8a36,36,0,0,0-24.08-2.39,29.53,29.53,0,0,0-14.14,7.85A35.57,35.57,0,0,0,158.14,62.55Z"/><path class="cls-14" d="M185.12,77.53c3,2.4,4,6.87,4.87,10.45,1.77,7.31-1.6,16.29,2.65,17.55,4,1.18,6.51-6.62,11-7.13a3.21,3.21,0,0,1,3.18,1.33c.86,1.39.43,3.22-.16,4.62a15.92,15.92,0,0,1-1.9,3.23,5.67,5.67,0,0,0-.63.78,2.28,2.28,0,0,0,0,.94l0,2.28c0,.56,1.55-.07,1.85-.16a9.16,9.16,0,0,0,2-.86c4-2.4,14.22-11.61,15.1-31.51.9-20.24-11.89-24.88-11.89-24.88a30.53,30.53,0,0,0-24.09-11.9C173.6,42,159.35,47,153.4,59.88c-4.89,10.57-1.49,17.6-1.49,17.6s.24-3.58,2.79-4.64c3.33-1.39,6.83-.64,10.21.09a97.34,97.34,0,0,0,11.88,2,18.5,18.5,0,0,1,7.34,1.88A8.59,8.59,0,0,1,185.12,77.53Z"/><path class="cls-12" d="M195.79,77.32c-12.08-2.76-23.75,1.8-39-8.19-3.32-2.17-3.83-3.83-3-7,6.81-25.15,43.59-32.85,59.64-15.26,14.77,16.19,11.88,26,9.51,36.59a20.4,20.4,0,0,1-2.18,6.36c-.71,1.15-2.29,3.09-3.75,3.29-2.13.29-2.52-1.31-3.39-3.07C210.27,83.17,203.09,79,195.79,77.32Z"/><path class="cls-7" d="M224.45,94.39a40.93,40.93,0,0,1-3.93,6,38.07,38.07,0,0,1-7,6.42A15.68,15.68,0,0,0,210,100a31.22,31.22,0,0,0-5.74-5.14,92.9,92.9,0,0,0-22.59-12.4c-4-1.49-8.11-2.26-12.19-3.44-4.25-1.23-8.15-3-12.58-3.75a10.4,10.4,0,0,0-4.71,0,2.12,2.12,0,0,1-1.39.16,1.64,1.64,0,0,1-.77-1c-1.3-3.09-1.37-6.79-1.3-10.09.09-3.84,1.07-7.47,1-11.28a1.65,1.65,0,0,1,.17-.91,1.39,1.39,0,0,1,1-.45A13.72,13.72,0,0,1,157.21,53c17.49,6.72,34.15,15.55,51.91,21.5,5.94,2,12.43,4,16.09,9a7.41,7.41,0,0,1,1.63,4.8,9,9,0,0,1-.81,2.75C225.56,92.23,225,93.33,224.45,94.39Z"/><path class="cls-14" d="M191.22,112.93a13.73,13.73,0,0,1-.06-2,9.56,9.56,0,0,1,1.83-5.48c.8-1,1.85-1.82,2.57-2.89a5.86,5.86,0,0,0,.93-3.71c-.16-1.89-.76-1.42-2.25-1.86a7.48,7.48,0,0,0-3.76-.38c-1.53,6.44-3.32,11.49-7.43,17-3.75,5-11.05,9.44-14.42,5.23-3.84-4.78-6.77-6.42-13.16-6.8-2.65-.16-3.25-2.71-4.07-5-2.37,9.61-7.08,19.31-.56,28.58a6,6,0,0,0,4.67,2.85c6.31,1.08,12.67-1.08,18.71-3.21a42.47,42.47,0,0,0,9.28-4.14,21.39,21.39,0,0,0,6.9-7.47C192.33,120.11,191.57,116.8,191.22,112.93Z"/><path class="cls-5" d="M205.62,95.46c5.27.67,5.32,7.39.77,11.68a26.7,26.7,0,0,1-5,3.08c-10.89,6.11-11.55-3-8.05-5.07C201.44,100.22,199,94.61,205.62,95.46Z"/><path class="cls-4" d="M200.05,107.6c.71-.43,7.36-2.78,3.77-6a1.83,1.83,0,0,0-2.84,1c-.21.6-.14,1.27-.36,1.87a2.74,2.74,0,0,1-.6.94c-.7.76-2.67,1.23-2.56,2.56C197.55,109.19,199.65,107.85,200.05,107.6Z"/><path class="cls-5" d="M161.83,118.71a1.22,1.22,0,0,1,.52.87c0,.42-.39.73-.77.91a5.36,5.36,0,0,1-3.64.21,11.8,11.8,0,0,1-3.34-1.64,5.07,5.07,0,0,1-1.84-1.78,1.16,1.16,0,0,1-.06-1.14,1.41,1.41,0,0,1,1.28-.37,11,11,0,0,1,4.27.64A13.94,13.94,0,0,1,161.83,118.71Z"/><path class="cls-12" d="M221.5,140.88c5-7.41,6.77-5,13.85,0,8.86,6.31,22.59,21.57,22.87,32.5.13,4.91-3.59,11.63-5.08,16.14-19.37,58.6-20.21,63.7-5.4,120.5,6.48,24.83,6,38.33,12.78,62.79,5.56,20.18,5.5,37.33,4.3,58.18-1,17.64-25.33,20.92-40.43,20.58a82.36,82.36,0,0,1-15.87-2c-3.09-.69-16.21-2.58-17.1-5.66-7.7-26.73-11.4-55.26-12.39-83.06-1.61-45.57-3.22-71,18.89-156.9C204.33,179,206.91,162.56,221.5,140.88Z"/><path class="cls-13" d="M197.92,203.93c6.41-24.91,9.2-43.29,23.79-65,4.17-6.2,14.5-1.59,11.55,3.32-5.85,9.74-18.19,29.09-25.46,55.32-4.22,15.24-17.3,105.06-17.92,132.88-.71,31.92,4.89,81.06,7.78,87.54,5.36,12,17.9,17.08,30.72,16.5,12.58-.57,25.32-6.4,36.85-11.64-.11,2.64-.45,5.33-.41,8.09.41,29.19-55.52,22-63.43,19.69-15.86-4.6-14.7-15-16.5-34.61-1-10.73-4.56-18.59-5.86-55.23C177.42,315.26,175.81,289.86,197.92,203.93Z"/><path class="cls-15" d="M266.6,364.86c.21,7.26-.16,14.75-3.14,21.37C259.24,395.58,250,402.16,240,404.5s-20.62.78-30.16-3c-4.83-1.91-9.53-4.43-13.12-8.18-4.1-4.29-6.5-9.9-8.52-15.49a171.48,171.48,0,0,1-10.17-62.3c.06-2.33.19-4.78,1.39-6.78,1.92-3.19,5.91-4.34,9.54-5.13,13.83-3,27.91-4.61,42-6.22C262.69,293.79,265.92,341.35,266.6,364.86Z"/><path class="cls-7" d="M267.58,336.17c1.09,5.63,1.72,11.67-.56,16.93-2.15,4.94-6.58,8.51-11.22,11.23-16,9.36-35.41,10.72-53.89,9.54-5.7-.36-11.94-1.21-15.75-5.47a21,21,0,0,1-3.67-6.81,114.38,114.38,0,0,1-7-48.51,14.5,14.5,0,0,1,1.6-6.51c1.85-3.08,5.53-4.45,8.93-5.6,10.89-3.68,21.95-7.32,33.42-8.08,11.13-.73,24.79,1.75,33.92,8.71C262.23,308.34,265.58,325.93,267.58,336.17Z"/><path class="cls-12" d="M281.77,252.44a13,13,0,0,0,4.06-2.28c5.18-4.31,3.9-10.23,2.92-16q-1.32-7.84-3.15-15.61A192.84,192.84,0,0,0,273,181c-5.33-11.43-12.27-22.65-22.12-30.74a13.17,13.17,0,0,0-10.27-2.42,13.43,13.43,0,0,0-8.58,5.67,23.59,23.59,0,0,0-3.74,9.78,37.94,37.94,0,0,0,2.2,20.38c2.1,5.23,5.48,9.57,8.28,14.39,2.59,4.47,4.35,9.73,6.56,14.48,2.95,6.35,5.62,12.83,8.33,19.29,1.41,3.37,2.81,6.74,4.25,10.1a12.5,12.5,0,0,0,2.17,4,21,21,0,0,0,3.82,3.08,25,25,0,0,0,10.88,4.16A16.52,16.52,0,0,0,281.77,252.44Z"/><path class="cls-5" d="M201.51,320.74a17.17,17.17,0,0,1-3.32.91,6.06,6.06,0,0,0-2.92.92,4.59,4.59,0,0,0-1.88,2.63,3.17,3.17,0,0,0,2.39,3.69c.88.16,2.56,2.07,3.31,2.62a18.88,18.88,0,0,0,3.8,2.43,15.25,15.25,0,0,0,4.23.55c2.36.21,4.83.9,6.88-.21a25.76,25.76,0,0,0,5.56-3.6c7-6.82,13.81-11.32,18.3-22.33,1.81-4.45,3.48-9.83-2-12.89a14.65,14.65,0,0,0-4.18-1.47,6.8,6.8,0,0,0-3.82,0c-1.63.64-2.4,2.27-3.48,3.54a15.44,15.44,0,0,1-5.15,3.55,35.39,35.39,0,0,0-5.6,3,9.34,9.34,0,0,0-2.38,2.52A12.15,12.15,0,0,1,210,309a16.49,16.49,0,0,0-3.57,5.28c-.66,1.63-1.08,3.4-2.27,4.73A7,7,0,0,1,201.51,320.74Z"/><path class="cls-5" d="M228.9,305.72a8,8,0,0,0,.78-2.38,6,6,0,0,0-2.94-6.2,8.25,8.25,0,0,0-5-.35c-5.91,1-10.62,4.14-17.11,7.91a54.19,54.19,0,0,0-5.77,3.86,14.67,14.67,0,0,0-3.06,2.93,5.88,5.88,0,0,0-1.21,4,2.55,2.55,0,0,0,2,2.45,3.47,3.47,0,0,0,2.51-.68c1.47-1,2.09-2.61,3.41-3.73a10.48,10.48,0,0,1,4.76-2.18c5-1,10.17.76,15.16-.73A10.52,10.52,0,0,0,228.9,305.72Z"/><path class="cls-6" d="M224.2,295c-2.58,3.92,11.43,20.17,17.28,13.88,4.53-4.86,47-50.34,48.1-66.35.36-5-.64-9-8.83-14.84a15.09,15.09,0,0,0-14.92-1.05c-3.21,1.6-7.48,6.79-8.64,10C249.46,258.36,236.87,275.74,224.2,295Z"/><path class="cls-8" d="M259.88,367.38a12.44,12.44,0,0,1-.29,4.39,4.9,4.9,0,0,1-2.76,3.25,2.82,2.82,0,0,1-2.44-.14A4.28,4.28,0,0,1,253,373c-3.7-7.18-6.38-15.07-6.36-23.15a7.93,7.93,0,0,1,.66-3.68,4.53,4.53,0,0,1,4.08-2.36c4.52.19,5.18,5.54,6,8.86A84.29,84.29,0,0,1,259.88,367.38Z"/><path class="cls-8" d="M214.75,377.38a12.44,12.44,0,0,1-.29,4.39A4.93,4.93,0,0,1,211.7,385a2.84,2.84,0,0,1-2.45-.14,4.46,4.46,0,0,1-1.44-1.84c-3.7-7.19-6.37-15.08-6.36-23.16a7.94,7.94,0,0,1,.67-3.68,4.49,4.49,0,0,1,4.08-2.35c4.52.18,5.17,5.53,6,8.86A84,84,0,0,1,214.75,377.38Z"/></svg>