<svg id="_Layer_" data-name="&lt;Layer&gt;" xmlns="http://www.w3.org/2000/svg" viewBox="0 0 782.39 845.69"><defs><style>.cls-1{isolation:isolate;}.cls-2{fill:#8b411d;}.cls-3{fill:#652f0b;}.cls-4{fill:#ac5221;}.cls-5{fill:#521e08;}.cls-6{fill:#e59b24;}.cls-7{fill:#fcb645;}.cls-8{fill:#ffd975;}.cls-9{fill:#a82128;}.cls-10{fill:#1d3f7a;}.cls-11{fill:#1f1f29;}.cls-12{fill:#2f2f3a;}.cls-13{fill:#0f2d60;}.cls-14{fill:#f3e9df;}.cls-15{fill:#2a2a34;}.cls-16{fill:#dc373f;}.cls-17{fill:#f3a984;}.cls-18{fill:#ffc7ad;}.cls-19{fill:#ccbaa7;}.cls-20{fill:#e7dacc;}.cls-21{fill:#ffbfa2;}.cls-22{fill:#d6af75;}.cls-23{fill:#ffceb8;}</style></defs><g class="cls-1"><polygon class="cls-2" points="16.94 528.01 17.02 556.46 230.52 680.53 230.44 652.08 16.94 528.01"/><polygon class="cls-3" points="230.44 652.08 230.52 680.53 506.2 521.48 506.13 493.03 230.44 652.08"/><polygon class="cls-4" points="16.94 528.01 230.44 652.08 506.13 493.03 292.63 368.96 16.94 528.01"/></g><g class="cls-1"><polygon class="cls-5" points="122.83 339.92 123.39 491.67 141.07 501.94 140.5 350.19 122.83 339.92"/><polygon class="cls-3" points="140.5 350.19 141.07 501.94 293.25 414.07 292.69 262.33 140.5 350.19"/><polygon class="cls-4" points="122.83 339.92 140.5 350.19 292.69 262.33 275.01 252.06 122.83 339.92"/></g><g class="cls-1"><polygon class="cls-6" points="122.83 314.38 123.39 328.32 141.07 338.59 140.5 324.65 122.83 314.38"/><polygon class="cls-7" points="140.5 324.65 141.07 338.59 293.25 250.72 292.69 236.79 140.5 324.65"/><polygon class="cls-8" points="122.83 314.38 140.5 324.65 292.69 236.79 275.01 226.52 122.83 314.38"/></g><g class="cls-1"><polygon class="cls-5" points="143.55 348.1 143.6 368.79 298.9 459.05 298.85 438.35 143.55 348.1"/><polygon class="cls-3" points="298.85 438.35 298.9 459.05 442.74 375.91 442.68 355.21 298.85 438.35"/><polygon class="cls-3" points="143.55 348.1 298.85 438.35 442.68 355.21 287.38 264.96 143.55 348.1"/></g><g class="cls-1"><polygon class="cls-4" points="314.1 84.92 331.99 74.53 287.05 22.74 269.16 33.14 314.1 84.92"/><polygon class="cls-4" points="379.37 120.46 397.26 110.07 365.33 25.09 347.44 35.48 379.37 120.46"/><polygon class="cls-4" points="425.48 123.39 443.37 112.99 397.26 110.07 379.37 120.46 425.48 123.39"/><polygon class="cls-3" points="424.79 365.61 442.68 355.21 443.37 112.99 425.48 123.39 424.79 365.61"/><polygon class="cls-7" points="347.44 35.48 314.1 84.92 269.16 33.14 268.47 275.36 424.79 365.61 425.48 123.39 379.37 120.46 347.44 35.48"/><polygon class="cls-2" points="416.69 131.61 373.15 128.85 345.21 54.46 314.97 99.3 277.86 56.53 277.25 270.31 416.07 350.45 416.69 131.61"/></g><path class="cls-9" d="M403.24,243.51A129.8,129.8,0,0,1,411,263.06c11.45,38.08,1.95,77.08-15.08,111.88-5.6,11.44-10.06,26-21.72,32.36-27,14.76-58.55,27.35-84.43,102-3.81,11-9.52,23-7.5,34.69,2.57,14.91,3.82,23.07,6.16,31,1.08,3.68,2.41,7.36,2.48,11.19-4.11.14-8-1.59-11.75-3.39-22.14-10.73-26.26-16-36.63-18.85-8.2-2.28-27.64-17.83-44.27-24.49-4-1.6-8.89-2.13-12.69-4-5.16-2.55-32.5-27.68-77.28-34.36-26.55-4-29.35-4.22-30.31-19.07-2.63-40.58,16.87-76.75,21.28-80.75,1.49-1.35,4-2.11,5.65-3.3,16.94-12,19.59-30.94,30.2-39.39,5.37-4.28,11.39-6.81,16.33-11.67,4.68-4.61,10.23-8.29,15.54-12.18,84.16-61.68,27-27.77,76.12-114.8,6.56-11.62,13.19-30.46,26.17-40.32,6.44-4.9,10.82-2.58,19-3,6.41-.35,11.72,1.47,18.34.68C348.28,172.32,385.14,206.48,403.24,243.51Z"/><path class="cls-10" d="M272.54,187.47c-11.65,9.07-34.32,55.46-34.32,55.46s12.5,26.09,16.27,23.5c12.47-8.54,16.16-18.27,20.92-26.24q8.64-14.44,17.26-28.89c2.83-4.75,5.71-9.59,6.94-15a14.13,14.13,0,0,0,.57-4.92,7,7,0,0,0-1.94-3.25,18.94,18.94,0,0,0-6.76-5.12C284.28,179.91,278,183.2,272.54,187.47Z"/><path class="cls-11" d="M213.89,535.46c-5.87,12.13-49.75,46-16.78,48.64,28.19,2.22,28.13-11.2,36.63-20.81,3.61-4.09,8.77-7.4,10.41-12.36,1.72-5.23-1.09-9.26-2.84-13.73-1.34-3.43-.41-4.47-1.76-5.75a10.15,10.15,0,0,0-5.06-2.2C227.2,527.81,217.37,528.27,213.89,535.46Z"/><path class="cls-11" d="M123.82,528c-.51,4.72,1.77,8.94,6.73,11,7.55,3.19,22.73-3.23,30-8.26,10.35-7.2,5.61-8,15.34-9.46,12.66-1.94,19.64-10.92,12.79-27.56-1.09-2.66-1.6-3.52-4.62-4.22-13.53-3.15-17.79,4.83-19,6.49C149.8,516.5,125.79,509.92,123.82,528Z"/><path class="cls-12" d="M194.52,494.43c1.5-3.08,1.08-6.7.9-10.11-.56-10.47,2.16-20.81,1.72-31.22-.41-9.85,1.63-20,1-30.05-.69-11.28-9.41-31.54-9.41-31.54s-35.68-5.41-36.23-.75c-1.8,15.23,6.2,32.66,8.54,41.55,13.11,49.61,12.1,60.34,15.87,64.34C180.9,500.87,192,499.61,194.52,494.43Z"/><path class="cls-12" d="M195.45,346.16c-16.83,11-40.21,31.75-41.89,35.8-1.56,3.76-2.41,14.55,1.5,18.64,3.56,3.74,9.58,3,14.71,2.33,6-.73,12.08-.86,18.1-1.51,16-1.71,60.42-13.65,76.77-20.58,9.11-3.85,19.34-8.2,27.18-14.31,4.25-3.32,10.11-7.23,10.58-13.13.22-2.82-1-5.54-2.21-8.1-3.33-7.13-3.68-29.09-4.65-28.91C286.33,318.09,224.68,327.11,195.45,346.16Z"/><path class="cls-12" d="M349.34,339.58a28.3,28.3,0,0,0-24.29-8.92c-8.89,1.27-19.48,7.65-25.7,14.12-4.81,5-8,11.38-12.45,16.73-5.66,6.81-14.18,10.36-20.13,16.84a259.7,259.7,0,0,1-22.42,22.34c-5,4.3-10.37,8.28-14.87,13.13s-8.19,10.73-9.09,17.29,1.45,13.8,6.93,17.52,12.78,3.3,19.11,1.4c8.85-2.67,16.69-7.86,24.39-13,9.94-6.62,19.89-13.24,29.55-20.27,3.89-2.84,7.17-5.4,11.57-7.13A71.44,71.44,0,0,0,323.35,404c7.24-4.51,13.42-10.42,20.14-15.44a36,36,0,0,0,13.4-22,32.17,32.17,0,0,0-6.85-26.2Z"/><path class="cls-13" d="M299.45,176.48c-12.31.88-20.88,11.94-26.41,22-6.35,11.49-5.53,29.82-6.71,42.67-4,43.44-2.86,61.75-17.92,73.94-26.47,21.42-37.51,21.66-53.56,29.59-3.5,1.74-6.1,4.06-9.27,6.15-4.22,2.76-19.23,7.5-29,24.81-10.11,17.92-10.46,44.72-13,64.83-2,16.27-2.33,33.15,3,48.66s17,29.52,32.77,34.14c10.73,3.16,22.43,1.83,33.08,5.27,10.38,3.34,18.83,10.9,28.69,15.54s23.23,5.52,30.2-2.86c5.64-6.8,4.77-16.67,4-25.46a301.52,301.52,0,0,1-.78-42.61c.52-9.88-.8-20.29-.07-29.88,1.63-21.12,36.93-30.36,52.25-39.36,49.45-29.06,36.17-57.88,35.39-74-3-63.18,6.48-35.42,15.85-76.79,2.51-11.11,7-28.77-.89-38.64-5.84-7.32-15.88-14.28-23.8-19.27C335.7,184.1,307.28,175.91,299.45,176.48Z"/><path class="cls-7" d="M259.79,297.28c-3.44,9.89-8.07,13.63-14.74,20.43,22.49,29.77,65,45.32,115.65,41.18,8.75-.72,9.89-3.76,9.32-8.76-.46-4.07-.51-15.15-3.5-18.17-3.76-3.8-8.11-1.51-13.34-.94a109.22,109.22,0,0,1-35.19-2C295,324,275.08,315.33,259.79,297.28Z"/><path class="cls-14" d="M304.45,191.28a30.6,30.6,0,0,0,.68,7c.65,3,1.81,5.93,2.34,9,1.28,7.41-1.31,15.09-5.54,21.31-3.75,5.51-10.6,14.4-17.35,15.61a29.49,29.49,0,0,1-23-6.18,27.3,27.3,0,0,1-10-20.34c-.1-5.86,1.79-11.58,4.27-16.88a63,63,0,0,1,17.26-22.63,46.2,46.2,0,0,1,26.25-10.4c2-.09,6.61-.86,8.17.58,1.91,1.78.2,5.11-.37,7.18A63.6,63.6,0,0,0,304.45,191.28Z"/><path class="cls-15" d="M297.13,222.34c-.65,4.24-5.7,10.61-7.67,6a2.11,2.11,0,0,1,.52-2.12,26.74,26.74,0,0,0,4.07-5.05A1.67,1.67,0,0,1,297.13,222.34Z"/><path class="cls-15" d="M279.3,236.6c-.78,1.28-1.55,2.91-3.12,3.26a2.12,2.12,0,0,1-2.66-1.94c-.15-1.59,1.16-2.81,2.13-3.94C279.05,230,282,232.21,279.3,236.6Z"/><path class="cls-15" d="M259.17,222.76c2.11-2,4.59-5.68,6.06-3.85,1,1.28-.33,3.59-1.08,4.71-1,1.54-2.43,3.81-4.49,3.75S256.8,225.06,259.17,222.76Z"/><path class="cls-15" d="M263.58,196a1.61,1.61,0,0,1,2.3,1.52c-.21,1.24-1.85,6.21-3.09,7.4a2.13,2.13,0,0,1-3.46-1.17C258.72,201,261.23,197.27,263.58,196Z"/><path class="cls-15" d="M280.82,204.35a1.12,1.12,0,0,1,1.06.77c.81,2.48-1.86,5.73-3.08,7.68-2,3.17-6.41.07-4.18-3C276,207.93,278.16,204.32,280.82,204.35Z"/><path class="cls-16" d="M304.32,197.31c.27,9.76,1.51,19.49,1.48,29.25A163.16,163.16,0,0,1,275.05,202c-4.3-4.4-8.59-9.61-8.68-15.76a8.86,8.86,0,0,1,1.46-5.27,13,13,0,0,1,3.64-3.07c5.16-3.39,10.38-6.8,16.15-9,3.71-1.42,20.49-5.74,19.94,1.94-.31,4.2-2.27,8.52-2.76,12.81A96.39,96.39,0,0,0,304.32,197.31Z"/><path class="cls-16" d="M229.88,268.59c-8.33,30.23-16.75,55.35-41.7,74.33-13.11,10-28.36,16.91-41.24,27.19-13.31,10.62-23.59,24.63-30.82,40-6.57,14-12.81,31.43-11.33,47a154.79,154.79,0,0,0,7.8,35.85c.64,1.83,3.78,9.58,3.78,9.58s-7.35-1.33-9.78-1.39c-6.06-.16-12-1.77-18-2.22-4.79-.36-9.6,0-14.38-.39s-9.69-1.63-13.34-4.75a9.76,9.76,0,0,1-3.09-4.31,14.16,14.16,0,0,1-.25-5.51c1.09-12,2.69-24.08,6.55-35.51C70.72,428.67,83.74,411.79,95,394.2c12.55-19.62,30.14-36.74,48.79-50.73,7.24-5.43,15.15-9.92,22.37-15.36,8.3-6.25,15.61-13.7,22.88-21.11,11.93-12.15,22.26-33,29.12-48.6,29.13-66.21,51.09-78.78,51.09-78.78s16.88,11.17,4.31,19.88C246.67,218.11,238.28,238.08,229.88,268.59Z"/><path class="cls-17" d="M344.7,193c-1,10.15-15.5,20.36-28.42,17.14-3.63-.9-7-3.08-8.18-6s-1.8-8.78-3.14-21.38c-.39-3.66,1.44-5.7,2.12-9.34,1.1-5.94,5.41-10.24,11.24-14.24a20,20,0,0,1,6.63-2.94,45.11,45.11,0,0,1,11-1.43c2.61,0,6.3.11,8.22,1.9a2.77,2.77,0,0,1,.76,3.12C340.35,180,345.4,186,344.7,193Z"/><path class="cls-13" d="M320.8,196.89c8.77-2.34,13.44-11.69,21.62-17.53l.71-.34c.47,6.25,2,10,1.57,14-1,10.15-15.5,20.36-28.42,17.14-3.63-.9-7-3.08-8.18-6a27.78,27.78,0,0,1-1.35-6A33,33,0,0,0,320.8,196.89Z"/><g class="cls-1"><polygon class="cls-5" points="282.11 414.05 282.68 565.79 300.35 576.06 299.78 424.31 282.11 414.05"/><polygon class="cls-7" points="299.78 424.31 300.35 576.06 452.54 488.19 451.97 336.45 299.78 424.31"/><polygon class="cls-3" points="443.75 483.15 443.26 351.6 308.56 429.36 309.06 560.91 443.75 483.15"/><polygon class="cls-4" points="282.11 414.05 299.78 424.31 451.97 336.45 434.3 326.18 282.11 414.05"/></g><g class="cls-1"><polygon class="cls-7" points="282.11 388.51 282.68 402.44 300.35 412.71 299.78 398.78 282.11 388.51"/><polygon class="cls-7" points="299.78 398.78 300.35 412.71 452.54 324.85 451.97 310.91 299.78 398.78"/><polygon class="cls-8" points="282.11 388.51 299.78 398.78 451.97 310.91 434.3 300.64 282.11 388.51"/></g><path class="cls-10" d="M392.62,333.32c3.43-1.17,5.74,1.22,6.7-1.59,2.13-6.27-3.38-71.31-21.21-100.42-3.86-6.31-18-6.73-23.5,7.86s-1.95,26.89,1.05,34.32C357.88,279,364.19,316,367,325.61,369.62,334.33,384.26,336.16,392.62,333.32Z"/><path class="cls-14" d="M392.52,232.9c3.11,13.08,8.9,27.68,10.21,40.93,1,10-9,21.22-17.68,25-10.85,4.77-23.67,1.83-34.12-3.75-15.23-8.14-27-22-33.48-38-5.67-14-11.19-38.91,1.22-50.48,3.23-3,7-5.42,10.45-8.16a67.36,67.36,0,0,0,12.05-12.28,18.6,18.6,0,0,0,2.69-4.92C383.79,198.92,391.5,228.6,392.52,232.9Z"/><path class="cls-15" d="M381.42,231.49a1.21,1.21,0,0,1,1.43-.19c2.3,1.32,2.28,5.85,2.6,8.16.48,3.52-4.71,4.13-4.76.64,0-1.62-.14-3.25-.16-4.87C380.5,233.88,380.45,232.51,381.42,231.49Z"/><path class="cls-15" d="M354.29,234.16c.19-1.52,2.1-2.8,3.35-1.39,1.53,1.74,1.78,3.91,2.08,6.13a2.53,2.53,0,0,1-2.51,2.52,2.58,2.58,0,0,1-2.52-2.52C354.59,237.31,354.1,235.75,354.29,234.16Z"/><path class="cls-15" d="M325.3,233.07c.09-.67.57-1.48,1.39-1.39,3.35.39,3.39,5.27,3.71,7.81s-4.5,3.78-4.86,0A56.36,56.36,0,0,1,325.3,233.07Z"/><path class="cls-15" d="M347.34,254.72a1.12,1.12,0,0,1,1.3-.17c2.29,1.25,2.59,5.44,3,7.69.74,3.67-4.6,4.47-5.1.7C346.28,260.65,345.39,256.52,347.34,254.72Z"/><path class="cls-15" d="M372.55,257c2.45,3.52,3.16,11.61-1.43,9.63a2.08,2.08,0,0,1-1.08-1.89,27.07,27.07,0,0,0-.52-6.47A1.67,1.67,0,0,1,372.55,257Z"/><path class="cls-15" d="M391.77,253.78c2.22.39,3,3.67,3.55,5.5.72,2.47,1.68,5.11,0,7.36A1,1,0,0,1,394,267c-2.77-1.49-3.14-5.18-3.59-8C390.2,258,389.39,253.38,391.77,253.78Z"/><path class="cls-15" d="M389,283.87c.31,1.47.88,3.18,0,4.51a2.12,2.12,0,0,1-3.27.42c-1.2-1.05-1.09-2.84-1.16-4.33C384.27,279.27,387.88,278.84,389,283.87Z"/><path class="cls-15" d="M359.24,288.54c.13-2.94-.57-7.29,1.75-7,1.63.22,2.23,2.83,2.45,4.16.3,1.84.85,4.44-.68,5.82S359.1,291.83,359.24,288.54Z"/><path class="cls-15" d="M328.17,262.67a1.61,1.61,0,0,1,2.72-.48c.69,1.05,2.92,5.78,2.84,7.5a2.13,2.13,0,0,1-3.32,1.53C328.07,269.64,327.35,265.23,328.17,262.67Z"/><path class="cls-16" d="M314.55,227.1c-.8,0-9.43-1.65-9.2-2.52.77-2.85,3.91-4.21,6.53-5.59,7.51-4,29.77-25,35.52-31.23,3.12-3.38,5.52-4.94,9.88-3a52.4,52.4,0,0,1,10,5.71C389,206.43,402,230.58,410.7,256.24c7.09,21,5.18,48,5.18,48s-10.24,25.06-12.06,21.45a2.77,2.77,0,0,1-.78-.21c-.3-.23-.3-.61-.44-.93-5.67-12.45-3.14-17.51-1.93-30.33,2.05-21.73-5.61-48.38-25.72-60.25C358.45,224.27,319.07,227.11,314.55,227.1Z"/><path class="cls-14" d="M285.57,538.67c-13.53,32.33-69.43,11-97.88,2.79-56.84-16.3-59.15-44.82-58.61-57.69.61-14.47,8.74-17,13.1-14.71,3.09,24.38,77.32,52.08,91.92,52.78,12.15.58,24.79,3.44,36.48-1.48,1.58-.67,3.27-1.29,4.18-2.74s.84-3.83,3.75-3C282.59,515.81,291.19,525.24,285.57,538.67Z"/><path class="cls-15" d="M266.34,526.64a21.49,21.49,0,0,0,4.08-.23c1.25-.3,2.58-1.09,3.88-1a.74.74,0,0,1,.69.91c-.36,1.9-2.81,2.92-4.45,3.44s-4.52,1.15-5.61-.71A1.65,1.65,0,0,1,266.34,526.64Z"/><path class="cls-15" d="M262,544.64c1-.3,2.11.2,3.2.06.86-.11,1.63-.48,2.51-.56.66-.06,1.16.66,1.16,1.25,0,3.29-5.86,5.29-7.92,2.83A2.18,2.18,0,0,1,262,544.64Z"/><path class="cls-15" d="M231.82,531.6a2.47,2.47,0,0,1,2.38-2.1,19.78,19.78,0,0,1,6,.53c1,.2,2.69.45,2.49,1.83s-2.29,1.82-3.4,2.08a14.75,14.75,0,0,1-5.76.33A2.41,2.41,0,0,1,231.82,531.6Z"/><path class="cls-15" d="M218.34,542c1.54.37,3,1.13,4.55,1.58,1.82.53,4,.43,5.55,1.6a.92.92,0,0,1,0,1.56,11.6,11.6,0,0,1-7.68,1.16c-2.07-.43-4.32-2.24-4.23-4.53A1.44,1.44,0,0,1,218.34,542Z"/><path class="cls-15" d="M206.05,519.52c1.08.4,9.09,3,7.3,5.18-.84,1-2.21.76-3.36.55-1.67-.31-3.32-.65-5-.86C201.41,523.93,202.67,518.29,206.05,519.52Z"/><path class="cls-15" d="M189.4,527.65a16.77,16.77,0,0,1,3,1.51c.91.46,1.88.88,2.82,1.28a1.38,1.38,0,0,1-.32,2.5c-2.41.45-5.77.16-7.55-1.75A2.14,2.14,0,0,1,189.4,527.65Z"/><path class="cls-15" d="M162.68,523.19c1.8-.1,3.06,1.21,4.44,2.16.64.43,1.29.86,1.92,1.31s1.24,1.09,1.88,1.54a.67.67,0,0,1-.33,1.23,12,12,0,0,1-2.94,0,11.13,11.13,0,0,1-2.69-.93c-1.79-.83-3.41-1.85-3.65-4C161.23,523.79,162,523.23,162.68,523.19Z"/><path class="cls-15" d="M168.21,507.49c1.92-.48,3.41,1.12,4.92,2.07a29.13,29.13,0,0,1,3.22,1.84.38.38,0,0,1,.22.07c.42.32.34.33.53.79a.77.77,0,0,1-.11.91c-1.45,1.15-3.78.56-5.4.05-1.94-.62-4.62-1.67-4.67-4A1.8,1.8,0,0,1,168.21,507.49Z"/><path class="cls-15" d="M146.46,490.57a2.24,2.24,0,0,1,2.36-1.21,5.37,5.37,0,0,1,2.74,1.75c1.43,1.28,3.48,2.41,4.42,4.12a1,1,0,0,1-.59,1.45c-1.86.33-3.8-.56-5.42-1.4S145.35,493,146.46,490.57Z"/><path class="cls-15" d="M141,502.27c1.45,1,2.29,2.63,3.3,4a12.13,12.13,0,0,1,2.31,4,.78.78,0,0,1-.74,1,7.44,7.44,0,0,1-4.49-2.12c-1.4-1.16-3.06-2.61-3.52-4.44S139.43,501.18,141,502.27Z"/><path class="cls-15" d="M138.17,474.13c.34,1.8,1.19,4.37.21,6.06a1.68,1.68,0,0,1-2.25.59c-1.68-1-2.23-3.61-2.83-5.31C132.21,472.38,137.58,470.93,138.17,474.13Z"/><path class="cls-7" d="M251.39,355.24c-5.71,2.41-11.44,5.16-15.81,9.56-6.09,6.13-8.89,14.82-10.2,23.36-3.44,22.27,1.83,44.88,2.49,67.41,0,1.77,0,3.73-1.18,5.05a6.44,6.44,0,0,1-3.34,1.67,32.46,32.46,0,0,1-17.51-.5,7.22,7.22,0,0,1-3.94-2.39,7.85,7.85,0,0,1-1.05-4.17c-.72-13.09.45-26.2,1.62-39.26q1.32-14.66,2.63-29.32c.55-6.17,1.14-12.47,3.59-18.16,4.07-9.45,12.81-16.09,22-20.8s19-7.91,28-13c4.37-2.48,9.3-5.39,14.22-2.68,2.88,1.58,7.44,6.81,6.49,10.32C277.5,349.17,257.21,352.78,251.39,355.24Z"/><path class="cls-16" d="M414.36,326.18c-3.74,16.92-15.08,24.13-16.78,35-3.16,20.23,3.95,45.8,11.95,64.36,9.13,21.18,19,42.13,27.54,64,7.58,19.44,17.77,38.88,34.8,50.93q-11.88,12.23-24.21,24c-9,8.62-19.3,17.54-31.76,18.16-14.1.72-26.95-9.49-41.06-9.21-15.69.31-27.91,13.1-42,20A58.87,58.87,0,0,1,291,596.77c-5.39-1.59-10.74-4.12-14.23-8.52-5.83-7.36-5.06-17.83-3.47-27.08,3.87-22.41,12.48-43.28,17.49-65.32,4.87-21.45,1.12-44.29-8.51-63.9-3.82-7.77-8.13-12.53-7.62-21.45.44-7.74,1.93-16.47,6.32-23,4.52-6.73,129.24-82.93,135-86.84C416,300.64,415.74,319.92,414.36,326.18Z"/><path class="cls-18" d="M335.08,378.67c-1.05.87-2.2,1.6-3.3,2.39-6,4.25-10.63,10-16,15a5.4,5.4,0,0,1-2.33,1.48,2,2,0,0,1-2.33-1c-.12-.33-.13-.72-.38-1s-.94-.14-1.34.13c-1.18.82-1.93,2.21-3.24,2.81a3.31,3.31,0,0,1-4.43-2.3c-.13-.7,0-1.43-.13-2.13a1.76,1.76,0,0,0-1.24-1.56c-1.26-.2-2.25,1.68-3.45,1.27-.77-.26-.95-1.26-.83-2.06a4.43,4.43,0,0,0,.06-2.39c-.76-1.68-3.82-1.2-4.47-2.93a2.48,2.48,0,0,1,0-1.59c.94-3.24,4-5.47,5.12-8.65.81-2.32.5-5,1.65-7.14a9.57,9.57,0,0,1,1.64-2.11,29.06,29.06,0,0,1,16.31-8.47c5.19-.81,10.61-.2,15.65-1.69,2.13-.63,4.18-1.63,6.4-1.84a9.31,9.31,0,0,1,4.3.64,3.06,3.06,0,0,1,1.05.64,3,3,0,0,1,.63,1,8,8,0,0,1,.51,4c-.47,3.67-3.57,5.91-4.53,9.28A16.74,16.74,0,0,1,335.08,378.67Z"/><path class="cls-10" d="M324.62,369.8c6.63,11.2,9.26,13.93,18.85,7.4,38.13-26,53.28-35.31,56-45.46,2.26-8.55-1.37-28.77-1.37-28.77s-14,6.83-31,17.56c-12.74,8-26.6,18.53-40.62,28.33C317.4,355.17,319.44,361.06,324.62,369.8Z"/><path class="cls-7" d="M294.78,222.2a10.19,10.19,0,1,1,9,11.27A10.19,10.19,0,0,1,294.78,222.2Z"/><path class="cls-18" d="M299.09,133a34.83,34.83,0,0,0-4.37,9.47,33.69,33.69,0,0,0-1.33,8.34c-.09,3,1.53,5.5,1.75,8.46.14,1.92-1,3.8-1.49,5.65-1.19,4.54-1.08,9-.77,13.59a50.35,50.35,0,0,0,1.74,11.56c.59,1.9,1.33,4.33,2.69,5.84s4.67,1.82,6.67,1.62a42.92,42.92,0,0,0,12.41-3.39c1.86-.79,3.7-1.68,5.53-2.5a38.39,38.39,0,0,0,5.42-3,24.41,24.41,0,0,0,2.73-2.1,16.39,16.39,0,0,0,4.79-7.17c.3-1,.25-2.31,1.15-2.94,1.08-.76,2.52,0,3.59-.63a7.68,7.68,0,0,0,1.28-1.85c.41-.63,1.15-3.69,2-3.71a7.74,7.74,0,0,0,2.75-1.25c1.41-.78,1.79,2.52,2.36,1,2.4-6.41,5.33-12.93,5.61-19.88.26-6.37.85-11.8-2.8-17.53a27.54,27.54,0,0,0-11.49-9.82,34.12,34.12,0,0,0-22.81-2.26A27.94,27.94,0,0,0,303.14,128,33.71,33.71,0,0,0,299.09,133Z"/><path class="cls-12" d="M324.64,147.16c2.85,2.27,3.79,6.5,4.61,9.9,1.68,6.92-1.51,15.42,2.51,16.61,3.77,1.12,6.17-6.27,10.38-6.74a3,3,0,0,1,3,1.25c.82,1.32.41,3-.15,4.38a15.1,15.1,0,0,1-1.8,3.05,5.33,5.33,0,0,0-.6.75,2.36,2.36,0,0,0,0,.88l0,2.16c0,.54,1.47-.06,1.76-.15a9.36,9.36,0,0,0,1.9-.81c3.77-2.28,13.47-11,14.3-29.84.85-19.17-11.26-23.56-11.26-23.56a28.9,28.9,0,0,0-22.81-11.27c-12.75-.24-26.24,4.5-31.87,16.68-4.63,10-1.42,16.66-1.42,16.66s.23-3.39,2.64-4.4c3.16-1.3,6.47-.6,9.68.1a92.63,92.63,0,0,0,11.24,1.94,17.27,17.27,0,0,1,6.95,1.78A7.7,7.7,0,0,1,324.64,147.16Z"/><path class="cls-12" d="M330.41,180.68a15.4,15.4,0,0,1-.06-1.92,9,9,0,0,1,1.75-5.19c.75-1,1.75-1.72,2.43-2.74a5.57,5.57,0,0,0,.88-3.51c-.16-1.79-.72-1.35-2.14-1.76a7,7,0,0,0-3.55-.36c-1.45,6.1-3.15,10.88-7,16.11-3.56,4.78-10.46,8.93-13.66,4.95-3.63-4.53-6.41-6.08-12.45-6.44-2.52-.16-3.09-2.57-3.86-4.75-1.2,4.85-1.43,1.51-5.55,22.76-.79,4-1.43,12.42-.32,16.42,1.47,5.88,9.11,8.63,14.44,9,7.86.59,13.88-3.51,19.57-8.32a38.43,38.43,0,0,0,3.75-3.46,25.36,25.36,0,0,0,5.7-12.56C331.43,192.76,331,186.84,330.41,180.68Z"/><path class="cls-18" d="M344.05,164.13c5,.64,5,7,.73,11.07a25.5,25.5,0,0,1-4.75,2.91c-10.32,5.79-10.94-2.79-7.63-4.8C340.09,168.64,337.76,163.33,344.05,164.13Z"/><path class="cls-17" d="M338.78,175.63c.67-.41,7-2.63,3.57-5.65a1.73,1.73,0,0,0-2.69,1c-.2.56-.14,1.2-.34,1.77a2.71,2.71,0,0,1-.57.89c-.66.72-2.53,1.17-2.43,2.43C336.41,177.14,338.39,175.87,338.78,175.63Z"/><path class="cls-18" d="M302.59,186.15a1.23,1.23,0,0,1,.49.82c0,.4-.37.7-.73.87a5.11,5.11,0,0,1-3.45.2,11.06,11.06,0,0,1-3.16-1.55A4.86,4.86,0,0,1,294,184.8a1.08,1.08,0,0,1-.06-1.08,1.33,1.33,0,0,1,1.22-.35,10.64,10.64,0,0,1,4,.6A13.92,13.92,0,0,1,302.59,186.15Z"/><path class="cls-7" d="M294.87,110a43.62,43.62,0,0,0,6.88,9.17,156.29,156.29,0,0,1,10.4-19.24c3.33,3.68,7.35,8.2,11.86,13.87,2.64-3.33,6.11-7.59,11.76-13.89a149.72,149.72,0,0,1,10.15,18.66,46.09,46.09,0,0,0,6.79-9,106,106,0,0,1,2.51,22v4.23c0-4.61-3-9.21-9.09-12.72-12.17-7.08-32.1-7-44.36.07-6.08,3.55-9.11,8.19-9.1,12.82v-4.16A106.24,106.24,0,0,1,294.87,110Z"/><path class="cls-8" d="M355.23,131.31a17.46,17.46,0,0,0-2.19-8.1,105.44,105.44,0,0,1-6.72,21.31c-9.48-10.16-9.48-10.16-10.39-11.16A189.45,189.45,0,0,1,324.17,150a196.72,196.72,0,0,1-11.86-16.48c-1.86,2.06-1.86,2.06-10.32,11.23a104.56,104.56,0,0,1-7-21.1,17.93,17.93,0,0,0-2.33,8.39V136c0,4.61,3,9.21,9.09,12.73,12.17,7.07,32,7.07,44.23,0,6.16-3.56,9.24-8.24,9.23-12.9v-4.49Z"/><path class="cls-15" d="M175.78,512.63a0,0,0,0,1,0,.06S175.75,512.63,175.78,512.63Z"/><path class="cls-18" d="M201.12,291.85c-1.08,2.68-1.16,5.65-1.91,8.44-1.78,6.71-7.15,11.8-12.47,16.26a2.84,2.84,0,0,1-1,.64,1.84,1.84,0,0,1-2-1.07,3.62,3.62,0,0,1-.1-2.43c.59-2.35,2.3-4.24,3.49-6.36s1.75-5,.15-6.82a4.88,4.88,0,0,0-4.81-1.23,11.63,11.63,0,0,0-4.5,2.56,42.8,42.8,0,0,0-5.76,5.74c-1.5,1.82-2.91,3.81-5,4.94a2.57,2.57,0,0,1-2.71.15c-.36-.28-.59-.71-1-1-1.63-1.08-3.54,2.05-5.37,1.39-2.07-.75-.59-4.73-2.57-5.68-.5-.24-1.11-.19-1.58-.48-.84-.51-.81-1.73-.59-2.68a14.09,14.09,0,0,1,1.47-3.7,2.09,2.09,0,0,0,.4-1.18c-.06-.58-.61-1-.92-1.46-.77-1.19-.06-2.75.65-4a31,31,0,0,1,5.6-7.73,24.47,24.47,0,0,1,5.16-3.42,56.89,56.89,0,0,1,11.79-4.57,37.2,37.2,0,0,0,6.82-2.12,45.46,45.46,0,0,0,4-2.38A36.3,36.3,0,0,1,199,269.32a9.12,9.12,0,0,1,3.59-.3,8.76,8.76,0,0,1,3.55,1.69c2.94,2.13,7.8,7.24,4.68,11-1.45,1.74-3.63,2.84-5.31,4.34A15.87,15.87,0,0,0,201.12,291.85Z"/><path class="cls-10" d="M235.7,278.57c-6.59,3.45-31.31,17.77-36.22,17.29-2.68-.26-14.7-17.46-15.1-19.81-.16-1,55.42-34.06,55.42-34.06s7.9-4.81,16.85,11.17C263.06,264.6,247.83,272.24,235.7,278.57Z"/><g class="cls-1"><polygon class="cls-2" points="304.02 684.89 304.1 711.39 502.95 826.95 502.88 800.45 304.02 684.89"/><polygon class="cls-3" points="502.88 800.45 502.95 826.95 759.74 678.8 759.66 652.31 502.88 800.45"/><polygon class="cls-4" points="304.02 684.89 502.88 800.45 759.66 652.31 560.8 536.74 304.02 684.89"/></g><g class="cls-1"><polygon class="cls-5" points="408.58 514.1 409.11 655.44 425.57 665.01 425.04 523.67 408.58 514.1"/><polygon class="cls-3" points="425.04 523.67 425.57 665.01 567.32 583.17 566.79 441.83 425.04 523.67"/><polygon class="cls-4" points="408.58 514.1 425.04 523.67 566.79 441.83 550.33 432.26 408.58 514.1"/></g><g class="cls-1"><polygon class="cls-6" points="408.58 490.32 409.11 503.3 425.57 512.86 425.04 499.88 408.58 490.32"/><polygon class="cls-7" points="425.04 499.88 425.57 512.86 567.32 431.02 566.79 418.04 425.04 499.88"/><polygon class="cls-8" points="408.58 490.32 425.04 499.88 566.79 418.04 550.33 408.48 408.58 490.32"/></g><g class="cls-1"><polygon class="cls-5" points="418.86 550.28 418.92 569.55 563.57 653.62 563.51 634.34 418.86 550.28"/><polygon class="cls-4" points="563.51 634.34 563.57 653.62 697.54 576.18 697.48 556.9 563.51 634.34"/><polygon class="cls-4" points="418.86 550.28 563.51 634.34 697.48 556.9 552.83 472.84 418.86 550.28"/></g><g class="cls-1"><polygon class="cls-4" points="580.8 272.18 597.47 262.5 555.61 214.26 538.95 223.95 580.8 272.18"/><polygon class="cls-4" points="641.6 305.29 658.26 295.6 628.52 216.45 611.86 226.13 641.6 305.29"/><polygon class="cls-4" points="684.54 308.01 701.21 298.32 658.26 295.6 641.6 305.29 684.54 308.01"/><polygon class="cls-3" points="683.9 533.62 700.57 523.94 701.21 298.32 684.54 308.01 683.9 533.62"/><polygon class="cls-7" points="611.86 226.13 580.8 272.18 538.95 223.95 538.31 449.56 683.9 533.62 684.54 308.01 641.6 305.29 611.86 226.13"/><polygon class="cls-2" points="676.36 315.67 635.81 313.1 609.78 243.81 581.62 285.58 547.05 245.74 546.48 444.86 675.78 519.51 676.36 315.67"/></g><path class="cls-19" d="M639.29,435.62c10.14,27.85,12.71,58.45,9.87,87.78-3.61,37.39-15.81,73.52-31.41,107.69-12.33,27-27,53.43-33.11,82.49-2.6,12.31-5.34,27.21-17.08,31.74-6.32,2.44-13.48.86-19.78-1.62-24.61-9.7-42-36.13-67.29-43.23-29.3-8.24-60.43-12.21-90.45-17.88-10.78-2-22.74-5.2-28.29-14.66-3-5.14-3.55-11.34-3.53-17.29A108.37,108.37,0,0,1,380.89,585c14.92-19.15,35.75-32.61,54.09-48.52a253.09,253.09,0,0,0,64.81-87.14c6.16-13.69,11.11-28,18.4-41.09,8.88-16,22.61-32.65,41.86-34.06,4.37-.32,8,1.36,12.49.63,27.93-4.51,51.11,25.8,61.44,47.93Q636.92,429.09,639.29,435.62Z"/><path class="cls-16" d="M514.43,752.13a80.9,80.9,0,0,0,25.81-6.7c3.9-1.81,10.71-5.2,12.09-9.71.72-2.38,0-6.22,0-8.75,0-3.19,0-6.38.22-9.56A251.12,251.12,0,0,1,559,672.92c2.4-10.09,5.54-20.28,11.83-28.53,8.6-11.27,21.71-17.43,32.93-25.61,10.77-7.85,21.4-20.36,28.85-31.4,5.28-7.82,4.82-15.89,4.18-25.08l-2.52-36.46c-.14-1.93-1.34-26.82-4.12-25.58-21.11,9.39-43.43,15.38-66.93,10.21-8.52-1.87-5-15.66-13.49-15-11.15.83-35.31,13.5-45.49,17.8-27.07,11.43-67.66,34.93-71.68,38.54-4.84,4.35-7.65,10.68-11.63,15.78-2.11,2.71-4.17,5.45-6.15,8.26-17,24-23.52,50.7-33.25,77.9-1.86,5.21-3.2,9.18-1.7,14.58a101.45,101.45,0,0,0,21,39.15c6.22,7.17,13.41,13.42,20.69,19.52,8.19,6.87,16.64,13.64,26.37,18.07,13.47,6.12,28.6,7.38,43.4,7.74A180.75,180.75,0,0,0,514.43,752.13Z"/><path class="cls-20" d="M524.79,716.32c-9.14,2.3-18.68,2.42-28.11,2.11a120.89,120.89,0,0,1-22.47-2.4c-8.47-1.88-16.55-5.21-24.39-8.92-26.72-12.66-51.77-30.57-67.81-55.4-5,5.16-7.35,12.41-7.7,19.57s1.18,14.27,3.19,21.14a42.75,42.75,0,0,0,4.25,10.51,41.36,41.36,0,0,0,9.13,9.87c12.42,10.41,26.77,18.25,41.24,25.54,24.58,12.38,51.59,23.66,78.8,19.59,8.5-1.27,16.78-4,25.36-4.41a37.69,37.69,0,0,0,7.52-.63c7.68-1.94,12.07-10.25,13.16-18.1,1-7.36.61-22.36-7-26.64C543.27,704.41,531.71,714.59,524.79,716.32Z"/><path class="cls-15" d="M520.45,725.53a22.34,22.34,0,0,0,4.08-.22c1.25-.3,2.58-1.1,3.88-1a.73.73,0,0,1,.69.9c-.36,1.9-2.81,2.92-4.45,3.44s-4.52,1.15-5.6-.7A1.65,1.65,0,0,1,520.45,725.53Z"/><path class="cls-15" d="M520.43,744.81c1-.3,2.11.2,3.2.06.86-.11,1.63-.48,2.51-.56a1.23,1.23,0,0,1,1.16,1.25c0,3.29-5.86,5.29-7.92,2.83A2.18,2.18,0,0,1,520.43,744.81Z"/><path class="cls-15" d="M490.73,734.15a2.49,2.49,0,0,1,2.39-2.11,19.84,19.84,0,0,1,6,.54c1,.19,2.69.44,2.48,1.82s-2.28,1.82-3.39,2.09a14.8,14.8,0,0,1-5.77.32A2.41,2.41,0,0,1,490.73,734.15Z"/><path class="cls-15" d="M474.66,743.38c1.54.37,3,1.14,4.55,1.59,1.82.53,4,.43,5.55,1.6a.92.92,0,0,1,0,1.56,11.54,11.54,0,0,1-7.68,1.15c-2.07-.42-4.32-2.23-4.23-4.52A1.45,1.45,0,0,1,474.66,743.38Z"/><path class="cls-15" d="M465.29,718.61c1.09.4,9.1,3,7.3,5.18-.83,1-2.2.76-3.36.55-1.67-.31-3.32-.64-5-.86C460.66,723,461.92,717.38,465.29,718.61Z"/><path class="cls-15" d="M542.58,731.36c1.16,0,9.57-.38,8.65,2.29-.42,1.24-1.79,1.48-3,1.69-1.67.3-3.33.57-5,.95C539.79,737.12,539,731.39,542.58,731.36Z"/><path class="cls-15" d="M448.81,731.77a17.47,17.47,0,0,1,3,1.51c.91.46,1.88.88,2.82,1.28a1.38,1.38,0,0,1-.33,2.5c-2.4.45-5.76.16-7.54-1.75A2.14,2.14,0,0,1,448.81,731.77Z"/><path class="cls-15" d="M421.46,722.89c1.79-.1,3.06,1.21,4.44,2.15.64.44,1.28.86,1.91,1.32s1.24,1.09,1.88,1.54a.67.67,0,0,1-.33,1.23,12,12,0,0,1-2.94,0,11.28,11.28,0,0,1-2.69-.93c-1.79-.83-3.41-1.85-3.64-4C420,723.49,420.78,722.93,421.46,722.89Z"/><path class="cls-15" d="M426.86,706.39c1.92-.49,3.4,1.12,4.92,2.07A30.07,30.07,0,0,1,435,710.3a.38.38,0,0,1,.22.07c.42.32.33.33.53.79a.77.77,0,0,1-.12.91c-1.44,1.15-3.78.56-5.39,0-1.94-.62-4.62-1.67-4.67-4A1.79,1.79,0,0,1,426.86,706.39Z"/><path class="cls-15" d="M404.36,688.21a2.24,2.24,0,0,1,2.36-1.21,5.37,5.37,0,0,1,2.74,1.75c1.44,1.28,3.48,2.41,4.42,4.12a1,1,0,0,1-.59,1.45c-1.85.33-3.8-.56-5.42-1.41S403.25,690.61,404.36,688.21Z"/><path class="cls-15" d="M396.08,704.59c1.73.25,3.22,1.35,4.73,2.17a12.14,12.14,0,0,1,3.83,2.56.77.77,0,0,1-.24,1.19,7.43,7.43,0,0,1-5,.06c-1.77-.42-3.89-1-5.11-2.43S394.16,704.31,396.08,704.59Z"/><path class="cls-15" d="M385.62,686.33c1.22,1.37,3.28,3.13,3.31,5.09a1.67,1.67,0,0,1-1.62,1.66c-1.94,0-3.77-1.94-5.17-3.08C379.61,687.92,383.46,683.9,385.62,686.33Z"/><path class="cls-10" d="M557.62,368.16c-4.55,2.57-8.11,6.54-11.56,10.46-13.71,15.55-27.12,31.52-37.62,49.39-1.38,2.33-4.31,5.64-4.39,8.41a9.57,9.57,0,0,0,5.37,8.24c2.1.95,4.49,1,6.74,1.48a27.69,27.69,0,0,0,4.56,1c3.29.17,5.41-3.15,7.52-5.25,2.77-2.75,5.4-5.65,7.92-8.63,5.08-6,9.74-12.31,14.39-18.63l18.88-25.69c2.23-3,4.51-6.16,5.48-9.79s.34-10.35-3.4-12.56C567.53,364.23,561.28,366.1,557.62,368.16Z"/><path class="cls-16" d="M547.32,443.12c-2.78-8.95-6.53-17.66-6.18-27.22.49-13.8,9-25.58,11.44-38.93.79-4.19-.35-8.41.78-12.39,1.93-6.83,8.44-10.47,14.88-11.59,25.12-4.36,58.55,14.88,72.72,36.18a24,24,0,0,1,3.82,18.32,33.88,33.88,0,0,1-7.62,17.64c-.95,1.6-1.93,3.2-2.93,4.82-32.27,52.31-5.29,54.05,2.57,84.2C640,526.6,634.3,536,624.46,541.5c-7,3.94-16.09,5.93-25.5,5.7-16.53-.4-55.82-2.48-60.21-18.46-3.12-11.37,2.71-24.84,5.77-35.63,3.33-11.76,6.36-23.94,5.63-36.27A58.21,58.21,0,0,0,547.32,443.12Z"/><path class="cls-21" d="M575.83,429.7c0-6.28-3.1-11.66-4.43-17.93-4-19.23-5.37-37.95-5.85-56.57a18.35,18.35,0,0,1,6.35-2.33c15.82-2.78,35.77,6.3,49.06,18.71-12.34,15.49-23.27,29.93-35.38,45.57C582.48,421.63,579.82,426.11,575.83,429.7Z"/><path class="cls-7" d="M585.58,417.15c-3.1,4.48-5.76,9-9.75,12.55-1.45-4.06-3.1-11.66-4.43-17.93a262.32,262.32,0,0,1-4-26.6c11.6,2.08,22.59,7,32.81,13.06C595.38,404.44,590.58,410.69,585.58,417.15Z"/><path class="cls-14" d="M576.42,401.25a130.88,130.88,0,0,1-24.65-19.72c-3.44-3.53-6.88-7.7-6.95-12.63a7.06,7.06,0,0,1,1.17-4.23c2.32-3.22,7-5.13,10.59-6.58.82-.33,10.88-5.19,10.88-3.41C567.48,362.91,575.63,400.76,576.42,401.25Z"/><path class="cls-14" d="M501.89,448c-8.34,29.91-12.8,58.44-37.81,77.22-13.14,9.87-28.43,16.73-41.34,26.9-17.95,14.15-30.94,35-37.91,56.61a81.5,81.5,0,0,0-4,28.82,143,143,0,0,1-5.49,44c-.94,3.32-25.91-1.85-28.9-2.61-7.59-1.94-14.08-5.5-13.28-14.17,4-43.56,14-52.52,37.56-88.83,12.57-19.41,30.21-36.34,48.9-50.19,7.25-5.37,15.18-9.81,22.42-15.19,8.32-6.19,15.64-13.55,22.93-20.89,12-12,22.31-32.66,29.18-48.08,29.2-65.51,53.48-78.63,53.48-78.63s15.89,4.28,3.35,13C541,382.79,510.31,417.78,501.89,448Z"/><path class="cls-17" d="M603.67,379.05c-8.19,5.89-15.43,7.36-26.54.57-3.66-2.23-4-25.29.91-35.9,1.69-3.67,7.7-6.76,11.43-8.16,4.21-1.57,22-5.56,22.64-1.15.25,1.67-2.46,3.43-3.73,7.18-2.76,8.14-1.84,15.71.47,22.73C609.38,365.92,613.91,371.7,603.67,379.05Z"/><path class="cls-10" d="M647.91,395.86c7.25,11,6.28,19.82,7.76,31.84,1.54,12.5,3.43,24.87,5,37.36.51,4.15.34,8.23.55,12.38.16,3.28-1.39,5.82-4.86,6.59-2.62.58-5.35-.1-7.87-1a46.2,46.2,0,0,1-10.52-5.37c-3.16-2.16-2.82-4.9-3.44-8.35q-.48-2.69-1-5.37c-3.41-17.19-7.58-28.2-9.75-37.86s-1.44-34.62,11.44-39.42C639.41,385.08,645.35,392,647.91,395.86Z"/><path class="cls-22" d="M569.9,338.81a73.54,73.54,0,0,1,.94,14.78c-.49,7.11-2.89,13.88-4.33,20.82a42,42,0,0,0-1.27,10c.18,3.85,1.39,7.42,1,11.36-.48,5.16-2.86,10-3.64,15.08-.9,6,.22,12-.5,18-.42,3.57,0,7.18-.42,10.74-.45,4-2.38,6.54-4.2,10-3.14,5.94-7.13,11.47-8.57,18.16-.54,2.5-1.07,5.44-3.35,6.59a5.14,5.14,0,0,1-4.27-.08c-3.7-1.58-5.57-5.95-5.45-10s1.83-7.82,3.51-11.48a102.4,102.4,0,0,0,4.18-10.22c2.06-5.8,2.13-12.1,2-18.25a78,78,0,0,1,.51-13.93,71.35,71.35,0,0,1,2-8.24c1.18-4,2.58-8.45,3-12.66.43-4.39-.13-9.11-.19-13.52a47.46,47.46,0,0,1,.64-10.79c.83-3.93,2.64-7.61,3.55-11.52,2.25-9.66,3.32-19.53,4.72-29.33.6-4.14.62-9.71,2.3-13.5,1.27-2.84,5.63-5.74,8.34-3.09,2,2-.54,6-1.1,8.33C567.61,323.48,568.85,331.13,569.9,338.81Z"/><path class="cls-7" d="M562.12,428.81c-.51,4.36.17,8.88-.82,13.15-6,.75-11.67-1.41-16.33-5.16a71.86,71.86,0,0,0,.61-12.54c0-1.79-.07-3.59-.07-5.39a28.66,28.66,0,0,0,16.82,7.33C562.29,427.07,562.23,427.94,562.12,428.81Z"/><path class="cls-7" d="M551.18,381.71c-.1-1.95-.21-3.9-.24-5.8a47.46,47.46,0,0,1,.64-10.79c.11-.54.25-1.09.4-1.63,3.9,5,9.24,8.65,15.28,7.63-.27,1.1-.52,2.19-.75,3.29a42,42,0,0,0-1.27,10c0,.45.06.9.1,1.34A21.83,21.83,0,0,1,551.18,381.71Z"/><path class="cls-23" d="M609.66,344.9c.54-1.06-.41-2.38.18-3.41,15.57-27.75-2.56-53.55-27-46.36-27.33,8.06-21.21,26.37-21.85,36.06-.22,3.31-1.44,6.37-1.43,9.76,0,4.77,4.22,23,9.78,26.06,5.06,2.77,21.75-4.35,26.46-7.28C605.61,353.62,604.12,355.75,609.66,344.9Z"/><path class="cls-14" d="M576.42,401.25c.62-2.29,35.69-25.55,40.3-30.53,2.51-2.72,4.43-4,7.94-2.39a42.26,42.26,0,0,1,8,4.58c17.46,12.8,27.93,32.19,34.9,52.78,5.69,16.84,4.16,38.52,4.16,38.57l-8.65,25c0,.05-.82-19.19-3.56-33-3.4-17.19-4.51-38.84-20.65-48.37C625.59,400,576.24,402,576.42,401.25Z"/><path class="cls-22" d="M623.54,347.61a36.26,36.26,0,0,1-1,12c-.93,3.18-2.53,6.15-3.28,9.38-1.72,7.32,1.07,15.13-.61,22.47-1.1,4.81-4,9-5.46,13.74-2.89,9.62.7,20.45-2.88,29.83-1.26,3.29-3.34,6.21-4.7,9.45-3.78,9-1.77,19.91-6.51,28.47-2.48,4.45-6.56,7.8-10.89,10.48-3.23,2-7.63,3.62-10.58,1.22-2.76-2.23-2.37-6.64-.72-9.77s4.27-5.75,5.51-9.07c2.1-5.63-.14-12.25,2.23-17.77,1.66-3.86,5.33-6.54,7.16-10.33,2.53-5.23,1.11-11.46,2.12-17.18,1.3-7.36,6.57-13.58,7.74-21,.93-5.93-.88-12.08.38-17.95,1-4.71,3.94-8.92,4.45-13.71s-1.45-9.48-1.72-14.28a32.33,32.33,0,0,1,1.5-10.54,75,75,0,0,1,7.56-17.64c1.55-2.63,3.32-4.95,4.31-7.71.47-1.3.8-5.34,3.22-3.47,2.07,1.59,1.11,7.44,1.23,9.72.29,5.56.17,11,.49,16.61C623.23,342.93,623.43,345.27,623.54,347.61Z"/><path class="cls-7" d="M618.88,379.39c.29,4.07.67,8.14-.23,12.08-.83,3.64-2.71,6.93-4.19,10.36-4.65,1-8.93-.7-12.62-3.66.49-5.49-1-11.13.21-16.54a35.4,35.4,0,0,1,2.14-6.16C608.4,378.68,613.4,380.44,618.88,379.39Z"/><path class="cls-7" d="M584.65,448.05c1.66-3.86,5.33-6.54,7.16-10.33a14,14,0,0,0,1-3,18.66,18.66,0,0,0,14.86,5.59,45.17,45.17,0,0,0-2.1,4.17,41.06,41.06,0,0,0-2.51,11c-5.09.76-10.33-.12-14.27-3.62-1.36-1.11-2.8-2.39-4.2-3.78A.64.64,0,0,0,584.65,448.05Z"/><path class="cls-22" d="M622.78,317.64c-1.51-20.68-14.11-24.53-14.15-24.54-.8-.24-3.56-4.48-10.78-5.44-29.1-3.9-41.23,15.72-38.06,37,.24,1.59,1.16,3.16,1.26,4.72a18.21,18.21,0,0,1,10.1-17.08c4.36,4.81,9.86,8.21,14.74,12.49,6.84,6,8.07,16.67,13.49,23.85a10.79,10.79,0,0,0,5.85,4.18C610.34,354,624.16,336.42,622.78,317.64Z"/><g class="cls-1"><polygon class="cls-5" points="551.01 578.74 551.54 720.08 568 729.64 567.47 588.3 551.01 578.74"/><polygon class="cls-7" points="567.47 588.3 568 729.64 709.75 647.8 709.22 506.46 567.47 588.3"/><polygon class="cls-3" points="701.57 643.1 701.11 520.57 575.65 593.01 576.11 715.53 701.57 643.1"/><polygon class="cls-4" points="551.01 578.74 567.47 588.3 709.22 506.46 692.76 496.9 551.01 578.74"/></g><g class="cls-1"><polygon class="cls-7" points="551.01 554.95 551.54 567.93 568 577.5 567.47 564.52 551.01 554.95"/><polygon class="cls-7" points="567.47 564.52 568 577.5 709.75 495.66 709.22 482.68 567.47 564.52"/><polygon class="cls-8" points="551.01 554.95 567.47 564.52 709.22 482.68 692.76 473.11 551.01 554.95"/></g><path class="cls-14" d="M674.37,493.85c-5.4,16.46-7.92,26.37-9.61,37.21-3.16,20.23,4,45.8,12,64.36,7.33,17,14.15,34.45,23.56,50.28S716.34,679,722.6,696.37c1.91,5.3,3.82,10.76,3.62,16.39-.23,6.2-3,12-5.7,17.56-5.1,10.51-10.32,21.2-18.3,29.73S683,774.82,671.3,773.9c-8.11-.64-15.54-4.59-23.38-6.75-19.23-5.28-39.5.42-59.34,2.38-9,.89-18.33,1-26.7-2.4-13.48-5.42-24-21.39-21.44-36.06,3.86-22.4,12.48-43.28,17.48-65.31,4.88-21.46,1.13-44.29-8.51-63.91-3.81-7.76-8.12-12.52-7.62-21.44.44-7.75,1.93-16.47,6.33-23,3.56-5.3,75-41.15,107.89-66.39,8.87-6.82,13.79-48.05,15-48.88C671,442.11,678.21,482.15,674.37,493.85Z"/><path class="cls-6" d="M570.57,283.21a31.58,31.58,0,0,0,5,6.7,112.42,112.42,0,0,1,7.59-14.05c2.43,2.69,5.36,6,8.65,10.13,1.93-2.44,4.46-5.55,8.59-10.14a110,110,0,0,1,7.41,13.62,34,34,0,0,0,4.95-6.57A77.6,77.6,0,0,1,614.62,299v3.08c0-3.36-2.22-6.72-6.64-9.28-8.88-5.17-23.43-5.11-32.37,0-4.44,2.59-6.66,6-6.65,9.36v-3A77.31,77.31,0,0,1,570.57,283.21Z"/><path class="cls-7" d="M614.62,298.8a12.67,12.67,0,0,0-1.6-5.92,76.85,76.85,0,0,1-4.9,15.56c-6.92-7.42-6.92-7.42-7.59-8.15A135.9,135.9,0,0,1,592,312.43a144.81,144.81,0,0,1-8.66-12c-1.35,1.51-1.35,1.51-7.53,8.2a77,77,0,0,1-5.09-15.4,12.91,12.91,0,0,0-1.7,6.12v2.88c0,3.36,2.22,6.72,6.64,9.29,8.88,5.16,23.34,5.16,32.28,0,4.5-2.6,6.75-6,6.74-9.42V298.8Z"/><path class="cls-23" d="M575.48,525.68c-6.08,1.72-9,2.34-10.42,2.88-2.36.9-1.95,2.25-13,8.89-4.73,2.85.77,5.25,2.76,4.52.53-.19,12.16-8.7,10-1.83-.85,2.67-11.82,12.76-13.94,14.61-4.39,3.83-1.69,6.25-.15,5.65,1-.39,1.14.27.33,1.07-2,2-.47,4.91,1.59,4.36,1-.26,1.78-1.29,2.73-1s1.06,1.61,1.69,2.4c1.48,1.85,5-1,6.81-1.13,3.63-.18,3.17,3.19,13.59-8a53,53,0,0,0,6.82-8.36c2.26-3.71,3.64-8,6.64-11.15,2.45-2.56,5.88-4.1,8-7,2.68-3.83,0-13.76-6-13.11-1.83.2-2.79,1-10.33,5C578.43,525.7,580.36,524.29,575.48,525.68Z"/><path class="cls-10" d="M660.55,479.4c1.81,5.8-5,12.42-9,16-15,13.34-39.32,32.85-56.83,42.54-5.38,3-18.7-10.63-13.46-14.92,7.35-6,14.23-12.64,21.13-19.16S616,491,623,484.76c3.28-2.9,6.61-5.75,10-8.49s7.23-5.76,12-5.72a13.92,13.92,0,0,1,4,.74C653.05,472.55,659.18,475,660.55,479.4Z"/><path class="cls-17" d="M445.78,487.08a2.5,2.5,0,0,1-2.22-.4c-.74-.76-.09-2.21.44-3a9.4,9.4,0,0,1,3.66-2.93c1.85-.93,3.86-1.54,5.62-2.61a3.47,3.47,0,0,0,1.25-1.15,1.19,1.19,0,0,0-.2-1.49c-.79-.62-2.58.12-3.47.33a30.85,30.85,0,0,0-4.22,1.33,22.68,22.68,0,0,0-6.39,3.35c-1.88,1.62-3.31,3.89-5.16,5.61a3.41,3.41,0,0,1-3.6,1,23.5,23.5,0,0,1-2.52-.54.74.74,0,0,1-.41-.21.68.68,0,0,1-.06-.53c.48-3.22,2.13-6.49,3.37-9.53.9-2.19,1.84-4.36,2.81-6.53a4.16,4.16,0,0,1,.91-1.42,5.22,5.22,0,0,1,1.62-.8,47.87,47.87,0,0,0,4.91-2.46c5.7-2.92,12.11-4,18.41-4.95,4.2-.61,8.46-1.29,12.66-1.75,3.39-.37,5.82,3.54,5.83,6.39a8.09,8.09,0,0,1-.22,1.9,9.72,9.72,0,0,1-4.39,5.63c-1,.7-6.24,3.53-7.73,4.5-6.12,4-12.56,7.63-19.56,9.87A10.75,10.75,0,0,1,445.78,487.08Z"/><path class="cls-10" d="M465.43,473.91c8.41,5.43,55.68-21.63,61.51-30.64,1.11-1.71-.57-26.15-3.94-24.4-7.61,4-51.55,33.16-59,38.87C456.74,463.29,458.6,469.51,465.43,473.91Z"/></svg>