<svg id="_Layer_" data-name="&lt;Layer&gt;" xmlns="http://www.w3.org/2000/svg" viewBox="0 0 877.28 882.56"><defs><style>.cls-1{fill:#8bc246;}.cls-2{isolation:isolate;}.cls-3{fill:#8b411d;}.cls-4{fill:#652f0b;}.cls-5{fill:#ac5221;}.cls-6{fill:#521e08;}.cls-7{fill:#e59b24;}.cls-8{fill:#fcb645;}.cls-9{fill:#ffd975;}.cls-10{fill:#a82128;}.cls-11{fill:#1d3f7a;}.cls-12{fill:#1f1f29;}.cls-13{fill:#2f2f3a;}.cls-14{fill:#0f2d60;}.cls-15{fill:#f3e9df;}.cls-16{fill:#2a2a34;}.cls-17{fill:#dc373f;}.cls-18{fill:#f3a984;}.cls-19{fill:#ffc7ad;}.cls-20{fill:#ccbaa7;}.cls-21{fill:#e7dacc;}.cls-22{fill:#ffbfa2;}.cls-23{fill:#d6af75;}.cls-24{fill:#ffceb8;}</style></defs><path class="cls-1" d="M865,675.58c-9.57-18.82-28.41-31.13-47.65-39.82-45-20.35-95.19-25.33-143.21-36.94-123.61-29.92-234-104.25-359.28-126.25-51-8.95-103.09-8.95-154.84-7.78-7.93.18-15.89.4-23.83.81,2.7,2.69,1.56,8.65-3.4,8.7-19.67.19-41.61,5.58-58.77,15.34-11.49,6.54-22.36,15-34.31,20.95-13.77,16.61-33,29.85-38,51.87C1.31,564.3,1,566.22.64,568.2a60.76,60.76,0,0,0,3.21,17.43c11,31.86,43.66,50,73.71,65.22L223,724.48c79.4,40.2,159,80.47,241.91,112.73C531.2,863,603.72,883.79,672.8,866.74c40.27-10,76.29-32.08,111.57-53.9,24.93-15.41,50.46-31.37,68.09-54.79S878.26,701.71,865,675.58Z"/><g class="cls-2"><polygon class="cls-3" points="49.52 528.01 49.6 556.46 263.1 680.53 263.02 652.08 49.52 528.01"/><polygon class="cls-4" points="263.02 652.08 263.1 680.53 538.79 521.48 538.71 493.03 263.02 652.08"/><polygon class="cls-5" points="49.52 528.01 263.02 652.08 538.71 493.03 325.21 368.96 49.52 528.01"/></g><g class="cls-2"><polygon class="cls-6" points="155.41 339.92 155.98 491.67 173.65 501.94 173.09 350.19 155.41 339.92"/><polygon class="cls-4" points="173.09 350.19 173.65 501.94 325.84 414.07 325.27 262.33 173.09 350.19"/><polygon class="cls-5" points="155.41 339.92 173.09 350.19 325.27 262.33 307.6 252.06 155.41 339.92"/></g><g class="cls-2"><polygon class="cls-7" points="155.41 314.38 155.98 328.32 173.65 338.59 173.09 324.65 155.41 314.38"/><polygon class="cls-8" points="173.09 324.65 173.65 338.59 325.84 250.72 325.27 236.79 173.09 324.65"/><polygon class="cls-9" points="155.41 314.38 173.09 324.65 325.27 236.79 307.6 226.52 155.41 314.38"/></g><g class="cls-2"><polygon class="cls-6" points="176.13 348.1 176.19 368.79 331.49 459.05 331.43 438.35 176.13 348.1"/><polygon class="cls-4" points="331.43 438.35 331.49 459.05 475.33 375.91 475.27 355.21 331.43 438.35"/><polygon class="cls-4" points="176.13 348.1 331.43 438.35 475.27 355.21 319.97 264.96 176.13 348.1"/></g><g class="cls-2"><polygon class="cls-5" points="346.68 84.92 364.57 74.53 319.64 22.74 301.75 33.14 346.68 84.92"/><polygon class="cls-5" points="411.95 120.46 429.84 110.07 397.92 25.09 380.02 35.48 411.95 120.46"/><polygon class="cls-5" points="458.06 123.39 475.95 112.99 429.84 110.07 411.95 120.46 458.06 123.39"/><polygon class="cls-4" points="457.38 365.61 475.27 355.21 475.95 112.99 458.06 123.39 457.38 365.61"/><polygon class="cls-8" points="380.02 35.48 346.68 84.92 301.75 33.14 301.06 275.36 457.38 365.61 458.06 123.39 411.95 120.46 380.02 35.48"/><polygon class="cls-3" points="449.27 131.61 405.74 128.85 377.79 54.46 347.56 99.3 310.44 56.53 309.84 270.31 448.65 350.45 449.27 131.61"/></g><path class="cls-10" d="M435.83,243.51a128.68,128.68,0,0,1,7.72,19.55c11.45,38.08,2,77.08-15.07,111.88-5.6,11.44-10.07,26-21.72,32.36-27,14.76-58.55,27.35-84.43,102-3.81,11-9.53,23-7.5,34.69,2.57,14.91,3.82,23.07,6.15,31,1.09,3.68,2.42,7.36,2.49,11.19-4.12.14-8.05-1.59-11.76-3.39-22.14-10.73-26.25-16-36.62-18.85-8.2-2.28-27.64-17.83-44.27-24.49-4-1.6-8.89-2.13-12.7-4-5.15-2.55-32.5-27.68-77.27-34.36-26.55-4-29.35-4.22-30.31-19.07-2.63-40.58,16.87-76.75,21.28-80.75,1.48-1.35,4-2.11,5.64-3.3,16.94-12,19.59-30.94,30.21-39.39,5.37-4.28,11.39-6.81,16.33-11.67,4.68-4.61,10.23-8.29,15.54-12.18,84.16-61.68,27-27.77,76.12-114.8,6.56-11.62,13.19-30.46,26.16-40.32,6.45-4.9,10.83-2.58,19-3,6.41-.35,11.72,1.47,18.34.68C380.87,172.32,417.72,206.48,435.83,243.51Z"/><path class="cls-11" d="M305.13,187.47c-11.66,9.07-34.32,55.46-34.32,55.46s12.5,26.09,16.27,23.5c12.46-8.54,16.16-18.27,20.92-26.24q8.63-14.44,17.26-28.89c2.83-4.75,5.7-9.59,6.93-15a13.91,13.91,0,0,0,.58-4.92,7,7,0,0,0-1.95-3.25,18.85,18.85,0,0,0-6.76-5.12C316.87,179.91,310.61,183.2,305.13,187.47Z"/><path class="cls-12" d="M246.48,535.46c-5.88,12.13-49.76,46-16.79,48.64,28.2,2.22,28.13-11.2,36.64-20.81,3.61-4.09,8.77-7.4,10.4-12.36,1.73-5.23-1.08-9.26-2.84-13.73-1.34-3.43-.41-4.47-1.75-5.75a10.15,10.15,0,0,0-5.06-2.2C259.79,527.81,250,528.27,246.48,535.46Z"/><path class="cls-12" d="M156.41,528c-.51,4.72,1.77,8.94,6.72,11,7.56,3.19,22.74-3.23,30-8.26,10.36-7.2,5.62-8,15.35-9.46,12.66-1.94,19.63-10.92,12.79-27.56-1.1-2.66-1.6-3.52-4.62-4.22-13.54-3.15-17.79,4.83-19,6.49C182.39,516.5,158.37,509.92,156.41,528Z"/><path class="cls-13" d="M227.1,494.43c1.51-3.08,1.08-6.7.9-10.11-.55-10.47,2.16-20.81,1.73-31.22-.41-9.85,1.63-20,1-30.05-.7-11.28-9.42-31.54-9.42-31.54s-35.67-5.41-36.22-.75c-1.8,15.23,6.19,32.66,8.54,41.55,13.1,49.61,12.1,60.34,15.87,64.34C213.49,500.87,224.56,499.61,227.1,494.43Z"/><path class="cls-13" d="M228,346.16c-16.83,11-40.21,31.75-41.9,35.8-1.55,3.76-2.41,14.55,1.51,18.64,3.56,3.74,9.58,3,14.7,2.33,6-.73,12.09-.86,18.11-1.51,16-1.71,60.41-13.65,76.77-20.58,9.1-3.85,19.34-8.2,27.17-14.31,4.26-3.32,10.12-7.23,10.58-13.13.23-2.82-1-5.54-2.2-8.1-3.33-7.13-3.68-29.09-4.65-28.91C318.92,318.09,257.26,327.11,228,346.16Z"/><path class="cls-13" d="M381.93,339.58a28.3,28.3,0,0,0-24.29-8.92c-8.89,1.27-19.49,7.65-25.7,14.12-4.82,5-8,11.38-12.45,16.73-5.66,6.81-14.18,10.36-20.13,16.84a259.7,259.7,0,0,1-22.42,22.34c-5,4.3-10.37,8.28-14.87,13.13s-8.2,10.73-9.1,17.29,1.46,13.8,6.93,17.52,12.79,3.3,19.11,1.4c8.86-2.67,16.7-7.86,24.39-13,10-6.62,19.9-13.24,29.55-20.27,3.89-2.84,7.18-5.4,11.58-7.13a71.75,71.75,0,0,0,11.4-5.61c7.25-4.51,13.42-10.42,20.15-15.44a36,36,0,0,0,13.39-22,32.17,32.17,0,0,0-6.84-26.2Z"/><path class="cls-14" d="M332,176.48c-12.31.88-20.88,11.94-26.42,22-6.34,11.49-5.53,29.82-6.7,42.67-4,43.44-2.87,61.75-17.92,73.94-26.47,21.42-37.51,21.66-53.56,29.59-3.51,1.74-6.1,4.06-9.28,6.15-4.21,2.76-19.23,7.5-29,24.81-10.12,17.92-10.47,44.72-13,64.83-2,16.27-2.33,33.15,3,48.66s17,29.52,32.78,34.14c10.73,3.16,22.43,1.83,33.08,5.27,10.37,3.34,18.82,10.9,28.68,15.54s23.24,5.52,30.2-2.86c5.65-6.8,4.78-16.67,4-25.46a300,300,0,0,1-.78-42.61c.52-9.88-.8-20.29-.07-29.88,1.62-21.12,36.93-30.36,52.24-39.36,49.45-29.06,36.17-57.88,35.4-74-3-63.18,6.48-35.42,15.85-76.79,2.51-11.11,7-28.77-.89-38.64-5.84-7.32-15.89-14.28-23.8-19.27C368.29,184.1,339.86,175.91,332,176.48Z"/><path class="cls-8" d="M292.38,297.28c-3.44,9.89-8.08,13.63-14.74,20.43,22.49,29.77,65,45.32,115.65,41.18,8.75-.72,9.89-3.76,9.32-8.76-.47-4.07-.51-15.15-3.5-18.17-3.76-3.8-8.11-1.51-13.35-.94a109.17,109.17,0,0,1-35.18-2C327.55,324,307.67,315.33,292.38,297.28Z"/><path class="cls-15" d="M337,191.28a31.16,31.16,0,0,0,.67,7c.66,3,1.82,5.93,2.35,9,1.28,7.41-1.31,15.09-5.54,21.31-3.75,5.51-10.6,14.4-17.35,15.61a29.49,29.49,0,0,1-23-6.18,27.34,27.34,0,0,1-10-20.34c-.09-5.86,1.8-11.58,4.28-16.88a63,63,0,0,1,17.25-22.63A46.23,46.23,0,0,1,332,167.73c2-.09,6.61-.86,8.16.58,1.92,1.78.21,5.11-.36,7.18A62.7,62.7,0,0,0,337,191.28Z"/><path class="cls-16" d="M329.71,222.34c-.64,4.24-5.69,10.61-7.66,6a2.12,2.12,0,0,1,.51-2.12,26.79,26.79,0,0,0,4.08-5.05A1.66,1.66,0,0,1,329.71,222.34Z"/><path class="cls-16" d="M311.88,236.6c-.78,1.28-1.54,2.91-3.11,3.26a2.11,2.11,0,0,1-2.66-1.94c-.15-1.59,1.16-2.81,2.13-3.94C311.64,230,314.55,232.21,311.88,236.6Z"/><path class="cls-16" d="M291.76,222.76c2.1-2,4.59-5.68,6.06-3.85,1,1.28-.33,3.59-1.09,4.71-1,1.54-2.42,3.81-4.49,3.75S289.39,225.06,291.76,222.76Z"/><path class="cls-16" d="M296.17,196a1.61,1.61,0,0,1,2.3,1.52c-.22,1.24-1.86,6.21-3.09,7.4a2.13,2.13,0,0,1-3.46-1.17C291.31,201,293.81,197.27,296.17,196Z"/><path class="cls-16" d="M313.41,204.35a1.1,1.1,0,0,1,1,.77c.82,2.48-1.85,5.73-3.07,7.68-2,3.17-6.41.07-4.18-3C308.56,207.93,310.75,204.32,313.41,204.35Z"/><path class="cls-17" d="M336.9,197.31c.28,9.76,1.51,19.49,1.49,29.25A163.23,163.23,0,0,1,307.63,202c-4.3-4.4-8.58-9.61-8.67-15.76a8.79,8.79,0,0,1,1.46-5.27,13,13,0,0,1,3.63-3.07c5.17-3.39,10.39-6.8,16.15-9,3.71-1.42,20.49-5.74,19.94,1.94-.3,4.2-2.26,8.52-2.75,12.81A94.94,94.94,0,0,0,336.9,197.31Z"/><path class="cls-17" d="M262.46,268.59c-8.32,30.23-16.74,55.35-41.69,74.33-13.11,10-28.37,16.91-41.25,27.19-13.31,10.62-23.59,24.63-30.81,40-6.57,14-12.81,31.43-11.33,47a154.27,154.27,0,0,0,7.8,35.85c.63,1.83,3.77,9.58,3.77,9.58s-7.34-1.33-9.78-1.39c-6-.16-12-1.77-18-2.22-4.78-.36-9.6,0-14.38-.39s-9.68-1.63-13.33-4.75a9.68,9.68,0,0,1-3.09-4.31A13.79,13.79,0,0,1,90.1,484c1.09-12,2.69-24.08,6.54-35.51,6.67-19.79,19.68-36.67,30.93-54.26,12.55-19.62,30.15-36.74,48.8-50.73,7.24-5.43,15.15-9.92,22.37-15.36,8.3-6.25,15.61-13.7,22.88-21.11,11.93-12.15,22.26-33,29.11-48.6,29.13-66.21,51.09-78.78,51.09-78.78s16.89,11.17,4.31,19.88C279.25,218.11,270.87,238.08,262.46,268.59Z"/><path class="cls-18" d="M377.29,193c-1,10.15-15.51,20.36-28.42,17.14-3.63-.9-7-3.08-8.18-6s-1.81-8.78-3.14-21.38c-.39-3.66,1.44-5.7,2.12-9.34,1.1-5.94,5.4-10.24,11.24-14.24a20.07,20.07,0,0,1,6.62-2.94,45.19,45.19,0,0,1,11-1.43c2.61,0,6.3.11,8.22,1.9a2.79,2.79,0,0,1,.76,3.12C372.94,180,378,186,377.29,193Z"/><path class="cls-14" d="M353.39,196.89c8.76-2.34,13.44-11.69,21.62-17.53l.7-.34c.48,6.25,2,10,1.58,14-1,10.15-15.51,20.36-28.42,17.14-3.63-.9-7-3.08-8.18-6a27.66,27.66,0,0,1-1.36-6A33.08,33.08,0,0,0,353.39,196.89Z"/><g class="cls-2"><polygon class="cls-6" points="314.69 414.05 315.26 565.79 332.94 576.06 332.37 424.31 314.69 414.05"/><polygon class="cls-8" points="332.37 424.31 332.94 576.06 485.12 488.19 484.55 336.45 332.37 424.31"/><polygon class="cls-4" points="476.34 483.15 475.85 351.6 341.15 429.36 341.64 560.91 476.34 483.15"/><polygon class="cls-5" points="314.69 414.05 332.37 424.31 484.55 336.45 466.88 326.18 314.69 414.05"/></g><g class="cls-2"><polygon class="cls-8" points="314.69 388.51 315.26 402.44 332.94 412.71 332.37 398.78 314.69 388.51"/><polygon class="cls-8" points="332.37 398.78 332.94 412.71 485.12 324.85 484.55 310.91 332.37 398.78"/><polygon class="cls-9" points="314.69 388.51 332.37 398.78 484.55 310.91 466.88 300.64 314.69 388.51"/></g><path class="cls-11" d="M425.21,333.32c3.42-1.17,5.74,1.22,6.69-1.59,2.14-6.27-3.38-71.31-21.2-100.42-3.86-6.31-18.05-6.73-23.51,7.86s-1.94,26.89,1.06,34.32c2.22,5.49,8.52,42.51,11.37,52.12C402.21,334.33,416.85,336.16,425.21,333.32Z"/><path class="cls-15" d="M425.11,232.9c3.11,13.08,8.9,27.68,10.21,40.93,1,10-9,21.22-17.69,25-10.84,4.77-23.67,1.83-34.12-3.75-15.23-8.14-27-22-33.47-38-5.68-14-11.19-38.91,1.21-50.48,3.24-3,7-5.42,10.46-8.16a67.63,67.63,0,0,0,12-12.28,18.64,18.64,0,0,0,2.7-4.92C416.38,198.92,424.08,228.6,425.11,232.9Z"/><path class="cls-16" d="M414,231.49a1.2,1.2,0,0,1,1.42-.19c2.3,1.32,2.29,5.85,2.6,8.16.49,3.52-4.71,4.13-4.76.64,0-1.62-.13-3.25-.16-4.87C413.09,233.88,413,232.51,414,231.49Z"/><path class="cls-16" d="M386.88,234.16c.19-1.52,2.1-2.8,3.35-1.39,1.53,1.74,1.78,3.91,2.08,6.13.18,1.35-1.29,2.52-2.52,2.52a2.56,2.56,0,0,1-2.51-2.52C387.18,237.31,386.68,235.75,386.88,234.16Z"/><path class="cls-16" d="M357.89,233.07c.09-.67.57-1.48,1.39-1.39,3.35.39,3.39,5.27,3.71,7.81s-4.5,3.78-4.86,0A56.36,56.36,0,0,1,357.89,233.07Z"/><path class="cls-16" d="M379.93,254.72a1.11,1.11,0,0,1,1.29-.17c2.3,1.25,2.6,5.44,3,7.69a2.59,2.59,0,1,1-5.1.7C378.87,260.65,378,256.52,379.93,254.72Z"/><path class="cls-16" d="M405.14,257c2.44,3.52,3.16,11.61-1.43,9.63a2.11,2.11,0,0,1-1.09-1.89,26.55,26.55,0,0,0-.51-6.47A1.66,1.66,0,0,1,405.14,257Z"/><path class="cls-16" d="M424.35,253.78c2.23.39,3,3.67,3.56,5.5.72,2.47,1.68,5.11,0,7.36a1,1,0,0,1-1.35.36c-2.77-1.49-3.14-5.18-3.6-8C422.78,258,422,253.38,424.35,253.78Z"/><path class="cls-16" d="M421.54,283.87c.32,1.47.89,3.18,0,4.51a2.12,2.12,0,0,1-3.27.42c-1.2-1.05-1.1-2.84-1.16-4.33C416.86,279.27,420.46,278.84,421.54,283.87Z"/><path class="cls-16" d="M391.83,288.54c.12-2.94-.57-7.29,1.75-7,1.63.22,2.22,2.83,2.44,4.16.31,1.84.86,4.44-.67,5.82S391.68,291.83,391.83,288.54Z"/><path class="cls-16" d="M360.76,262.67a1.61,1.61,0,0,1,2.72-.48c.69,1.05,2.91,5.78,2.84,7.5a2.13,2.13,0,0,1-3.32,1.53C360.66,269.64,359.94,265.23,360.76,262.67Z"/><path class="cls-17" d="M347.14,227.1c-.81,0-9.43-1.65-9.2-2.52.77-2.85,3.91-4.21,6.52-5.59,7.51-4,29.78-25,35.52-31.23,3.13-3.38,5.53-4.94,9.89-3a52.4,52.4,0,0,1,9.95,5.71c21.75,15.94,34.78,40.09,43.46,65.75,7.1,21,5.19,48,5.19,48s-10.25,25.06-12.06,21.45a2.69,2.69,0,0,1-.78-.21c-.3-.23-.3-.61-.45-.93-5.66-12.45-3.14-17.51-1.92-30.33,2.05-21.73-5.61-48.38-25.72-60.25C391,224.27,351.65,227.11,347.14,227.1Z"/><path class="cls-15" d="M318.16,538.67c-13.53,32.33-69.43,11-97.89,2.79-56.83-16.3-59.14-44.82-58.6-57.69.6-14.47,8.74-17,13.1-14.71,3.08,24.38,77.32,52.08,91.92,52.78,12.14.58,24.79,3.44,36.47-1.48,1.59-.67,3.28-1.29,4.19-2.74s.84-3.83,3.75-3C315.18,515.81,323.78,525.24,318.16,538.67Z"/><path class="cls-16" d="M298.93,526.64a21.54,21.54,0,0,0,4.08-.23c1.24-.3,2.58-1.09,3.88-1a.74.74,0,0,1,.68.91c-.35,1.9-2.8,2.92-4.44,3.44s-4.52,1.15-5.61-.71A1.65,1.65,0,0,1,298.93,526.64Z"/><path class="cls-16" d="M294.54,544.64c1-.3,2.12.2,3.21.06.85-.11,1.63-.48,2.5-.56.67-.06,1.17.66,1.17,1.25,0,3.29-5.86,5.29-7.92,2.83A2.18,2.18,0,0,1,294.54,544.64Z"/><path class="cls-16" d="M264.4,531.6a2.49,2.49,0,0,1,2.39-2.1,19.84,19.84,0,0,1,6,.53c1,.2,2.69.45,2.48,1.83s-2.28,1.82-3.39,2.08a14.8,14.8,0,0,1-5.77.33A2.42,2.42,0,0,1,264.4,531.6Z"/><path class="cls-16" d="M250.92,542c1.54.37,3,1.13,4.56,1.58,1.81.53,4,.43,5.55,1.6a.92.92,0,0,1,0,1.56,11.63,11.63,0,0,1-7.69,1.16c-2.06-.43-4.31-2.24-4.22-4.53A1.44,1.44,0,0,1,250.92,542Z"/><path class="cls-16" d="M238.63,519.52c1.09.4,9.1,3,7.3,5.18-.83,1-2.2.76-3.36.55-1.67-.31-3.31-.65-5-.86C234,523.93,235.26,518.29,238.63,519.52Z"/><path class="cls-16" d="M222,527.65a16.77,16.77,0,0,1,3,1.51c.91.46,1.88.88,2.82,1.28a1.38,1.38,0,0,1-.33,2.5c-2.4.45-5.76.16-7.54-1.75A2.14,2.14,0,0,1,222,527.65Z"/><path class="cls-16" d="M195.27,523.19c1.8-.1,3.06,1.21,4.44,2.16.64.43,1.29.86,1.92,1.31s1.23,1.09,1.88,1.54a.67.67,0,0,1-.34,1.23,12,12,0,0,1-2.93,0,11,11,0,0,1-2.69-.93c-1.8-.83-3.42-1.85-3.65-4C193.82,523.79,194.6,523.23,195.27,523.19Z"/><path class="cls-16" d="M200.8,507.49c1.92-.48,3.4,1.12,4.92,2.07a30.07,30.07,0,0,1,3.22,1.84.38.38,0,0,1,.22.07c.42.32.33.33.53.79a.77.77,0,0,1-.12.91c-1.44,1.15-3.78.56-5.39.05-1.94-.62-4.62-1.67-4.67-4A1.79,1.79,0,0,1,200.8,507.49Z"/><path class="cls-16" d="M179.05,490.57a2.23,2.23,0,0,1,2.35-1.21,5.4,5.4,0,0,1,2.75,1.75c1.43,1.28,3.47,2.41,4.42,4.12a1,1,0,0,1-.59,1.45c-1.86.33-3.8-.56-5.43-1.4S177.94,493,179.05,490.57Z"/><path class="cls-16" d="M173.63,502.27c1.44,1,2.29,2.63,3.29,4a11.78,11.78,0,0,1,2.31,4,.77.77,0,0,1-.74,1,7.41,7.41,0,0,1-4.48-2.12c-1.41-1.16-3.06-2.61-3.52-4.44S172,501.18,173.63,502.27Z"/><path class="cls-16" d="M170.76,474.13c.33,1.8,1.19,4.37.21,6.06a1.68,1.68,0,0,1-2.25.59c-1.68-1-2.23-3.61-2.83-5.31C164.79,472.38,170.16,470.93,170.76,474.13Z"/><path class="cls-8" d="M284,355.24c-5.72,2.41-11.45,5.16-15.82,9.56-6.08,6.13-8.88,14.82-10.2,23.36-3.43,22.27,1.83,44.88,2.5,67.41.05,1.77,0,3.73-1.18,5.05a6.47,6.47,0,0,1-3.34,1.67,32.45,32.45,0,0,1-17.51-.5,7.18,7.18,0,0,1-3.94-2.39,7.85,7.85,0,0,1-1.05-4.17c-.72-13.09.45-26.2,1.62-39.26q1.32-14.66,2.63-29.32c.55-6.17,1.13-12.47,3.58-18.16,4.07-9.45,12.81-16.09,22-20.8s19-7.91,28-13c4.37-2.48,9.3-5.39,14.23-2.68,2.87,1.58,7.44,6.81,6.49,10.32C310.09,349.17,289.8,352.78,284,355.24Z"/><path class="cls-17" d="M447,326.18c-3.75,16.92-15.09,24.13-16.78,35-3.16,20.23,3.95,45.8,11.95,64.36,9.13,21.18,19,42.13,27.54,64,7.58,19.44,17.76,38.88,34.79,50.93q-11.86,12.23-24.2,24c-9,8.62-19.31,17.54-31.77,18.16-14.1.72-26.94-9.49-41.06-9.21-15.69.31-27.9,13.1-42,20a58.87,58.87,0,0,1-41.85,3.44c-5.39-1.59-10.74-4.12-14.23-8.52-5.83-7.36-5.07-17.83-3.47-27.08,3.86-22.41,12.48-43.28,17.49-65.32,4.87-21.45,1.12-44.29-8.52-63.9-3.81-7.77-8.12-12.53-7.62-21.45.45-7.74,1.93-16.47,6.33-23,4.52-6.73,129.23-82.93,135-86.84C448.53,300.64,448.33,319.92,447,326.18Z"/><path class="cls-19" d="M367.67,378.67c-1.05.87-2.2,1.6-3.31,2.39-5.95,4.25-10.62,10-16,15A5.52,5.52,0,0,1,346,397.5a2,2,0,0,1-2.33-1c-.12-.33-.13-.72-.38-1s-.94-.14-1.34.13c-1.19.82-1.94,2.21-3.24,2.81a3.32,3.32,0,0,1-4.44-2.3c-.13-.7,0-1.43-.13-2.13a1.74,1.74,0,0,0-1.23-1.56c-1.26-.2-2.25,1.68-3.46,1.27-.76-.26-.94-1.26-.83-2.06a4.33,4.33,0,0,0,.06-2.39c-.75-1.68-3.81-1.2-4.47-2.93a2.55,2.55,0,0,1,.05-1.59c.93-3.24,4-5.47,5.12-8.65.8-2.32.49-5,1.65-7.14a9.57,9.57,0,0,1,1.64-2.11A29.06,29.06,0,0,1,349,358.39c5.19-.81,10.6-.2,15.65-1.69,2.13-.63,4.18-1.63,6.39-1.84a9.28,9.28,0,0,1,4.3.64,3.06,3.06,0,0,1,1,.64,3,3,0,0,1,.64,1,8.11,8.11,0,0,1,.51,4c-.48,3.67-3.57,5.91-4.53,9.28A16.74,16.74,0,0,1,367.67,378.67Z"/><path class="cls-11" d="M357.2,369.8c6.64,11.2,9.27,13.93,18.86,7.4,38.13-26,53.28-35.31,56-45.46,2.26-8.55-1.37-28.77-1.37-28.77s-14,6.83-31,17.56c-12.73,8-26.59,18.53-40.61,28.33C350,355.17,352,361.06,357.2,369.8Z"/><path class="cls-8" d="M327.37,222.2a10.19,10.19,0,1,1,9,11.27A10.18,10.18,0,0,1,327.37,222.2Z"/><path class="cls-19" d="M331.68,133a35.16,35.16,0,0,0-4.38,9.47,33.67,33.67,0,0,0-1.32,8.34c-.09,3,1.53,5.5,1.75,8.46.14,1.92-1,3.8-1.49,5.65-1.19,4.54-1.08,9-.77,13.59a49.81,49.81,0,0,0,1.74,11.56c.59,1.9,1.33,4.33,2.68,5.84s4.67,1.82,6.67,1.62A42.89,42.89,0,0,0,349,194.12c1.86-.79,3.7-1.68,5.53-2.5a38.39,38.39,0,0,0,5.42-3,25.36,25.36,0,0,0,2.73-2.1,16.48,16.48,0,0,0,4.79-7.17c.3-1,.25-2.31,1.14-2.94,1.09-.76,2.53,0,3.59-.63.46-.28,1-1.37,1.29-1.85s1.14-3.69,2-3.71a7.82,7.82,0,0,0,2.75-1.25c1.41-.78,1.79,2.52,2.35,1,2.41-6.41,5.34-12.93,5.62-19.88.26-6.37.84-11.8-2.8-17.53a27.6,27.6,0,0,0-11.49-9.82,34.13,34.13,0,0,0-22.81-2.26A28,28,0,0,0,335.72,128,34.29,34.29,0,0,0,331.68,133Z"/><path class="cls-13" d="M357.23,147.16c2.84,2.27,3.79,6.5,4.61,9.9,1.68,6.92-1.51,15.42,2.51,16.61,3.76,1.12,6.16-6.27,10.37-6.74a3,3,0,0,1,3,1.25c.81,1.32.41,3-.15,4.38a15.1,15.1,0,0,1-1.8,3.05,4.7,4.7,0,0,0-.6.75,2.36,2.36,0,0,0,0,.88l0,2.16c0,.54,1.47-.06,1.75-.15a9.13,9.13,0,0,0,1.9-.81c3.77-2.28,13.47-11,14.31-29.84C394,129.43,381.88,125,381.88,125a28.9,28.9,0,0,0-22.81-11.27c-12.76-.24-26.24,4.5-31.88,16.68-4.63,10-1.41,16.66-1.41,16.66s.23-3.39,2.64-4.4c3.15-1.3,6.47-.6,9.67.1a92.79,92.79,0,0,0,11.25,1.94,17.27,17.27,0,0,1,7,1.78A8.56,8.56,0,0,1,357.23,147.16Z"/><path class="cls-13" d="M363,180.68a13.69,13.69,0,0,1-.06-1.92,9.06,9.06,0,0,1,1.74-5.19c.76-1,1.75-1.72,2.43-2.74a5.45,5.45,0,0,0,.88-3.51c-.15-1.79-.71-1.35-2.13-1.76a7,7,0,0,0-3.56-.36c-1.45,6.1-3.14,10.88-7,16.11-3.56,4.78-10.47,8.93-13.66,4.95-3.64-4.53-6.41-6.08-12.46-6.44-2.51-.16-3.08-2.57-3.86-4.75-1.19,4.85-1.43,1.51-5.55,22.76-.78,4-1.42,12.42-.32,16.42,1.47,5.88,9.12,8.63,14.45,9,7.85.59,13.87-3.51,19.57-8.32a38.31,38.31,0,0,0,3.74-3.46,25.29,25.29,0,0,0,5.71-12.56C364,192.76,363.57,186.84,363,180.68Z"/><path class="cls-19" d="M376.64,164.13c5,.64,5,7,.72,11.07a24.87,24.87,0,0,1-4.75,2.91c-10.31,5.79-10.93-2.79-7.62-4.8C372.68,168.64,370.35,163.33,376.64,164.13Z"/><path class="cls-18" d="M371.37,175.63c.67-.41,7-2.63,3.57-5.65a1.74,1.74,0,0,0-2.7,1c-.2.56-.13,1.2-.33,1.77a2.71,2.71,0,0,1-.57.89c-.67.72-2.53,1.17-2.43,2.43C369,177.14,371,175.87,371.37,175.63Z"/><path class="cls-19" d="M335.17,186.15a1.21,1.21,0,0,1,.5.82,1.12,1.12,0,0,1-.74.87,5.11,5.11,0,0,1-3.45.2,11.13,11.13,0,0,1-3.15-1.55,4.89,4.89,0,0,1-1.75-1.69,1.07,1.07,0,0,1-.05-1.08,1.32,1.32,0,0,1,1.21-.35,10.58,10.58,0,0,1,4,.6A13.73,13.73,0,0,1,335.17,186.15Z"/><path class="cls-8" d="M327.46,110a43.62,43.62,0,0,0,6.88,9.17,154.85,154.85,0,0,1,10.4-19.24c3.33,3.68,7.34,8.2,11.86,13.87,2.64-3.33,6.1-7.59,11.76-13.89a148.33,148.33,0,0,1,10.14,18.66,46.19,46.19,0,0,0,6.8-9,106.73,106.73,0,0,1,2.51,22v-.26l0,4.49c0-4.61-3.05-9.21-9.09-12.72-12.18-7.08-32.11-7-44.36.07-6.08,3.55-9.12,8.19-9.11,12.82v-4.16A106.5,106.5,0,0,1,327.46,110Z"/><path class="cls-9" d="M387.81,131.31a17.45,17.45,0,0,0-2.18-8.1,106.09,106.09,0,0,1-6.72,21.31c-9.49-10.16-9.49-10.16-10.39-11.16A194.18,194.18,0,0,1,356.76,150a198.78,198.78,0,0,1-11.87-16.48c-1.85,2.06-1.85,2.06-10.31,11.23a104.47,104.47,0,0,1-7-21.1,18.05,18.05,0,0,0-2.33,8.39V136c0,4.61,3.05,9.21,9.09,12.73,12.18,7.07,32,7.07,44.23,0,6.17-3.56,9.25-8.24,9.24-12.9l0-4.49Z"/><path class="cls-16" d="M208.37,512.63a0,0,0,0,1,0,.06A0,0,0,0,1,208.37,512.63Z"/><path class="cls-19" d="M233.71,291.85c-1.08,2.68-1.17,5.65-1.91,8.44-1.79,6.71-7.15,11.8-12.47,16.26a2.92,2.92,0,0,1-1,.64,1.83,1.83,0,0,1-2-1.07,3.56,3.56,0,0,1-.1-2.43c.59-2.35,2.3-4.24,3.48-6.36s1.76-5,.16-6.82a4.89,4.89,0,0,0-4.82-1.23,11.78,11.78,0,0,0-4.5,2.56,42.8,42.8,0,0,0-5.76,5.74c-1.49,1.82-2.91,3.81-5,4.94a2.58,2.58,0,0,1-2.72.15c-.36-.28-.58-.71-1-1-1.62-1.08-3.53,2.05-5.37,1.39-2.06-.75-.58-4.73-2.56-5.68-.5-.24-1.11-.19-1.59-.48-.83-.51-.8-1.73-.58-2.68a14.09,14.09,0,0,1,1.47-3.7,2.09,2.09,0,0,0,.4-1.18c-.06-.58-.61-1-.93-1.46-.76-1.19-.05-2.75.65-4a31.2,31.2,0,0,1,5.6-7.73,24.53,24.53,0,0,1,5.17-3.42,56.46,56.46,0,0,1,11.79-4.57,37.1,37.1,0,0,0,6.81-2.12,44.17,44.17,0,0,0,4-2.38,36.19,36.19,0,0,1,10.63-4.41,9.05,9.05,0,0,1,3.58-.3,8.7,8.7,0,0,1,3.55,1.69c2.95,2.13,7.8,7.24,4.69,11-1.45,1.74-3.63,2.84-5.32,4.34A16,16,0,0,0,233.71,291.85Z"/><path class="cls-11" d="M268.29,278.57C261.7,282,237,296.34,232.07,295.86c-2.68-.26-14.71-17.46-15.1-19.81-.17-1,55.42-34.06,55.42-34.06s7.9-4.81,16.85,11.17C295.65,264.6,280.42,272.24,268.29,278.57Z"/><g class="cls-2"><polygon class="cls-3" points="336.61 684.89 336.68 711.39 535.54 826.95 535.47 800.45 336.61 684.89"/><polygon class="cls-4" points="535.47 800.45 535.54 826.95 792.33 678.8 792.25 652.31 535.47 800.45"/><polygon class="cls-5" points="336.61 684.89 535.47 800.45 792.25 652.31 593.39 536.74 336.61 684.89"/></g><g class="cls-2"><polygon class="cls-6" points="441.17 514.1 441.7 655.44 458.16 665.01 457.63 523.67 441.17 514.1"/><polygon class="cls-4" points="457.63 523.67 458.16 665.01 599.91 583.17 599.38 441.83 457.63 523.67"/><polygon class="cls-5" points="441.17 514.1 457.63 523.67 599.38 441.83 582.92 432.26 441.17 514.1"/></g><g class="cls-2"><polygon class="cls-7" points="441.17 490.32 441.7 503.3 458.16 512.86 457.63 499.88 441.17 490.32"/><polygon class="cls-8" points="457.63 499.88 458.16 512.86 599.91 431.02 599.38 418.04 457.63 499.88"/><polygon class="cls-9" points="441.17 490.32 457.63 499.88 599.38 418.04 582.92 408.48 441.17 490.32"/></g><g class="cls-2"><polygon class="cls-6" points="451.45 550.28 451.5 569.55 596.15 653.62 596.1 634.34 451.45 550.28"/><polygon class="cls-5" points="596.1 634.34 596.15 653.62 730.12 576.18 730.07 556.9 596.1 634.34"/><polygon class="cls-5" points="451.45 550.28 596.1 634.34 730.07 556.9 585.42 472.84 451.45 550.28"/></g><g class="cls-2"><polygon class="cls-5" points="613.39 272.18 630.05 262.5 588.2 214.26 571.53 223.95 613.39 272.18"/><polygon class="cls-5" points="674.18 305.29 690.85 295.6 661.11 216.45 644.45 226.13 674.18 305.29"/><polygon class="cls-5" points="717.13 308.01 733.8 298.32 690.85 295.6 674.18 305.29 717.13 308.01"/><polygon class="cls-4" points="716.49 533.62 733.16 523.94 733.8 298.32 717.13 308.01 716.49 533.62"/><polygon class="cls-8" points="644.45 226.13 613.39 272.18 571.53 223.95 570.89 449.56 716.49 533.62 717.13 308.01 674.18 305.29 644.45 226.13"/><polygon class="cls-3" points="708.95 315.67 668.4 313.1 642.37 243.81 614.2 285.58 579.63 245.74 579.07 444.86 708.37 519.51 708.95 315.67"/></g><path class="cls-20" d="M671.87,435.62c10.14,27.85,12.71,58.45,9.88,87.78-3.62,37.39-15.81,73.52-31.41,107.69-12.33,27-27,53.43-33.11,82.49-2.6,12.31-5.35,27.21-17.08,31.74-6.32,2.44-13.48.86-19.79-1.62-24.6-9.7-42-36.13-67.28-43.23-29.31-8.24-60.43-12.21-90.45-17.88-10.78-2-22.75-5.2-28.29-14.66-3-5.14-3.55-11.34-3.53-17.29A108.31,108.31,0,0,1,413.48,585c14.92-19.15,35.75-32.61,54.09-48.52a253.21,253.21,0,0,0,64.81-87.14c6.15-13.69,11.1-28,18.4-41.09,8.88-16,22.61-32.65,41.86-34.06,4.37-.32,8,1.36,12.49.63,27.92-4.51,51.11,25.8,61.43,47.93Q669.5,429.09,671.87,435.62Z"/><path class="cls-17" d="M547,752.13a80.83,80.83,0,0,0,25.81-6.7c3.9-1.81,10.72-5.2,12.09-9.71.73-2.38,0-6.22.05-8.75,0-3.19.06-6.38.23-9.56a250.2,250.2,0,0,1,6.39-44.49c2.39-10.09,5.54-20.28,11.83-28.53,8.59-11.27,21.71-17.43,32.93-25.61,10.77-7.85,21.39-20.36,28.84-31.4,5.28-7.82,4.83-15.89,4.19-25.08q-1.26-18.22-2.53-36.46c-.13-1.93-1.33-26.82-4.12-25.58-21.11,9.39-43.42,15.38-66.92,10.21-8.53-1.87-5-15.66-13.5-15-11.14.83-35.31,13.5-45.49,17.8-27.06,11.43-67.65,34.93-71.67,38.54-4.84,4.35-7.66,10.68-11.63,15.78-2.11,2.71-4.17,5.45-6.15,8.26-17,24-23.52,50.7-33.25,77.9-1.87,5.21-3.21,9.18-1.7,14.58a101.45,101.45,0,0,0,21,39.15c6.22,7.17,13.41,13.42,20.68,19.52,8.2,6.87,16.65,13.64,26.38,18.07,13.47,6.12,28.6,7.38,43.39,7.74A180.7,180.7,0,0,0,547,752.13Z"/><path class="cls-21" d="M557.38,716.32c-9.14,2.3-18.69,2.42-28.11,2.11a121.08,121.08,0,0,1-22.48-2.4c-8.47-1.88-16.55-5.21-24.39-8.92-26.72-12.66-51.76-30.57-67.81-55.4-5,5.16-7.35,12.41-7.7,19.57s1.19,14.27,3.19,21.14a43.14,43.14,0,0,0,4.25,10.51,41.61,41.61,0,0,0,9.14,9.87c12.42,10.41,26.76,18.25,41.24,25.54,24.57,12.38,51.58,23.66,78.8,19.59,8.49-1.27,16.78-4,25.36-4.41a37.59,37.59,0,0,0,7.51-.63c7.69-1.94,12.08-10.25,13.17-18.1,1-7.36.6-22.36-7-26.64C575.86,704.41,564.29,714.59,557.38,716.32Z"/><path class="cls-16" d="M553,725.53a22.39,22.39,0,0,0,4.08-.22c1.25-.3,2.58-1.1,3.88-1a.72.72,0,0,1,.68.9c-.35,1.9-2.8,2.92-4.44,3.44s-4.52,1.15-5.61-.7A1.66,1.66,0,0,1,553,725.53Z"/><path class="cls-16" d="M553,744.81c1-.3,2.12.2,3.21.06.85-.11,1.63-.48,2.5-.56a1.23,1.23,0,0,1,1.17,1.25c0,3.29-5.86,5.29-7.92,2.83A2.18,2.18,0,0,1,553,744.81Z"/><path class="cls-16" d="M523.32,734.15A2.48,2.48,0,0,1,525.7,732a19.79,19.79,0,0,1,6,.54c1,.19,2.7.44,2.49,1.82s-2.28,1.82-3.4,2.09a14.74,14.74,0,0,1-5.76.32A2.4,2.4,0,0,1,523.32,734.15Z"/><path class="cls-16" d="M507.24,743.38c1.54.37,3,1.14,4.55,1.59,1.82.53,4,.43,5.56,1.6a.92.92,0,0,1,0,1.56,11.56,11.56,0,0,1-7.69,1.15c-2.06-.42-4.31-2.23-4.22-4.52A1.45,1.45,0,0,1,507.24,743.38Z"/><path class="cls-16" d="M497.88,718.61c1.08.4,9.09,3,7.3,5.18-.84,1-2.2.76-3.36.55-1.67-.31-3.32-.64-5-.86C493.24,723,494.5,717.38,497.88,718.61Z"/><path class="cls-16" d="M575.17,731.36c1.15,0,9.57-.38,8.65,2.29-.42,1.24-1.79,1.48-3,1.69-1.67.3-3.33.57-5,.95C572.37,737.12,571.57,731.39,575.17,731.36Z"/><path class="cls-16" d="M481.39,731.77a16.77,16.77,0,0,1,3,1.51c.92.46,1.89.88,2.83,1.28a1.38,1.38,0,0,1-.33,2.5c-2.4.45-5.77.16-7.54-1.75A2.13,2.13,0,0,1,481.39,731.77Z"/><path class="cls-16" d="M454,722.89c1.8-.1,3.06,1.21,4.44,2.15.64.44,1.29.86,1.92,1.32s1.24,1.09,1.88,1.54a.67.67,0,0,1-.33,1.23,12,12,0,0,1-2.94,0,11.13,11.13,0,0,1-2.69-.93c-1.79-.83-3.41-1.85-3.65-4C452.59,723.49,453.37,722.93,454,722.89Z"/><path class="cls-16" d="M459.44,706.39c1.93-.49,3.41,1.12,4.92,2.07a30.19,30.19,0,0,1,3.23,1.84.4.4,0,0,1,.22.07c.41.32.33.33.53.79a.77.77,0,0,1-.12.91c-1.44,1.15-3.78.56-5.4,0-1.93-.62-4.62-1.67-4.66-4A1.78,1.78,0,0,1,459.44,706.39Z"/><path class="cls-16" d="M437,688.21a2.24,2.24,0,0,1,2.36-1.21,5.37,5.37,0,0,1,2.74,1.75c1.44,1.28,3.48,2.41,4.42,4.12a1,1,0,0,1-.59,1.45c-1.86.33-3.8-.56-5.42-1.41S435.84,690.61,437,688.21Z"/><path class="cls-16" d="M428.67,704.59c1.73.25,3.21,1.35,4.73,2.17a12,12,0,0,1,3.82,2.56.77.77,0,0,1-.24,1.19,7.4,7.4,0,0,1-5,.06c-1.77-.42-3.9-1-5.11-2.43S426.74,704.31,428.67,704.59Z"/><path class="cls-16" d="M418.21,686.33c1.21,1.37,3.28,3.13,3.3,5.09a1.66,1.66,0,0,1-1.62,1.66c-1.93,0-3.77-1.94-5.16-3.08C412.2,687.92,416.05,683.9,418.21,686.33Z"/><path class="cls-11" d="M590.21,368.16c-4.55,2.57-8.11,6.54-11.57,10.46C564.94,394.17,551.53,410.14,541,428c-1.37,2.33-4.31,5.64-4.39,8.41a9.6,9.6,0,0,0,5.38,8.24c2.1.95,4.49,1,6.74,1.48a27.69,27.69,0,0,0,4.56,1c3.29.17,5.4-3.15,7.52-5.25,2.77-2.75,5.39-5.65,7.92-8.63,5.08-6,9.74-12.31,14.39-18.63q9.43-12.86,18.88-25.69c2.23-3,4.51-6.16,5.48-9.79s.34-10.35-3.41-12.56C600.12,364.23,593.86,366.1,590.21,368.16Z"/><path class="cls-17" d="M579.91,443.12c-2.79-8.95-6.53-17.66-6.19-27.22.5-13.8,9-25.58,11.45-38.93.78-4.19-.36-8.41.77-12.39,1.94-6.83,8.44-10.47,14.89-11.59,25.11-4.36,58.54,14.88,72.71,36.18a24,24,0,0,1,3.83,18.32,34,34,0,0,1-7.62,17.64c-1,1.6-1.93,3.2-2.93,4.82-32.27,52.31-5.29,54.05,2.57,84.2,3.24,12.45-2.5,21.82-12.35,27.35-7,3.94-16.09,5.93-25.49,5.7-16.53-.4-55.83-2.48-60.22-18.46-3.12-11.37,2.72-24.84,5.77-35.63,3.33-11.76,6.37-23.94,5.63-36.27A57.7,57.7,0,0,0,579.91,443.12Z"/><path class="cls-22" d="M608.42,429.7c0-6.28-3.1-11.66-4.43-17.93-4-19.23-5.37-37.95-5.85-56.57a18.38,18.38,0,0,1,6.34-2.33c15.83-2.78,35.78,6.3,49.07,18.71-12.34,15.49-23.28,29.93-35.39,45.57C615.06,421.63,612.4,426.11,608.42,429.7Z"/><path class="cls-8" d="M618.16,417.15c-3.1,4.48-5.76,9-9.74,12.55-1.46-4.06-3.1-11.66-4.43-17.93a262.32,262.32,0,0,1-4-26.6c11.59,2.08,22.58,7,32.81,13.06C628,404.44,623.17,410.69,618.16,417.15Z"/><path class="cls-15" d="M609,401.25a130.88,130.88,0,0,1-24.65-19.72c-3.45-3.53-6.88-7.7-7-12.63a7.06,7.06,0,0,1,1.17-4.23c2.32-3.22,7-5.13,10.58-6.58.82-.33,10.89-5.19,10.89-3.41C600.06,362.91,608.22,400.76,609,401.25Z"/><path class="cls-15" d="M534.48,448c-8.35,29.91-12.81,58.44-37.81,77.22-13.15,9.87-28.43,16.73-41.34,26.9-18,14.15-30.94,35-37.92,56.61a81.49,81.49,0,0,0-4,28.82,143.27,143.27,0,0,1-5.49,44c-.95,3.32-25.91-1.85-28.9-2.61-7.59-1.94-14.08-5.5-13.29-14.17,4-43.56,14.05-52.52,37.56-88.83,12.58-19.41,30.22-36.34,48.91-50.19,7.25-5.37,15.18-9.81,22.42-15.19,8.31-6.19,15.64-13.55,22.93-20.89,12-12,22.31-32.66,29.18-48.08,29.19-65.51,53.47-78.63,53.47-78.63s15.9,4.28,3.35,13C573.6,382.79,542.9,417.78,534.48,448Z"/><path class="cls-18" d="M636.26,379.05c-8.19,5.89-15.44,7.36-26.54.57-3.66-2.23-4-25.29.91-35.9,1.69-3.67,7.7-6.76,11.43-8.16,4.2-1.57,22-5.56,22.63-1.15.25,1.67-2.45,3.43-3.72,7.18-2.77,8.14-1.84,15.71.47,22.73C642,365.92,646.5,371.7,636.26,379.05Z"/><path class="cls-11" d="M680.49,395.86c7.25,11,6.29,19.82,7.77,31.84,1.54,12.5,3.43,24.87,5,37.36.51,4.15.34,8.23.54,12.38.17,3.28-1.38,5.82-4.85,6.59-2.62.58-5.35-.1-7.87-1a46,46,0,0,1-10.52-5.37c-3.16-2.16-2.83-4.9-3.45-8.35-.32-1.79-.65-3.58-1-5.37-3.42-17.19-7.59-28.2-9.75-37.86s-1.44-34.62,11.43-39.42C672,385.08,677.93,392,680.49,395.86Z"/><path class="cls-23" d="M602.49,338.81a72.8,72.8,0,0,1,.93,14.78c-.48,7.11-2.88,13.88-4.32,20.82a41.52,41.52,0,0,0-1.27,10c.18,3.85,1.39,7.42,1,11.36-.48,5.16-2.86,10-3.64,15.08-.9,6,.21,12-.5,18-.42,3.57,0,7.18-.42,10.74-.46,4-2.38,6.54-4.2,10C587,455.46,583,461,581.51,467.68c-.54,2.5-1.06,5.44-3.34,6.59a5.14,5.14,0,0,1-4.27-.08c-3.71-1.58-5.58-5.95-5.45-10s1.83-7.82,3.51-11.48a102.4,102.4,0,0,0,4.18-10.22c2.05-5.8,2.13-12.1,2-18.25a77.11,77.11,0,0,1,.51-13.93,69.36,69.36,0,0,1,2.05-8.24c1.18-4,2.58-8.45,3-12.66.43-4.39-.13-9.11-.2-13.52a48.63,48.63,0,0,1,.64-10.79c.84-3.93,2.65-7.61,3.56-11.52,2.25-9.66,3.32-19.53,4.72-29.33.59-4.14.62-9.71,2.3-13.5,1.27-2.84,5.62-5.74,8.34-3.09,2,2-.55,6-1.1,8.33C600.19,323.48,601.44,331.13,602.49,338.81Z"/><path class="cls-8" d="M594.71,428.81c-.52,4.36.16,8.88-.83,13.15-6,.75-11.66-1.41-16.32-5.16a71.86,71.86,0,0,0,.61-12.54c0-1.79-.08-3.59-.07-5.39a28.66,28.66,0,0,0,16.81,7.33C594.88,427.07,594.81,427.94,594.71,428.81Z"/><path class="cls-8" d="M583.76,381.71c-.09-1.95-.21-3.9-.24-5.8a48.63,48.63,0,0,1,.64-10.79c.12-.54.26-1.09.41-1.63,3.9,5,9.24,8.65,15.27,7.63-.26,1.1-.51,2.19-.74,3.29a41.52,41.52,0,0,0-1.27,10c0,.45.06.9.1,1.34A21.86,21.86,0,0,1,583.76,381.71Z"/><path class="cls-24" d="M642.25,344.9c.53-1.06-.41-2.38.17-3.41,15.58-27.75-2.56-53.55-27-46.36-27.33,8.06-21.21,26.37-21.85,36.06-.22,3.31-1.44,6.37-1.44,9.76,0,4.77,4.22,23,9.78,26.06,5.06,2.77,21.76-4.35,26.47-7.28C638.2,353.62,636.71,355.75,642.25,344.9Z"/><path class="cls-15" d="M609,401.25c.62-2.29,35.68-25.55,40.3-30.53,2.5-2.72,4.43-4,7.93-2.39a42,42,0,0,1,8,4.58c17.46,12.8,27.93,32.19,34.89,52.78,5.7,16.84,4.16,38.52,4.17,38.57l-8.65,25c0,.05-.83-19.19-3.57-33-3.4-17.19-4.5-38.84-20.64-48.37C658.18,400,608.82,402,609,401.25Z"/><path class="cls-23" d="M656.13,347.61a36.27,36.27,0,0,1-1,12c-.92,3.18-2.52,6.15-3.28,9.38-1.71,7.32,1.07,15.13-.6,22.47-1.1,4.81-4,9-5.46,13.74-2.9,9.62.7,20.45-2.89,29.83-1.25,3.29-3.33,6.21-4.69,9.45-3.79,9-1.77,19.91-6.52,28.47-2.47,4.45-6.55,7.8-10.88,10.48-3.23,2-7.64,3.62-10.59,1.22-2.75-2.23-2.37-6.64-.72-9.77s4.28-5.75,5.52-9.07c2.1-5.63-.14-12.25,2.23-17.77,1.66-3.86,5.33-6.54,7.16-10.33,2.53-5.23,1.11-11.46,2.12-17.18,1.3-7.36,6.57-13.58,7.73-21,.94-5.93-.87-12.08.38-17.95,1-4.71,3.94-8.92,4.46-13.71s-1.45-9.48-1.72-14.28a31.8,31.8,0,0,1,1.5-10.54,75,75,0,0,1,7.56-17.64c1.55-2.63,3.32-4.95,4.31-7.71.47-1.3.8-5.34,3.22-3.47,2.07,1.59,1.1,7.44,1.22,9.72.3,5.56.18,11,.5,16.61C655.81,342.93,656,345.27,656.13,347.61Z"/><path class="cls-8" d="M651.47,379.39c.28,4.07.67,8.14-.23,12.08-.83,3.64-2.71,6.93-4.2,10.36-4.64,1-8.93-.7-12.62-3.66.5-5.49-.94-11.13.21-16.54a36.25,36.25,0,0,1,2.14-6.16C641,378.68,646,380.44,651.47,379.39Z"/><path class="cls-8" d="M617.24,448.05c1.66-3.86,5.33-6.54,7.16-10.33a14.49,14.49,0,0,0,1-3,18.67,18.67,0,0,0,14.86,5.59,45.08,45.08,0,0,0-2.09,4.17,40.68,40.68,0,0,0-2.51,11c-5.09.76-10.34-.12-14.28-3.62-1.36-1.11-2.8-2.39-4.2-3.78Z"/><path class="cls-23" d="M655.37,317.64c-1.52-20.68-14.11-24.53-14.16-24.54-.79-.24-3.56-4.48-10.77-5.44-29.1-3.9-41.24,15.72-38.06,37,.24,1.59,1.16,3.16,1.25,4.72a18.23,18.23,0,0,1,10.1-17.08c4.37,4.81,9.87,8.21,14.75,12.49,6.84,6,8.07,16.67,13.49,23.85a10.77,10.77,0,0,0,5.84,4.18C642.93,354,656.74,336.42,655.37,317.64Z"/><g class="cls-2"><polygon class="cls-6" points="583.59 578.74 584.12 720.08 600.58 729.64 600.05 588.3 583.59 578.74"/><polygon class="cls-8" points="600.05 588.3 600.58 729.64 742.34 647.8 741.81 506.46 600.05 588.3"/><polygon class="cls-4" points="734.15 643.1 733.7 520.57 608.24 593.01 608.69 715.53 734.15 643.1"/><polygon class="cls-5" points="583.59 578.74 600.05 588.3 741.81 506.46 725.35 496.9 583.59 578.74"/></g><g class="cls-2"><polygon class="cls-8" points="583.59 554.95 584.12 567.93 600.58 577.5 600.05 564.52 583.59 554.95"/><polygon class="cls-8" points="600.05 564.52 600.58 577.5 742.34 495.66 741.81 482.68 600.05 564.52"/><polygon class="cls-9" points="583.59 554.95 600.05 564.52 741.81 482.68 725.35 473.11 583.59 554.95"/></g><path class="cls-15" d="M707,493.85c-5.41,16.46-7.92,26.37-9.62,37.21-3.15,20.23,4,45.8,12,64.36,7.32,17,14.14,34.45,23.56,50.28s16.06,33.31,22.33,50.67c1.91,5.3,3.82,10.76,3.62,16.39-.23,6.2-3,12-5.7,17.56-5.11,10.51-10.33,21.2-18.3,29.73s-19.28,14.77-30.93,13.85c-8.1-.64-15.53-4.59-23.38-6.75-19.22-5.28-39.49.42-59.33,2.38-9,.89-18.33,1-26.71-2.4-13.48-5.42-24-21.39-21.44-36.06,3.87-22.4,12.49-43.28,17.49-65.31,4.87-21.46,1.12-44.29-8.51-63.91-3.81-7.76-8.13-12.52-7.62-21.44.44-7.75,1.93-16.47,6.33-23,3.55-5.3,75-41.15,107.89-66.39,8.87-6.82,13.79-48.05,15-48.88C703.61,442.11,710.79,482.15,707,493.85Z"/><path class="cls-7" d="M603.16,283.21a31.58,31.58,0,0,0,5,6.7,112.42,112.42,0,0,1,7.59-14.05c2.43,2.69,5.36,6,8.65,10.13,1.93-2.44,4.46-5.55,8.59-10.14a108.6,108.6,0,0,1,7.4,13.62,34.09,34.09,0,0,0,5-6.57A77.73,77.73,0,0,1,647.2,299v3.08c0-3.36-2.22-6.72-6.64-9.28-8.88-5.17-23.43-5.11-32.38,0-4.43,2.59-6.65,6-6.64,9.36v-3A77.31,77.31,0,0,1,603.16,283.21Z"/><path class="cls-8" d="M647.21,298.8a12.91,12.91,0,0,0-1.6-5.92,76.36,76.36,0,0,1-4.91,15.56c-6.92-7.42-6.92-7.42-7.58-8.15a138.16,138.16,0,0,1-8.58,12.14,144.81,144.81,0,0,1-8.66-12c-1.36,1.51-1.36,1.51-7.53,8.2a76.29,76.29,0,0,1-5.1-15.4,13.14,13.14,0,0,0-1.7,6.12v2.88c0,3.36,2.22,6.72,6.63,9.29,8.89,5.16,23.34,5.16,32.29,0,4.5-2.6,6.74-6,6.74-9.42V298.8Z"/><path class="cls-24" d="M608.07,525.68c-6.08,1.72-9,2.34-10.43,2.88-2.35.9-1.95,2.25-13,8.89-4.72,2.85.78,5.25,2.77,4.52.53-.19,12.16-8.7,10-1.83-.86,2.67-11.82,12.76-13.94,14.61-4.39,3.83-1.69,6.25-.15,5.65,1-.39,1.14.27.32,1.07-2,2-.46,4.91,1.59,4.36,1-.26,1.79-1.29,2.73-1s1.07,1.61,1.7,2.4c1.48,1.85,5-1,6.8-1.13,3.64-.18,3.18,3.19,13.6-8a53,53,0,0,0,6.82-8.36c2.26-3.71,3.64-8,6.64-11.15,2.45-2.56,5.88-4.1,7.94-7,2.69-3.83,0-13.76-6-13.11-1.82.2-2.78,1-10.32,5C611,525.7,613,524.29,608.07,525.68Z"/><path class="cls-11" d="M693.13,479.4c1.82,5.8-5,12.42-9,16-15,13.34-39.31,32.85-56.83,42.54-5.37,3-18.7-10.63-13.46-14.92,7.36-6,14.23-12.64,21.14-19.16s13.58-12.87,20.59-19.08c3.28-2.9,6.6-5.75,10-8.49s7.23-5.76,12-5.72a14,14,0,0,1,4,.74C685.63,472.55,691.76,475,693.13,479.4Z"/><path class="cls-18" d="M478.37,487.08a2.5,2.5,0,0,1-2.22-.4c-.74-.76-.09-2.21.44-3a9.33,9.33,0,0,1,3.66-2.93c1.85-.93,3.86-1.54,5.62-2.61a3.36,3.36,0,0,0,1.24-1.15,1.19,1.19,0,0,0-.19-1.49c-.8-.62-2.59.12-3.48.33a31.75,31.75,0,0,0-4.22,1.33,22.76,22.76,0,0,0-6.38,3.35c-1.88,1.62-3.31,3.89-5.16,5.61a3.41,3.41,0,0,1-3.6,1,23.5,23.5,0,0,1-2.52-.54.7.7,0,0,1-.41-.21.68.68,0,0,1-.07-.53c.49-3.22,2.13-6.49,3.38-9.53.9-2.19,1.83-4.36,2.81-6.53a4.16,4.16,0,0,1,.91-1.42,5.17,5.17,0,0,1,1.61-.8,48,48,0,0,0,4.92-2.46c5.69-2.92,12.11-4,18.41-4.95,4.2-.61,8.46-1.29,12.66-1.75,3.39-.37,5.82,3.54,5.82,6.39a7.58,7.58,0,0,1-.21,1.9,9.79,9.79,0,0,1-4.39,5.63c-1,.7-6.24,3.53-7.73,4.5-6.12,4-12.57,7.63-19.56,9.87A10.75,10.75,0,0,1,478.37,487.08Z"/><path class="cls-11" d="M498,473.91c8.42,5.43,55.68-21.63,61.52-30.64,1.11-1.71-.58-26.15-3.94-24.4-7.62,4-51.55,33.16-59,38.87C489.32,463.29,491.19,469.51,498,473.91Z"/></svg>