<svg xmlns="http://www.w3.org/2000/svg" xmlns:xlink="http://www.w3.org/1999/xlink" viewBox="0 0 424.34 448.35"><defs><style>.cls-1{isolation:isolate;}.cls-2{fill:#e6cbae;}.cls-3{fill:url(#Áåçûìÿííûé_ãðàäèåíò_15);}.cls-4{fill:#d9efff;}.cls-5{fill:url(#Áåçûìÿííûé_ãðàäèåíò_15-2);}.cls-6{fill:#fde60c;}.cls-7{fill:url(#Áåçûìÿííûé_ãðàäèåíò_7);}.cls-8{fill:#f5e4d4;}.cls-9{fill:#945f00;}.cls-11,.cls-9{mix-blend-mode:screen;}.cls-10{fill:#faf1ea;}.cls-11{fill:#42403e;}.cls-12{fill:#f1d6c1;}.cls-13{fill:#96bc43;}.cls-14{fill:#618538;}.cls-15{fill:#7aa321;}.cls-16{fill:#ddf7a1;}</style><linearGradient id="Áåçûìÿííûé_ãðàäèåíò_15" x1="205.93" y1="220.02" x2="298.63" y2="220.02" gradientUnits="userSpaceOnUse"><stop offset="0" stop-color="#b0deff"/><stop offset="0.36" stop-color="#acdbff"/><stop offset="0.72" stop-color="#a0d1ff"/><stop offset="1" stop-color="#91c5ff"/></linearGradient><linearGradient id="Áåçûìÿííûé_ãðàäèåíò_15-2" x1="44.35" y1="362.52" x2="236.97" y2="362.52" xlink:href="#Áåçûìÿííûé_ãðàäèåíò_15"/><linearGradient id="Áåçûìÿííûé_ãðàäèåíò_7" x1="51.55" y1="238.23" x2="229.63" y2="238.23" gradientUnits="userSpaceOnUse"><stop offset="0" stop-color="#fc0"/><stop offset="1" stop-color="#ff9000"/></linearGradient></defs><g class="cls-1"><g id="_Layer_" data-name="&lt;Layer&gt;"><path class="cls-2" d="M381.82,282.33c-22.3-12.88-51.13-19.66-80.25-20.37v-.08H56.76l75,138.57H301.57v-.05c29.37-.5,58.43-7.18,80.78-20.09C429.07,353.34,428.83,309.47,381.82,282.33Z"/><path class="cls-3" d="M224.09,308.49l-10.37-18.28L263,262.26a29.05,29.05,0,0,0,14.32-29.35l-10-67.34a15.23,15.23,0,0,0-22.53-11l-28.58,16.07-10.3-18.32,28.58-16.07a36.25,36.25,0,0,1,53.63,26.29l10,67.34a50.21,50.21,0,0,1-24.75,50.71Z"/><path class="cls-4" d="M273.35,280.55l-49.26,27.94L221,303.11l45-25.54a50.25,50.25,0,0,0,24.75-50.71l-10-67.34c-.12-.82-.28-1.63-.46-2.44a11.64,11.64,0,0,0-9.51-9.07.12.12,0,0,0-.08,0c-6.14-.87-12.78.74-18.49,2.91a27.52,27.52,0,0,0-5.13,2.54,14.49,14.49,0,0,0-2.38,1.09l-28.57,16.06-10.3-18.32,28.57-16.07a36.26,36.26,0,0,1,53.62,26.3l.75,5.06,9.22,62.27A50.24,50.24,0,0,1,273.35,280.55Z"/><path class="cls-4" d="M210.17,284.26h0c-36.83-22.17-97.82-22.79-136.22-1.38s-39.66,56.74-2.82,78.91,97.83,22.79,136.22,1.38S247,306.43,210.17,284.26Z"/><path class="cls-5" d="M236.11,343.77q.42-9.75.86-19.5c-.63,14.19-10.54,28.26-29.62,38.9C169,384.58,108,384,71.13,361.79c-17.22-10.36-26.12-23.61-26.78-37q.48,9.75,1,19.5h0v0s0,.08,0,.12c0,.46.08,1,.13,1.49,0-.14,0-.27,0-.41,0,.15,0,.3,0,.44v0c0,.28,0,.57.08.85,0,.11,0,.21,0,.31.07.54.13,1.07.2,1.54.13.85.4,2,.58,2.8a35.59,35.59,0,0,0,1.3,4.27A45.39,45.39,0,0,0,53.1,366c7,9.94,16.31,15.68,20.28,18.13a70.91,70.91,0,0,0,6.28,3.46,101.59,101.59,0,0,0,11.85,5.07,117.17,117.17,0,0,0,12.79,3.85c7.3,1.8,13.44,2.62,13.5,2.63,6.6.85,8.37,1.08,13.94,1.38,1.78.1,7.17.39,14.16.15,2.18-.08,7.29-.26,14.12-1.12,8.1-1,13.8-2.39,13.86-2.4,8.9-2.21,8.9-2.21,13.38-3.74A107.43,107.43,0,0,0,200,388.27c1.61-.77,3.74-1.85,5.29-2.75,2.1-1.2,4.83-2.9,6.85-4.22a85.54,85.54,0,0,0,7.68-6,69.34,69.34,0,0,0,5.36-5.48c.78-.85,1.71-2.1,2.41-3a55.23,55.23,0,0,0,3.07-4.67c.52-.85,1.09-2.05,1.55-2.93a42.34,42.34,0,0,0,2.67-7.14c.41-1.61.79-3.79,1-5.42.13-.82.16-1.92.22-2.76,0,0,0,0,0-.05v0Z"/><ellipse class="cls-4" cx="140.65" cy="86.18" rx="54.28" ry="93.71" transform="translate(54.07 226.59) rotate(-89.84)"/><ellipse class="cls-6" cx="140.65" cy="86.18" rx="49.99" ry="86.3" transform="translate(54.07 226.59) rotate(-89.84)"/><path class="cls-4" d="M231.54,306.87a31.61,31.61,0,0,1,.26,6.22c-7.53-53,2-216.29,2.51-224.89-.79,13.53-10.26,26.89-28.34,37-37.11,20.83-96.44,20.23-132.52-1.34-17-10.15-25.78-23.14-26.46-36.21.45,8.6,9.06,171.94,1.23,224.9a31,31,0,0,1,.3-6.23,39.19,39.19,0,0,0,.5,14.32A42.45,42.45,0,0,0,54,333.16a54.56,54.56,0,0,0,9.19,11.54,74,74,0,0,0,13.43,10.14,107.28,107.28,0,0,0,11.77,6c3.39,1.35,8,3,11.44,4.12,1.88.62,4.45,1.26,6.38,1.75a143.76,143.76,0,0,0,32.58,4c4,0,9.32-.23,13.3-.45,2-.12,4.65-.48,6.64-.68.7-.07,7.37-1,13.05-2.27,2-.47,4.75-1.09,6.75-1.71,3.52-1.08,8.17-2.67,11.63-3.95,1.94-.73,4.46-1.91,6.34-2.8,1.55-.74,3.55-1.86,5.08-2.65,2.08-1.22,4.86-2.86,6.82-4.27,2.33-1.66,5.33-4.05,7.47-5.95a56.46,56.46,0,0,0,9-10.54,57.77,57.77,0,0,0,3.32-6,44.55,44.55,0,0,0,2.64-7.56,40.47,40.47,0,0,0,1.08-7.45c.06-1.34,0-3.13,0-4.47C231.81,309,231.63,307.77,231.54,306.87Z"/><path class="cls-7" d="M138.8,367.16a139.45,139.45,0,0,1-31.76-3.9l-.67-.17c-1.75-.44-3.92-1-5.48-1.51-3.77-1.24-8.17-2.82-11.23-4a103.48,103.48,0,0,1-11.28-5.71,71,71,0,0,1-12.79-9.65A51.25,51.25,0,0,1,57,331.4,38.87,38.87,0,0,1,52.45,320a38.13,38.13,0,0,1-.85-6.88h.09c6.27-42.43,2.09-154.77-.14-203.79,4.76,6.51,11.54,12.47,20.11,17.6,18.41,11,43,17.07,69.31,17.07,25,0,48.69-5.57,66.71-15.68,9.43-5.3,16.83-11.56,21.95-18.46-2.51,49.05-7.32,161.36-1.3,203.75h.08c0,.22,0,.42,0,.6a36.6,36.6,0,0,1-1,6.83A40.21,40.21,0,0,1,225,328a47.29,47.29,0,0,1-11.45,15.35c-2,1.8-4.9,4.1-7.18,5.73-1.76,1.26-4.3,2.77-6.55,4.08-.36.18-.93.49-1.51.8-1.12.6-2.31,1.24-3.31,1.72-1.9.9-4.3,2-6.06,2.67-3.38,1.26-8,2.83-11.43,3.89-1.81.56-4.41,1.16-6.31,1.6l-.2.05c-5.5,1.27-12,2.12-12.62,2.19l-2.06.23c-1.55.18-3.15.36-4.42.44-3.72.21-8.49.45-12.26.45Z"/><path class="cls-8" d="M229.63,109.84c-.93,18.26-2.19,45.27-3.07,74.19-1.86,11.42-10.44,22.53-25.75,31.11-34.18,19.18-88.81,18.62-122-1.23-16.53-9.89-24.64-22.7-24.4-35.45l-.28,0c-.73-27-1.75-52-2.54-69.14,4.77,6.52,11.55,12.47,20.11,17.6,18.43,11,43,17.07,69.32,17.07,25,0,48.7-5.57,66.71-15.68C217.12,123,224.51,116.73,229.63,109.84Z"/><path class="cls-9" d="M201,272a10.15,10.15,0,1,1-10.15-10.15A10.14,10.14,0,0,1,201,272Z"/><path class="cls-10" d="M178.63,204.59a10.15,10.15,0,1,1-10.14-10.15A10.14,10.14,0,0,1,178.63,204.59Z"/><path class="cls-10" d="M90.32,180.72a10.15,10.15,0,1,1-10.15-10.15A10.14,10.14,0,0,1,90.32,180.72Z"/><path class="cls-10" d="M135.84,203a4.44,4.44,0,1,1-4.11-4.75A4.44,4.44,0,0,1,135.84,203Z"/><path class="cls-10" d="M205.4,200.47a4.44,4.44,0,1,1-4.11-4.75A4.44,4.44,0,0,1,205.4,200.47Z"/><path class="cls-10" d="M213.76,150a4.44,4.44,0,1,1-4.11-4.75A4.45,4.45,0,0,1,213.76,150Z"/><path class="cls-10" d="M71,160.86a4.44,4.44,0,1,1-4.1-4.75A4.44,4.44,0,0,1,71,160.86Z"/><path class="cls-9" d="M81,293.18A10.15,10.15,0,1,1,70.83,283,10.15,10.15,0,0,1,81,293.18Z"/><path class="cls-9" d="M153.83,246.32a10.15,10.15,0,1,1-10.14-10.14A10.14,10.14,0,0,1,153.83,246.32Z"/><path class="cls-9" d="M123.45,343.09A10.15,10.15,0,1,1,113.31,333,10.14,10.14,0,0,1,123.45,343.09Z"/><circle class="cls-9" cx="80.17" cy="242.82" r="13.65"/><circle class="cls-9" cx="192.28" cy="334.97" r="13.65"/><path class="cls-9" d="M144.75,297.72a5.61,5.61,0,1,1-5.6-5.6A5.61,5.61,0,0,1,144.75,297.72Z"/><path class="cls-9" d="M215.36,300.13a5.61,5.61,0,1,1-5.6-5.61A5.6,5.6,0,0,1,215.36,300.13Z"/><path class="cls-9" d="M159.44,261.88a5.61,5.61,0,1,1-5.61-5.6A5.61,5.61,0,0,1,159.44,261.88Z"/><path class="cls-9" d="M208.69,240.28a5.61,5.61,0,1,1-5.6-5.61A5.6,5.6,0,0,1,208.69,240.28Z"/><path class="cls-9" d="M95.12,335a5.61,5.61,0,1,1-5.61-5.6A5.61,5.61,0,0,1,95.12,335Z"/><path class="cls-9" d="M159.44,346.94a5.61,5.61,0,1,1-5.61-5.6A5.61,5.61,0,0,1,159.44,346.94Z"/><path class="cls-9" d="M99.43,314.1a5.61,5.61,0,1,1-5.61-5.61A5.61,5.61,0,0,1,99.43,314.1Z"/><path class="cls-11" d="M138.6,144V367.16a146.2,146.2,0,0,1-18.46-1.4,126.34,126.34,0,0,1-13.1-2.49l-.67-.18c-1.75-.43-3.92-1-5.48-1.5-3.77-1.25-8.16-2.84-11.23-4-1.49-.6-3.12-1.35-4.66-2.12-3.49-1.75-6.57-3.57-6.62-3.59A69.74,69.74,0,0,1,66.52,343V123.58c1.63,1.15,3.35,2.26,5.13,3.32A101.39,101.39,0,0,0,85,133.58a136.3,136.3,0,0,0,35.14,9.07A163.83,163.83,0,0,0,138.6,144Z"/><path class="cls-11" d="M120.14,142.65V365.76a126.34,126.34,0,0,1-13.1-2.49l-.67-.18c-1.75-.43-3.92-1-5.48-1.5-3.77-1.25-8.16-2.84-11.23-4-1.49-.6-3.12-1.35-4.66-2.12V133.58A136.3,136.3,0,0,0,120.14,142.65Z"/><path class="cls-12" d="M237,81h0c0-.1,0-.2,0-.31a17.15,17.15,0,0,0-1.17-6.18,8.44,8.44,0,1,0-2.94-16.46,8.36,8.36,0,0,0-2.42-3.89,17.22,17.22,0,1,0-19.19-24.28,12.6,12.6,0,0,0-7.18-1.21,8.45,8.45,0,0,0-8.34-7.24,8.34,8.34,0,0,0-4.4,1.26,17.15,17.15,0,0,0-20.69-.54A17.24,17.24,0,0,0,155.87,8.59s0-.08,0-.13A8.44,8.44,0,0,0,139.3,6.22a13,13,0,0,0-21.81,7.52,13,13,0,0,0-23,11,17.16,17.16,0,0,0-20.63.38A17.22,17.22,0,0,0,43.46,36.2,17.48,17.48,0,0,0,44,40.32a6.76,6.76,0,0,0-5,8.8A7,7,0,0,0,37.82,49a6.9,6.9,0,0,0,0,13.79,6.66,6.66,0,0,0,1.56-.19,1.37,1.37,0,0,0,0,.19,6.88,6.88,0,0,0,4.11,6.3,12.93,12.93,0,0,0-1.38,5.78,13.33,13.33,0,0,0,.2,2.2A11.91,11.91,0,0,0,36,96a8.84,8.84,0,0,0-1.44,15.2,5.51,5.51,0,0,0,4,9.31,5.33,5.33,0,0,0,1.7-.3,8.82,8.82,0,0,0,15.66.4,11.92,11.92,0,0,0,9.41,5.44,12.81,12.81,0,0,0,19,8.74A17.47,17.47,0,0,0,86,137.87c-.23,0-.45-.07-.69-.07a8.46,8.46,0,1,0,3.27,16.27A8.45,8.45,0,1,0,104,152.2a8.45,8.45,0,0,0,3.48-8.64l.55-.27a24,24,0,0,0,35.35,15.3c0,.32,0,.64,0,1a19,19,0,0,0,2,8.55,9.25,9.25,0,1,0,12,9.84,19,19,0,0,0,24.14-18.39c0-.21,0-.42,0-.63a9.18,9.18,0,0,0,6.27-15.09,12.82,12.82,0,0,0,7-11.43v-.05c.34,0,.67.05,1,.05a17.31,17.31,0,0,0,4.41-.59,17.22,17.22,0,1,0,26.19-21.59,12.85,12.85,0,0,0,9-10.82A9.26,9.26,0,1,0,237,81Z"/><path class="cls-8" d="M220.3,74.9a11.61,11.61,0,0,0-7.88-11A11.6,11.6,0,1,0,195.51,49.1a18.13,18.13,0,0,0-23.14-4.05,18.25,18.25,0,0,0-7.57-7c.06-.62.1-1.25.1-1.88a18.17,18.17,0,0,0-33.18-10.26,18.16,18.16,0,0,0-31.9,16.91,17.6,17.6,0,0,0-3.69,1.07,12,12,0,0,0-18.8-7.45A12,12,0,1,0,59.27,48.91,11.85,11.85,0,0,0,57,48.68a12,12,0,0,0-2.57,23.81,12,12,0,0,0,7.13,16,8.44,8.44,0,0,0-6.26,2.75,8.54,8.54,0,0,0,.57,12.08,7.45,7.45,0,0,0,1.07.8,3.64,3.64,0,0,0,5.9,4.19,3.49,3.49,0,0,0,.77-1.34,6.23,6.23,0,0,0,1.21,1.57,6,6,0,0,0,3,1.45,9.06,9.06,0,0,0,12.77,10.68,5.77,5.77,0,0,0,11.44-.57,9.06,9.06,0,0,0,8.84-4,18.09,18.09,0,0,0,15.69,0,11.6,11.6,0,0,0,20.67,10.5A11.6,11.6,0,0,0,151.56,125a12.36,12.36,0,0,0,1.73.14c.3,0,.59,0,.88,0a11.6,11.6,0,1,0,10.73-7.19c-.3,0-.59,0-.88,0a11.67,11.67,0,0,0,.88-4.43,11.46,11.46,0,0,0-1.27-5.25,11.58,11.58,0,0,0,18.67-4.42c.26,0,.51,0,.77,0a11.59,11.59,0,0,0,9-4.28,7.47,7.47,0,0,0,.48.63,10.19,10.19,0,0,0-.07,1.24,11.61,11.61,0,1,0,20.74-7.13,10.19,10.19,0,0,0,.07-1.24,11.53,11.53,0,0,0-2.23-6.82A11.6,11.6,0,0,0,220.3,74.9ZM63.5,50.47l-.1.1-.24-.15Zm1.36,38.69H65s0,0,0,0Zm55.1-35,0,0h0Zm11.67-7.53.09-.12.08.09Z"/><path class="cls-10" d="M209.33,79.87a8.55,8.55,0,0,0-8.56-8.55,8.21,8.21,0,0,0-1.33.13,3.65,3.65,0,1,0-6.85,2.39,5.78,5.78,0,0,0-5.11.57,9.07,9.07,0,0,0-16.63.7,5.77,5.77,0,0,0-8.08,8.12,9,9,0,0,0,1.14,15.62,5.75,5.75,0,0,0-1.14,8.18,9.09,9.09,0,0,0,7.61,16.24,9.66,9.66,0,0,0,1.33-.52,3.88,3.88,0,0,0,7.11-3,3.77,3.77,0,0,0-.78-1.45,6.55,6.55,0,0,0,2.1-.2,6.46,6.46,0,0,0,4.47-8c-.05-.17-.13-.32-.19-.48a9.06,9.06,0,0,0,2.06-13.11,8.27,8.27,0,0,0,.87.08,8.54,8.54,0,0,0,6.82-3.43A5.42,5.42,0,0,0,203.93,90a5.34,5.34,0,0,0-.4-2A8.53,8.53,0,0,0,209.33,79.87Z"/><path class="cls-10" d="M153.72,35.31a9.87,9.87,0,0,0-18.37-5A5.36,5.36,0,0,0,131.91,29a5.43,5.43,0,0,0-5.44,5.44,5.34,5.34,0,0,0,.69,2.6,9.89,9.89,0,0,0-5,4.92,5.33,5.33,0,0,0-1.92-.37l-.23,0a5.42,5.42,0,0,0-3.32-9.72,5.28,5.28,0,0,0-1.64.29A9.7,9.7,0,1,0,97.66,40a7.27,7.27,0,0,0-5.48,5.54,9.87,9.87,0,0,0-15.42,5.88,5.11,5.11,0,0,0-.59-1.52A9.88,9.88,0,1,0,62.49,35.94a5.43,5.43,0,1,0-7.62,7.73,8.37,8.37,0,0,0-2.39,10.54,5.38,5.38,0,0,0-2.61-.7A5.52,5.52,0,1,0,55,57.23,8.47,8.47,0,0,0,60.1,59,9,9,0,0,0,62,58.73a9.79,9.79,0,0,0-.43,2.88,9.93,9.93,0,0,0,1,4.25A9.88,9.88,0,1,0,72.8,81.68a5.39,5.39,0,0,0,4.77,2.88,5.3,5.3,0,0,0,1.86-.35,8.54,8.54,0,0,0,8.31,6.62,8.45,8.45,0,0,0,5.7-2.22,9.88,9.88,0,0,0,18,1.35,8.7,8.7,0,0,0,3.5-.83,8.48,8.48,0,0,0,13.8,5.61A5.43,5.43,0,1,0,136,87a8.52,8.52,0,0,0,4.86-5.65,8.94,8.94,0,0,0,.89.09,8.53,8.53,0,0,0,4.07-16,7.76,7.76,0,0,0,.11-1.07,8.48,8.48,0,0,0-2.24-5.73,5.43,5.43,0,0,0-1.94-10.51,6.86,6.86,0,0,0-.9.09,9.21,9.21,0,0,0,.13-3.4,9.89,9.89,0,0,0,12.77-9.45Z"/><path class="cls-2" d="M353.18,379.33c-10.18-6.76-23.34-10.32-36.63-10.7v0h-49L239,441.33h77.53v0c13.41-.27,26.67-3.78,36.88-10.55C374.75,416.6,374.64,393.57,353.18,379.33Z"/><path class="cls-13" d="M352,298.34a11.14,11.14,0,0,0-3.07,3,24.25,24.25,0,0,0-3.65,7.69c-1.53,5.29-2,11-3.86,16.12-2.33,6.46-6.73,11.69-11.61,15.87s-10.29,7.45-15.49,11.09a6.42,6.42,0,0,0-2.81,3c-.14.41-.48,4.7.34,4.48,4.1-1.07,7.13-4.9,10.35-8,4.7-4.56,10.23-7.86,15-12.26a33,33,0,0,0,6.9-8.59c1.72-3.17,2.28-6.94,2.79-10.57a49.09,49.09,0,0,1,2.85-10.68,18.46,18.46,0,0,1,2.47-4.57c.83-1.13,2.05-2,2.73-3.22a2.78,2.78,0,0,0-.23-3.24A2.24,2.24,0,0,0,352,298.34Z"/><path class="cls-14" d="M258.43,341.13a71.29,71.29,0,0,0,13.38,20.1c2.14,2.23,4.37,4.33,6.67,6.34.81.72,5.35,5.48,6.21,5.17a38,38,0,0,0,17-12.61c3.78-5,8.35-13.56,2.28-18.9a16.88,16.88,0,0,0-4.41-2.61,59.58,59.58,0,0,0-22.52-5.1,58.26,58.26,0,0,0-11.49.81c-1.94.34-8.11.73-8,4.24a3.59,3.59,0,0,0,.38,1.37C258.08,340.34,258.25,340.73,258.43,341.13Z"/><path class="cls-15" d="M257.65,372.21a36.93,36.93,0,0,1,9.45-13.15,1.16,1.16,0,0,0,.43-.57c.16-.61-.52-1-1-1.19q-4.78-1.4-9.64-2.47a72.67,72.67,0,0,0-8.25-1.45,13.88,13.88,0,0,0-5.17.43l-2,.51c-.27.06-1.54.14-1.08.63a16.71,16.71,0,0,0,2.2,1.85c2.23,1.68,9.1,6.85,10.18,8A26.58,26.58,0,0,1,257.65,372.21Z"/><path class="cls-15" d="M227.46,440.38a9.62,9.62,0,0,0,4-.08c7-1.25,13.45-4.75,19.57-8.75a2.24,2.24,0,0,0,.82-.77,2.76,2.76,0,0,0,.25-1.23,11.19,11.19,0,0,0-.26-3.84,7,7,0,0,0-4.34-4.16c-2.92-1.19-8.65-2.24-11,.88-.83,1.09-1.17,2.78-1.72,4.06-1,2.3-1.87,4.65-3,6.88A48.54,48.54,0,0,1,227.46,440.38Z"/><path class="cls-15" d="M223.19,419.3a10.18,10.18,0,0,0-.36,1.31,40.67,40.67,0,0,0-.71,10.16,22.82,22.82,0,0,0,7.51-4q3.08-2.24,6-4.71a11.5,11.5,0,0,0,2.36-2.46c1.18-1.82.59-2.7.3-4.56a24.57,24.57,0,0,1,0-3.74c0-.69-.24-6,.47-6.17a22.23,22.23,0,0,0-12.27,8.44A23.31,23.31,0,0,0,223.19,419.3Z"/><path class="cls-13" d="M239.36,377.93c12.5-18.19,31.1-33.95,51.24-33.06,7.27.32,14.75,2.39,20.37,7.7a23.89,23.89,0,0,1,7.36,18.28c-.5,7.07-2.08,15.27-4.93,21.63-8.94,19.9-26.83,32.7-45.37,39.59-10.11,3.76-21.38,6-31.18,1.26-10.29-5-13.4-14.38-10.93-26.8a65.47,65.47,0,0,1,6.89-17.87A114.61,114.61,0,0,1,239.36,377.93Z"/><path class="cls-16" d="M237.87,369a4.48,4.48,0,0,0-.8,1.89c-.19,1.57,1,2.89,2.11,3.82a28.33,28.33,0,0,0,18.17,6.73c4.44,0,9-1.26,12.41-4.6s5.13-9.06,3.41-13.76C267.48,347.56,243.8,359.77,237.87,369Z"/><path class="cls-15" d="M225,397.3c11-1.59,20.93-8.6,29.29-17a2.34,2.34,0,0,0,.7-1c.63-2.21-2.79-6.58-4.53-7.27-2.28-.89-5.46,1.44-7.41,2.62a42,42,0,0,0-13.17,12.86A45.6,45.6,0,0,0,225,397.3Z"/><path class="cls-16" d="M228.68,397a57.31,57.31,0,0,0-3.5,8q-2.18,5.75-4.36,11.47a52.69,52.69,0,0,0,22.65-6.57c2.57-1.42,5.05-3.05,7.52-4.69a2.93,2.93,0,0,0,1-.93,3.77,3.77,0,0,0,.36-1.43,25.87,25.87,0,0,0,.13-7.4c-.83-4.73-5.75-10.64-10.26-9.6C236.79,387.07,231.66,391.75,228.68,397Z"/><path class="cls-14" d="M271.14,378.05c.46-4.49-.5-9.06,0-13.66-8.76,0-17.92,7-23.6,14.26a63.11,63.11,0,0,0-9.89,19.82,60.64,60.64,0,0,1-2.84,7.14c3.39,1.27,7.13.72,10.52-.57s6.54-3.28,9.8-5a87,87,0,0,0,8.86-4.66,14.88,14.88,0,0,0,5.87-6.51C271.21,385.61,270.77,381.62,271.14,378.05Z"/><path class="cls-15" d="M228.22,433.57c11.29-1.79,21.91-8.65,29.11-18.81a46.13,46.13,0,0,1-5.59-7.9c-.45-.88-1.67-6.92-.58-7.08a25.15,25.15,0,0,0-14,7.29c-4.32,4.29-6.5,9.38-7.87,15.65C229.06,423.61,227.89,433.62,228.22,433.57Z"/><path class="cls-16" d="M232.92,419.59a35.42,35.42,0,0,0,22.93-2.69c6.55-3.14,12.75-9,14-17.07.52-3.26-.23-4.9-1.47-7.51-1.38-2.88-1.71-6.51-1.69-9.76-7.14,1.27-13.55,6-18.64,11.9a87.88,87.88,0,0,0-9.48,14C238.19,409.18,232.59,419.49,232.92,419.59Z"/><path class="cls-14" d="M246,425.09l-8.4,15.83c5.76,1.11,11.65-.19,17.31-1.84A58.17,58.17,0,0,0,271.24,432a31.41,31.41,0,0,0,11.89-14.43c-2.78,1.3-6,.26-8.63-1.38s-5-3.87-7.78-5.18C257.62,406.67,250.08,417.3,246,425.09Z"/><path class="cls-14" d="M295,345.5a72.36,72.36,0,0,0-54.59,9.07,69.33,69.33,0,0,1,40.71,15.19c.62.49,11.89-6.09,13.31-6.66,4.74-1.89,9.63-2.84,14.4-4.41C305.54,353.44,300.54,346.83,295,345.5Z"/><path class="cls-15" d="M254.31,397.32c5.6.5,11.18-.93,16.64-2.48,9.32-2.63,18.71-5.71,26.8-11.63a30.76,30.76,0,0,0,7-6.79,20,20,0,0,0,3.74-9.49c.32-3.1-1.32-6-2.37-8.73a24.5,24.5,0,0,1-2-9.2c-5.11.1-10.22-.37-15.31,0s-10.29,1.5-14.62,4.61a34.78,34.78,0,0,0-5,4.58,43.23,43.23,0,0,0-7.88,12.67C259.28,375.35,254.23,397.32,254.31,397.32Z"/><path class="cls-16" d="M291.46,371.38a53.06,53.06,0,0,0-20.8,18c-6,8.7-8.16,18.67-12.19,28.51-.77,1.88-3.59,9.17-5.65,9.44,8-1,16-2.1,23.61-5s14.89-7.75,19.69-15.13c-3.49-2-4.56-7-5.24-11.46-.65-4.23-3-8.65-3.33-12.81C287.4,380.79,289.53,372.28,291.46,371.38Z"/><path class="cls-14" d="M282,377c-3,8.74-4.33,18.11-4.94,27.47-.39,5.77-.63,12-3.73,16.55l15.46-6.61c6.1-2.61,12.45-5.41,16.79-11s6.81-11.65,6.59-19.3-2.22-15.33-4.19-22.71c-.71-2.65-1.64-5.6-3.85-6.71a6.29,6.29,0,0,0-4.69,0C290.21,357.66,285.3,367.34,282,377Z"/><path class="cls-16" d="M271.34,435.28a37.1,37.1,0,0,0,20.58-11.37,45.39,45.39,0,0,0,7.33-10.28c1.17-2.24,2.79-10.33,5.2-11a48.53,48.53,0,0,0-25.32,17.16C275.73,424.15,273.86,430.22,271.34,435.28Z"/><path class="cls-15" d="M295.6,420.39c8.45-2.71,15.8-9.67,19.73-18.68a41.76,41.76,0,0,0,1.21-29.36c-3.39,4-6.8,8-10.18,12.11-2,2.43-4.43,4.92-5.48,8.14-1.32,4-1.22,8.75-1.79,13C298.82,407.58,297.39,419.81,295.6,420.39Z"/><path class="cls-16" d="M283.46,338.91a50.75,50.75,0,0,0,6,11.63c6.52,9,16.69,10.53,26.29,9.32.65-.08-.82-4.88-1-5.37a20.37,20.37,0,0,0-3.74-6.91c-5.23-6.63-12.41-11.16-20.21-12a25,25,0,0,0-5.74,0c-.43.05-2.37.06-2.59.51S283.27,338.4,283.46,338.91Z"/><path class="cls-16" d="M296.38,375.72a96.07,96.07,0,0,0-2.4,17.11c-.18,2.83-.29,5.67-.39,8.51,0,1.13-.37,2.22.6,2.66s2.84-.77,3.63-1.13c7.54-3.36,14-7.58,18.38-15.66s5.86-17.91,3.16-26.8c-1.08-3.56-4-7-7.41-7.28-2.77-.23-5.17,1.95-7,4.15C300.93,362.26,298,369.19,296.38,375.72Z"/><path class="cls-15" d="M369.67,369.26l-1.41-1.69a33.05,33.05,0,0,1-.62,20.25c-.31-1.39-.62-2.78-.92-4.16a26.34,26.34,0,0,1-5.47,13.74,80.93,80.93,0,0,1-10.42,11c.39-1.27.79-2.54,1.18-3.81a52.82,52.82,0,0,1-11.94,9.21,16.09,16.09,0,0,0-.4-7.66l-1.41,2.07a19.59,19.59,0,0,1-5.89-9.87,49.74,49.74,0,0,1-1.29-11,8,8,0,0,0-1.12,3,31.7,31.7,0,0,1-3.45-15.52c.1-2.52.91-11.39,4.45-11.95a10.91,10.91,0,0,0-6.79,3.81,19.07,19.07,0,0,1,8.49-13.79c2.86-1.9,6.68-3.14,10.22-1.9,1.92.67,3.6,2,5.59,2.39a16,16,0,0,0,3.72,0A16,16,0,0,1,368.52,364C368.94,365.23,369,368.4,369.67,369.26Z"/><path class="cls-13" d="M344.53,332c1.13,2.77,2.26,5.53,3.18,8.39,3,9.46,3.64,19.78,2.71,29.8a146.53,146.53,0,0,1-6.27,29.28c2.46-11.32,4.51-22.84,4.66-34.5a85.89,85.89,0,0,0-2.26-21.3,62.09,62.09,0,0,0-3.3-10c-.26-.61-1.63-2.74-1.16-3.44C343,328.88,344.24,331.26,344.53,332Z"/></g></g></svg>